<svg width="56" height="56" viewBox="0 0 56 56" fill="none" xmlns="http://www.w3.org/2000/svg">
<g clip-path="url(#clip0_28_442)">
<path fill-rule="evenodd" clip-rule="evenodd" d="M13.6019 3.39007C16.846 1.55145 21.3304 2.4914 26.0067 5.63283C27.9261 6.9222 29.8666 8.57594 31.7504 10.5426C28.0832 11.5817 24.2128 13.1921 20.3863 15.3608C16.5599 17.5294 13.1899 20.0226 10.4144 22.6349C9.69491 20.0084 9.27309 17.4939 9.15297 15.1848C8.86033 9.55893 10.3578 5.22871 13.6019 3.39007ZM10.2249 22.8143C7.70191 13.7046 8.72353 5.89025 13.4884 3.18974C18.2532 0.489204 25.4823 3.62742 32.0017 10.4722C41.1112 7.94935 48.9254 8.97099 51.6258 13.7358C54.3264 18.5006 51.1882 25.7295 44.3436 32.2488C46.8665 41.3584 45.8448 49.1726 41.0801 51.8731C36.3152 54.5735 29.0863 51.4355 22.5671 44.5909C13.4573 47.1139 5.64301 46.0923 2.94252 41.3274C0.242011 36.5626 3.38018 29.3336 10.2249 22.8143ZM22.3877 44.4014C19.7612 45.1209 17.2467 45.5427 14.9376 45.6628C9.31168 45.9555 4.98149 44.458 3.14286 41.2139C1.30423 37.9698 2.24418 33.4854 5.38562 28.8091C6.67496 26.8898 8.32866 24.9493 10.2953 23.0655C11.3344 26.7326 12.9448 30.603 15.1134 34.4293C17.282 38.2558 19.7753 41.6258 22.3877 44.4014ZM22.6387 44.3319C20.0104 41.5548 17.4977 38.1692 15.3137 34.3158C13.1298 30.4625 11.5162 26.5675 10.4839 22.8859C13.261 20.2576 16.6465 17.7451 20.4998 15.5611C24.3532 13.3772 28.2483 11.7635 31.93 10.7312C34.5583 13.5083 37.0708 16.8937 39.2547 20.747C41.4387 24.6005 43.0523 28.4955 44.0846 32.1772C41.3075 34.8056 37.922 37.3182 34.0685 39.5021C30.2152 41.686 26.3203 43.2997 22.6387 44.3319ZM22.8183 44.5205C24.702 46.4871 26.6424 48.1407 28.5617 49.43C33.238 52.5714 37.7224 53.5113 40.9665 51.6727C44.2106 49.8341 45.7081 45.5039 45.4155 39.878C45.2954 37.569 44.8735 35.0546 44.1541 32.4282C41.3786 35.0405 38.0085 37.5338 34.1821 39.7024C30.3558 41.8711 26.4855 43.4814 22.8183 44.5205ZM44.2732 31.9976C46.2398 30.1139 47.8934 28.1734 49.1827 26.2542C52.3242 21.5778 53.2641 17.0934 51.4255 13.8493C49.5869 10.6052 45.2566 9.10773 39.6307 9.40037C37.3218 9.52049 34.8075 9.94229 32.181 10.6617C34.7933 13.4372 37.2864 16.8071 39.4551 20.6335C41.6237 24.4599 43.2341 28.3304 44.2732 31.9976ZM30.1003 17.0214L28.6153 23.2461C28.0622 25.5648 29.4171 27.9116 31.7018 28.5919L37.835 30.4181L31.6103 28.9331C29.2916 28.38 26.9448 29.7349 26.2645 32.0196L24.4382 38.1528L25.9232 31.9281C26.4764 29.6094 25.1215 27.2626 22.8368 26.5823L16.7036 24.756L22.9283 26.241C25.2469 26.7942 27.5938 25.4393 28.2741 23.1546L30.1003 17.0214Z" fill="#F2C94C"/>
<path fill-rule="evenodd" clip-rule="evenodd" d="M13.6019 3.39007C16.846 1.55145 21.3304 2.4914 26.0067 5.63283C27.9261 6.9222 29.8666 8.57594 31.7504 10.5426C28.0832 11.5817 24.2128 13.1921 20.3863 15.3608C16.5599 17.5294 13.1899 20.0226 10.4144 22.6349C9.69491 20.0084 9.27309 17.4939 9.15297 15.1848C8.86033 9.55893 10.3578 5.22871 13.6019 3.39007ZM10.2249 22.8143C7.70191 13.7046 8.72353 5.89025 13.4884 3.18974C18.2532 0.489204 25.4823 3.62742 32.0017 10.4722C41.1112 7.94935 48.9254 8.97099 51.6258 13.7358C54.3264 18.5006 51.1882 25.7295 44.3436 32.2488C46.8665 41.3584 45.8448 49.1726 41.0801 51.8731C36.3152 54.5735 29.0863 51.4355 22.5671 44.5909C13.4573 47.1139 5.64301 46.0923 2.94252 41.3274C0.242011 36.5626 3.38018 29.3336 10.2249 22.8143ZM22.3877 44.4014C19.7612 45.1209 17.2467 45.5427 14.9376 45.6628C9.31168 45.9555 4.98149 44.458 3.14286 41.2139C1.30423 37.9698 2.24418 33.4854 5.38562 28.8091C6.67496 26.8898 8.32866 24.9493 10.2953 23.0655C11.3344 26.7326 12.9448 30.603 15.1134 34.4293C17.282 38.2558 19.7753 41.6258 22.3877 44.4014ZM22.6387 44.3319C20.0104 41.5548 17.4977 38.1692 15.3137 34.3158C13.1298 30.4625 11.5162 26.5675 10.4839 22.8859C13.261 20.2576 16.6465 17.7451 20.4998 15.5611C24.3532 13.3772 28.2483 11.7635 31.93 10.7312C34.5583 13.5083 37.0708 16.8937 39.2547 20.747C41.4387 24.6005 43.0523 28.4955 44.0846 32.1772C41.3075 34.8056 37.922 37.3182 34.0685 39.5021C30.2152 41.686 26.3203 43.2997 22.6387 44.3319ZM22.8183 44.5205C24.702 46.4871 26.6424 48.1407 28.5617 49.43C33.238 52.5714 37.7224 53.5113 40.9665 51.6727C44.2106 49.8341 45.7081 45.5039 45.4155 39.878C45.2954 37.569 44.8735 35.0546 44.1541 32.4282C41.3786 35.0405 38.0085 37.5338 34.1821 39.7024C30.3558 41.8711 26.4855 43.4814 22.8183 44.5205ZM44.2732 31.9976C46.2398 30.1139 47.8934 28.1734 49.1827 26.2542C52.3242 21.5778 53.2641 17.0934 51.4255 13.8493C49.5869 10.6052 45.2566 9.10773 39.6307 9.40037C37.3218 9.52049 34.8075 9.94229 32.181 10.6617C34.7933 13.4372 37.2864 16.8071 39.4551 20.6335C41.6237 24.4599 43.2341 28.3304 44.2732 31.9976ZM30.1003 17.0214L28.6153 23.2461C28.0622 25.5648 29.4171 27.9116 31.7018 28.5919L37.835 30.4181L31.6103 28.9331C29.2916 28.38 26.9448 29.7349 26.2645 32.0196L24.4382 38.1528L25.9232 31.9281C26.4764 29.6094 25.1215 27.2626 22.8368 26.5823L16.7036 24.756L22.9283 26.241C25.2469 26.7942 27.5938 25.4393 28.2741 23.1546L30.1003 17.0214Z" fill="#F2C94C"/>
</g>
<defs>
<clipPath id="clip0_28_442">
<rect width="45" height="45" fill="white" transform="translate(11.6468) rotate(15)"/>
</clipPath>
</defs>
</svg>
