<svg width="46" height="32" viewBox="0 0 46 32" fill="none" xmlns="http://www.w3.org/2000/svg">
<g clip-path="url(#clip0_28_438)">
<path d="M25.5147 3.2318C24.0753 2.24487 22.9291 1.56505 21.2031 1.39792C19.7523 1.25744 18.2811 1.30161 16.8377 1.49487C12.6709 2.05275 8.79989 4.42147 5.86386 7.35971C2.73463 10.4912 0.757023 14.7337 1.16919 19.224C1.66488 24.6243 5.65587 28.4937 10.5902 30.1794C17.0231 32.3772 24.7144 31.1582 30.8665 28.5627C36.4634 26.2014 43.2599 21.7664 45.1215 15.5586C46.7432 10.1508 42.2661 5.0876 37.9324 2.59223C34.3408 0.524239 30.1263 -0.36079 26.092 0.914544C23.1163 1.85523 20.1328 3.38519 17.7257 5.38209C15.0147 7.63114 13.1915 10.5127 11.2449 13.3928" stroke="#2F80ED" stroke-width="1.2047" stroke-linecap="round"/>
</g>
<defs>
<clipPath id="clip0_28_438">
<rect width="45" height="31.5865" fill="white" transform="translate(0.783051 0.0088501)"/>
</clipPath>
</defs>
</svg>
