<svg width="45" height="38" viewBox="0 0 45 38" fill="none" xmlns="http://www.w3.org/2000/svg">
<g clip-path="url(#clip0_28_440)">
<path d="M11.7423 30.3477C12.2388 30.097 12.7743 29.7948 13.3375 29.4806M13.3375 29.4806C15.7194 28.1516 18.5961 26.6068 21.0999 27.8259C22.6293 28.5706 24.0641 29.6211 25.0655 31.0032C27.4825 34.3389 29.4472 37.9324 34.1864 36.5452C37.9405 35.4461 40.9128 31.1634 42.4026 27.7627C44.0246 24.0601 44.5344 19.3971 43.1194 15.5627C41.8827 12.2122 39.7573 9.04444 36.2263 7.85096C32.7671 6.6819 29.6404 7.93941 26.8248 9.94699C25.3662 10.987 23.9997 12.1552 22.5336 13.1806C21.8228 13.6777 20.6497 14.4382 19.7237 14.1403C17.3268 13.3693 17.5876 8.71866 16.9051 6.77916C16.0954 4.47849 14.6874 1.96126 12.1643 1.31118C10.1417 0.790044 9.02627 1.98068 7.51751 3.33335C6.18642 4.5267 5.51841 6.39452 5.35311 8.15836C5.00981 11.822 7.84893 13.2212 10.5616 14.8916C12.8373 16.2929 11.9987 17.5251 10.0795 18.7594C7.41145 20.4752 -1.18286 24.2331 1.85267 28.7863C3.18783 30.789 6.20552 30.4182 8.25506 29.9996C9.6837 29.7078 11.0871 29.4289 12.5525 29.4355C12.8376 29.4368 13.0942 29.4622 13.3375 29.4806ZM13.3375 29.4806C13.8403 29.5187 14.286 29.5271 14.8077 29.2321M10.0197 3.82C10.0287 3.7942 10.0817 3.68128 10.1475 3.53016M10.1475 3.53016C10.15 3.52433 10.1525 3.51847 10.1551 3.51254M10.1475 3.53016C10.2124 3.47175 10.2038 3.47548 10.1551 3.51254M10.1475 3.53016C10.1049 3.56842 10.0307 3.6334 9.91556 3.73321L9.87512 3.7682C9.12987 4.41377 8.36973 5.07223 7.70671 5.80304C7.15981 6.40585 7.18671 6.71832 8.01251 6.30089C8.9558 5.82405 9.85032 5.19315 10.7132 4.58452L10.7475 4.56036C11.0079 4.37671 12.2943 3.39856 11.4016 4.12859C10.4996 4.86623 9.60567 5.66853 8.82737 6.53777C8.77 6.60188 7.56617 7.93352 8.28918 7.7687C9.14852 7.57281 10.0184 6.65316 10.7063 6.13569C11.0793 5.85517 11.4476 5.56856 11.8208 5.28839C11.8576 5.26075 12.3969 4.83898 12.128 5.12568C11.3258 5.9812 10.4179 6.73979 9.59661 7.57747C9.42027 7.75731 8.32573 8.87369 9.20624 8.53286C10.1339 8.17377 10.9514 7.4639 11.7923 6.94714C12.0434 6.79285 13.3994 5.91069 12.8306 6.77971C12.3466 7.51919 11.6406 8.11828 11.2011 8.88512C10.9079 9.39676 10.9567 9.72284 11.5741 9.45688C12.2448 9.16801 12.8363 8.70425 13.4561 8.32149M10.1551 3.51254C10.3345 3.09853 10.5982 2.42217 10.3426 2.43479C10.1129 2.44614 9.86289 2.56485 9.61545 2.73073M10.1551 3.51254C10.0799 3.56981 9.90899 3.70682 9.76602 3.81722C9.20443 4.2509 8.58958 4.89375 7.92374 5.14585C7.50116 5.30584 7.97674 4.67727 8.05758 4.57574C8.29452 4.27832 8.5653 3.99783 8.84207 3.72754M13.4561 8.32149C13.4759 8.30925 13.4957 8.29711 13.5156 8.28504C13.9183 8.04058 13.8197 8.17373 13.607 8.38235M13.4561 8.32149C13.3742 8.23741 13.3865 8.067 13.5867 7.80622C13.8143 7.50955 14.1238 7.54869 14.3805 7.71567M13.4561 8.32149C13.4913 8.35772 13.5442 8.37792 13.607 8.38235M9.61545 2.73073C9.53707 2.78329 9.45892 2.84058 9.38174 2.90069M9.61545 2.73073C9.76864 2.5164 9.61318 2.66148 9.38174 2.90069M9.61545 2.73073C9.58295 2.77623 9.53652 2.83793 9.47394 2.91837C9.33253 3.1002 9.06218 3.43786 8.84207 3.72754M8.84207 3.72754C8.56896 4.08699 8.37316 4.3725 8.59693 4.19467C8.7812 4.04817 9.92579 2.69489 9.28773 3.30085C9.14033 3.44087 8.99034 3.58273 8.84207 3.72754ZM9.38174 2.90069C9.02608 3.17773 8.6912 3.51465 8.44794 3.72395C8.30634 3.8458 7.87541 4.13876 7.86576 4.36042C7.86437 4.39293 8.5597 3.77623 8.62072 3.71194C8.71189 3.61585 9.10222 3.18961 9.38174 2.90069ZM13.607 8.38235C13.4012 8.58417 13.0887 8.85663 13.0199 8.92627C12.5723 9.37915 11.3113 10.304 11.3739 11.056C11.4156 11.5568 12.9368 10.6889 13.0927 10.6097C13.2923 10.5082 14.2369 9.89652 14.7842 9.76243M13.607 8.38235C13.8068 8.3965 14.1079 8.25143 14.2688 7.95744C14.3105 7.88123 14.3479 7.8002 14.3805 7.71567M14.3805 7.71567C14.5348 7.816 14.67 7.96249 14.7569 8.11005C15.0395 8.58971 14.9887 9.19462 14.7842 9.76243M14.3805 7.71567C14.6296 7.07036 14.5991 6.22158 14.0584 5.77226M14.7842 9.76243C14.9426 9.72361 15.0678 9.72484 15.1318 9.79011C15.3244 9.98623 14.4406 11.0679 14.0733 11.5389M14.7842 9.76243C14.6671 10.0875 14.4996 10.4005 14.3154 10.6708M14.0733 11.5389C14.0056 11.6258 13.9554 11.6918 13.9328 11.7278C13.9079 11.7674 13.872 11.8268 13.8347 11.897M14.0733 11.5389C14.0053 11.6647 13.925 11.7845 13.8347 11.897M14.0733 11.5389C14.2015 11.3019 14.2861 11.0435 14.3119 10.7721C14.3154 10.7353 14.3165 10.7015 14.3154 10.6708M14.3154 10.6708C14.2921 10.0307 13.3107 10.6659 13.1543 11.0286C12.7411 11.987 13.62 11.4888 13.9767 11.1008C14.0908 10.9767 14.2061 10.8313 14.3154 10.6708ZM13.8347 11.897C13.6889 12.1712 13.5214 12.6083 13.902 12.6549C14.4669 12.724 15.0747 12.1838 15.5256 11.9184C16.0665 11.6001 15.5766 12.0351 15.3842 12.2307C15.1131 12.5061 14.1751 13.2298 14.2366 13.652C14.2995 14.0842 16.7584 12.5409 16.2774 13.2687C16.051 13.6112 14.6838 15.2607 14.7151 15.9914M13.8347 11.897C13.5623 12.2363 13.1988 12.5092 12.8065 12.6812C12.0527 13.0117 11.3628 12.8581 11.1471 12.0036C10.9983 11.4143 11.5152 9.61966 11.2955 10.1863C11.1312 10.6101 10.5387 11.3062 10.0637 11.3514C9.12103 11.4412 9.97127 9.85874 10.1726 9.54957C10.7076 8.72814 9.72245 9.9637 9.50952 10.1533L9.508 10.1546C9.37455 10.2735 8.24405 11.28 8.23962 10.6419C8.23453 9.91666 9.15444 9.43237 9.3597 8.78178C9.46103 8.46063 8.13362 8.75925 8.02873 8.79914C7.48608 9.00559 7.18976 9.28624 7.06667 9.607M14.7151 15.9914C14.7186 16.0738 14.7399 16.1445 14.7826 16.2003M14.7151 15.9914C14.7966 16.0151 14.8103 16.0936 14.7826 16.2003M14.7151 15.9914C14.6872 15.9833 14.6513 15.9816 14.6065 15.9873C14.4612 16.0059 13.835 16.4124 13.5436 16.5543M7.06667 9.607C7.18237 9.92313 7.33589 10.2185 7.53477 10.4781C8.22022 11.3729 9.22343 12.1163 10.0332 12.8937C10.7901 13.6205 11.6668 13.8623 12.5326 14.3859C12.8328 14.5674 13.2687 14.6539 13.5066 14.9062C13.5345 14.9358 13.5587 14.968 13.5794 15.0024M7.06667 9.607C6.72221 8.66589 6.71266 7.54017 6.83782 6.62123C6.86096 6.45108 7.383 5.12672 7.1489 4.99214C7.06453 4.94361 6.4323 6.71 6.39565 6.87715C6.28202 7.3953 6.34994 7.7418 6.46564 8.2268C6.55814 8.61451 6.45797 9.0288 6.5043 9.42244C6.55574 9.85978 6.82594 10.2354 7.11863 10.5905M7.06667 9.607C6.95087 9.90879 6.98849 10.2461 7.11863 10.5905M14.7826 16.2003C14.8745 16.3205 15.0657 16.3718 15.3923 16.3225C15.5639 16.2965 16.4425 15.9042 16.5336 16.0508C16.7109 16.3362 15.4864 17.4207 15.3192 17.5915C14.4299 18.4996 13.391 19.1036 12.3591 19.8136C11.468 20.4267 10.4588 20.7966 9.57896 21.4422C9.13395 21.7687 8.71085 22.1146 8.30278 22.4743M14.7826 16.2003C14.6951 16.5369 14.1951 17.1547 14.1092 17.2247C13.8266 17.4547 13.5131 17.6448 13.1895 17.821M13.5436 16.5543C13.5399 16.8884 13.4451 17.2123 13.3338 17.5352C13.3294 17.548 13.2652 17.689 13.1895 17.821M13.5436 16.5543C13.451 16.5994 13.3922 16.6178 13.3934 16.5885C13.3935 16.5866 13.3936 16.5848 13.3937 16.583M13.5436 16.5543C13.5448 16.4545 13.5378 16.3537 13.5206 16.2518M8.30278 22.4743C6.92034 23.693 5.71023 25.0695 4.40409 26.3832C3.95814 26.8318 3.4678 27.3516 2.91271 27.6963M8.30278 22.4743C7.6776 22.6106 7.06418 22.7876 6.47966 22.9878L6.45506 22.9962C5.90437 23.1849 5.29827 23.3925 4.74519 23.6766M8.30278 22.4743C9.25607 22.2665 10.2367 22.1532 11.1838 22.1957C11.3303 22.2022 11.4417 22.2178 11.5236 22.2405M13.1895 17.821C13.0966 17.8716 13.0028 17.921 12.9087 17.9699M13.1895 17.821C13.1081 17.9629 13.0135 18.0946 12.9658 18.0454C12.9435 18.0223 12.9246 17.9971 12.9087 17.9699M2.91271 27.6963C2.82403 27.7514 2.7337 27.802 2.64164 27.8471C2.05406 28.1351 2.0848 27.3705 2.11323 26.9727C2.16074 26.3076 2.78642 25.5843 3.21176 25.1064C3.22941 25.0865 3.24714 25.0668 3.26498 25.0472M2.91271 27.6963C2.91765 27.7197 2.92288 27.7427 2.92838 27.7653C2.93498 27.7925 2.94616 27.8817 2.96088 28.003M2.91271 27.6963C2.75662 26.9574 2.88106 25.8502 3.26498 25.0472M4.74519 23.6766C4.22885 24.1095 3.71644 24.55 3.26498 25.0472M4.74519 23.6766C4.37013 23.8692 4.01946 24.097 3.72702 24.3778C3.54547 24.5521 3.39121 24.7832 3.26498 25.0472M4.74519 23.6766C4.91175 23.5369 5.07871 23.398 5.24417 23.2583C7.23388 21.5779 9.49806 20.0417 11.6901 18.6365C12.0753 18.3895 12.4954 18.1848 12.9087 17.9699M11.5236 22.2405C11.6395 22.2727 11.6964 22.3192 11.7107 22.3749M11.5236 22.2405C11.1969 22.5105 10.8692 22.779 10.5396 23.0449M11.5236 22.2405C13.3134 20.7615 15.0717 19.2392 16.9349 17.855M2.96088 28.003C2.997 28.3007 3.05447 28.7922 3.11819 29.0377M2.96088 28.003C2.87511 28.2285 2.85668 28.4682 2.9463 28.7034C2.9988 28.8412 3.05602 28.9512 3.11819 29.0377M2.96088 28.003C3.1177 27.5907 3.49963 27.2258 3.85778 27.0222C4.50918 26.652 5.42695 26.754 6.14025 26.7797C6.232 26.783 6.32368 26.7875 6.4153 26.7931M12.9087 17.9699C12.667 17.557 13.1227 16.6965 12.89 16.2256C12.5143 15.4654 11.9206 14.7839 11.1496 14.4041C10.6864 14.176 10.2398 13.8586 9.87467 13.4916C9.53312 13.1482 9.04855 13.0289 8.70221 12.6913C8.16567 12.1683 7.41009 11.3616 7.11863 10.5905M7.11863 10.5905C7.33097 10.848 7.55513 11.0947 7.71622 11.3461C8.12161 11.9788 8.61182 12.1026 9.20932 12.4485C10.2144 13.0304 11.1016 13.7417 11.9144 14.5545C12.4167 15.0568 13.0771 15.2137 13.383 15.8216M13.3937 16.583C13.4012 16.4137 13.4364 16.2422 13.4795 16.0699M13.3937 16.583C13.3646 16.6524 13.3366 16.7158 13.3117 16.771C13.1836 17.0548 13.2651 16.4276 13.383 15.8216M13.3937 16.583C13.4355 16.4832 13.4797 16.3708 13.5206 16.2518M13.5206 16.2518C13.5169 16.2291 13.5125 16.2064 13.5077 16.1836C13.4994 16.1443 13.4899 16.1064 13.4795 16.0699M13.5206 16.2518C13.634 15.9225 13.7223 15.543 13.6663 15.2408M13.4795 16.0699C13.5486 15.7932 13.6382 15.5147 13.6663 15.2408M13.4795 16.0699C13.4534 15.9792 13.4209 15.8969 13.383 15.8216M13.383 15.8216C13.447 15.4927 13.5217 15.17 13.5794 15.0024M13.6663 15.2408C13.6757 15.149 13.6782 15.0577 13.6707 14.9672C13.6597 14.8349 13.6248 14.8707 13.5794 15.0024M13.6663 15.2408C13.6502 15.1539 13.6222 15.0735 13.5794 15.0024M14.0584 5.77226C13.9754 5.70333 13.8804 5.6438 13.7726 5.59582C13.2261 5.35275 12.5799 6.06288 13.0468 6.52266C13.3423 6.81373 13.7872 6.2634 14.0584 5.77226ZM14.0584 5.77226C14.1918 5.53068 14.2831 5.30341 14.294 5.19765C14.3115 5.02743 14.2898 4.86721 14.237 4.72156M14.237 4.72156C14.1258 4.41455 13.8769 4.17217 13.5678 4.03668M14.237 4.72156C14.0169 4.52961 13.7592 4.25715 13.5678 4.03668M14.237 4.72156C14.4891 4.94141 14.6918 5.05562 14.6889 4.865C14.687 4.74813 14.4369 3.70931 14.4867 3.7223C14.7022 3.7785 14.9665 4.92299 15.0282 5.10357C15.4767 6.41624 16.1979 7.73723 16.299 9.14133C16.4104 10.6886 17.1172 12.1728 17.7792 13.5619C18.3607 14.782 19.0557 15.6309 20.4831 15.3883C21.0277 15.2958 21.4874 14.9201 21.9451 14.6318C22.7791 14.1063 23.6036 13.5918 24.4147 13.0315C25.5174 12.2698 26.6836 11.6701 27.8158 10.9664C29.076 10.1832 30.4003 9.50803 31.837 9.13013C32.9403 8.8399 33.8633 8.65303 34.9592 9.08727C36.6559 9.75945 35.0925 11.0879 34.2932 11.83C33.1734 12.8699 31.9425 13.7677 30.7539 14.725C29.3135 15.885 28.034 17.2295 26.5918 18.3915C26.0679 18.8136 25.5277 19.2141 24.9735 19.5948M13.5678 4.03668C13.4344 3.97821 13.2898 3.93966 13.1403 3.92444C13.1149 3.92188 13.0394 3.92936 12.9409 3.94565M13.5678 4.03668C13.4321 3.88031 13.3298 3.75014 13.298 3.69345C13.2637 3.63236 13.2241 3.57736 13.1807 3.52653M24.9735 19.5948C24.5087 19.914 24.0341 20.2193 23.551 20.5117M24.9735 19.5948C25.4128 19.5035 25.7679 19.5181 25.8596 19.761C25.9871 20.0988 25.3377 20.6926 25.1578 20.8956C22.9469 23.3906 20.2185 26.1869 17.0024 27.3375C14.8401 28.1111 12.4959 28.4328 10.2308 28.7146C8.96302 28.8723 7.73788 29.1063 6.45558 29.1273C5.89152 29.1366 5.18512 29.2115 4.6031 29.0665M24.9735 19.5948C24.7858 19.6337 24.5827 19.6921 24.3783 19.7602M12.9409 3.94565C12.604 4.00139 11.9988 4.15996 12.2157 4.36994C12.4161 4.56402 12.7128 4.28026 12.9409 3.94565ZM12.9409 3.94565C13.0372 3.8043 13.1213 3.65386 13.1807 3.52653M13.1807 3.52653C13.2368 3.40642 13.2708 3.30687 13.2725 3.25494C13.2857 2.84074 12.8168 2.78165 12.4413 2.8411M13.1807 3.52653C12.9614 3.26974 12.646 3.12068 12.4413 2.8411M12.4413 2.8411C12.3121 2.86154 12.194 2.89602 12.1104 2.93489C12.0966 2.94129 12.0825 2.9499 12.0683 2.96033M12.4413 2.8411C12.39 2.77102 12.3456 2.69274 12.3114 2.60252C12.1551 2.18961 11.8336 1.76398 11.5041 2.40231C11.3937 2.61621 11.8662 2.76887 12.0683 2.96033M12.0683 2.96033C11.8813 3.09726 11.6727 3.54628 11.9488 3.37282C12.2139 3.20632 12.1906 3.07622 12.0683 2.96033ZM23.551 20.5117C23.0771 20.7985 22.595 21.0729 22.1061 21.3358M23.551 20.5117C22.4063 21.5023 21.1796 22.423 19.9154 23.2565M23.551 20.5117C23.7523 20.3375 23.951 20.1612 24.147 19.9828C24.2459 19.8927 24.3218 19.8192 24.3783 19.7602M4.6031 29.0665C4.49494 29.0395 4.39108 29.005 4.29321 28.961C3.65706 28.6751 3.99667 28.2347 4.3848 27.9252C4.67707 27.6922 5.02412 27.4695 5.39264 27.284M4.6031 29.0665C4.01282 29.2609 3.56425 29.4596 3.23427 29.168M4.6031 29.0665C4.65995 29.0477 4.71816 29.029 4.77766 29.0108M24.3783 19.7602C24.1141 19.8481 23.8477 19.9524 23.6093 20.0523M24.3783 19.7602C24.8363 19.2806 24.0054 19.7496 23.6718 20.0043C23.6509 20.0202 23.6301 20.0362 23.6093 20.0523M22.1061 21.3358C21.2977 21.7705 20.4708 22.1737 19.6313 22.5498M22.1061 21.3358C22.5941 20.8916 23.0883 20.4546 23.6093 20.0523M22.1061 21.3358C21.6983 21.7069 21.295 22.0831 20.8841 22.448C20.5696 22.7273 20.2465 22.9971 19.9154 23.2565M19.9154 23.2565C19.6587 23.4257 19.4006 23.5913 19.1412 23.7531C18.1017 24.4018 17.0303 25.0567 15.9323 25.6684M19.9154 23.2565C18.6889 24.2172 17.3521 25.0355 15.9323 25.6684M19.6313 22.5498C18.4008 23.1012 17.1433 23.5944 15.8776 24.0431M19.6313 22.5498C18.519 23.2736 17.3793 23.9508 16.2077 24.5399C15.9976 24.6455 15.6186 24.8487 15.3127 24.9678M19.6313 22.5498C20.6335 21.8978 21.6135 21.2078 22.5745 20.5105M23.6093 20.0523C23.1672 20.2375 22.8213 20.4077 22.7645 20.4313C22.7011 20.4576 22.6378 20.484 22.5745 20.5105M15.8776 24.0431C15.0976 24.3196 14.3144 24.5793 13.5326 24.8253C11.5613 25.4455 9.6408 26.2408 7.62172 26.6656M15.8776 24.0431C17.968 22.6336 20.2523 21.4837 22.5745 20.5105M15.8776 24.0431C15.8305 24.0748 15.7836 24.1067 15.7367 24.1387L15.7361 24.1391C15.7108 24.1562 14.9231 24.6912 14.8535 24.9008C14.8298 24.9722 14.838 25.0166 14.8701 25.0402M15.3127 24.9678C15.1087 25.0472 14.9372 25.0893 14.8701 25.0402M15.3127 24.9678C15.1517 24.9889 14.9933 25.0168 14.8701 25.0402M15.3127 24.9678C15.5442 24.9373 15.7811 24.9208 15.9266 24.9518C16.3024 25.0321 14.7558 25.723 14.7544 25.7235C13.2945 26.2806 11.7634 26.6496 10.2633 27.0793C10.254 27.082 10.2433 27.0852 10.2316 27.0889M22.5745 20.5105C22.8927 20.2796 23.2089 20.0479 23.523 19.8164C24.4036 19.1678 25.4871 18.3199 26.316 17.6016C27.0404 16.9738 28.6373 15.8604 28.9096 14.8325C28.9858 14.5447 28.3465 14.524 28.0536 14.5774C26.5225 14.8568 25.0253 15.6566 23.6519 16.3331C22.6696 16.8169 21.6936 17.3124 20.7267 17.8239M7.62172 26.6656C7.34104 26.7246 7.05848 26.7765 6.77359 26.8198M7.62172 26.6656C7.9095 26.5542 8.19575 26.4209 8.48184 26.2533C9.08451 25.9003 9.67482 25.526 10.2709 25.1621C10.5711 24.9788 10.9315 24.6889 11.2905 24.6275C11.6328 24.5691 11.3126 24.9911 11.8623 24.7592C13.4672 24.0819 14.9452 23.0618 16.4247 22.1584C17.5225 21.4882 18.6161 20.8032 19.7208 20.1373M7.62172 26.6656C7.44399 26.7344 7.26564 26.7948 7.08642 26.8496M14.8701 25.0402C14.7934 25.0547 14.7304 25.0674 14.6889 25.0756C13.5572 25.2988 12.4455 25.6372 11.3683 26.0478C10.764 26.2781 9.8378 26.6792 9.25917 26.9886C9.21446 27.0125 9.16393 27.0389 9.10902 27.0676M6.77359 26.8198C6.77174 26.8201 6.7699 26.8203 6.76808 26.8206C6.62078 26.8429 6.47053 26.8761 6.31941 26.9186M6.77359 26.8198C6.87793 26.8288 6.98221 26.8389 7.08642 26.8496M6.77359 26.8198C6.65422 26.8094 6.53483 26.8004 6.4153 26.7931M19.7208 20.1373C19.0017 20.2207 18.3384 20.1244 17.8387 19.7195M19.7208 20.1373C21.2314 19.9621 22.9882 18.9944 23.991 18.4298C24.8608 17.9401 25.8484 17.4567 26.6073 16.7918C26.7008 16.7098 26.9501 16.5069 26.5952 16.6148C25.5421 16.9349 24.5094 17.5084 23.5326 18.0008C22.2329 18.6561 20.9697 19.3845 19.7208 20.1373ZM7.08642 26.8496C6.79557 26.9386 6.50236 27.0131 6.20539 27.0854M7.08642 26.8496C7.76116 26.9193 8.43393 27.0187 9.10902 27.0676M6.31941 26.9186C6.00823 27.006 5.69326 27.1327 5.39264 27.284M6.31941 26.9186C6.35043 26.8762 6.38254 26.8343 6.4153 26.7931M6.31941 26.9186C6.27907 26.9737 6.24068 27.0295 6.20539 27.0854M6.4153 26.7931C6.63004 26.5229 6.87013 26.2846 6.98146 26.1631C7.33479 25.7778 7.8688 25.2871 8.27571 24.9535C9.13139 24.252 10.0794 23.6781 10.9992 23.0679L11.0207 23.0537C11.3147 22.8588 11.7593 22.5641 11.7107 22.3749M5.39264 27.284C5.66727 27.2137 5.93785 27.1504 6.20539 27.0854M5.39264 27.284C5.29671 27.3086 5.20027 27.3341 5.10334 27.3607C4.52977 27.5187 4.21192 27.9448 3.8446 28.3825C3.78251 28.4565 3.39205 29.0538 3.23427 29.168M6.20539 27.0854C6.05022 27.3311 5.9553 27.5783 6.02264 27.7707C6.15637 28.1526 7.05994 28.0285 8.00364 27.7859M3.23427 29.168C3.21582 29.1814 3.20055 29.1882 3.18936 29.1867C3.1653 29.1836 3.14133 29.1269 3.11819 29.0377M3.23427 29.168C3.1938 29.1323 3.15512 29.0891 3.11819 29.0377M20.7267 17.8239C19.6869 18.374 18.6577 18.9426 17.6427 19.5351M20.7267 17.8239C19.7645 18.4565 18.8011 19.0872 17.8387 19.7195M20.7267 17.8239C21.2391 17.4871 21.7512 17.1497 22.2627 16.8114C22.767 16.4777 23.7015 15.8612 24.2559 15.4693C24.285 15.4487 25.1713 14.8376 24.4197 15.1604C22.1259 16.1456 19.9523 17.5073 17.7963 18.7529C17.6322 18.8477 17.4685 18.9429 17.3049 19.0385M9.10902 27.0676C8.78777 27.2356 8.31799 27.4838 8.00364 27.7859M9.10902 27.0676C9.48226 27.0946 9.85618 27.1062 10.2316 27.0889M10.2316 27.0889C9.9447 27.1774 8.95379 27.5417 8.00364 27.7859M10.2316 27.0889C10.2967 27.0858 10.3619 27.0819 10.4272 27.0771C12.352 26.9344 14.2036 26.4389 15.9323 25.6684M17.6427 19.5351C16.0902 20.4415 14.5708 21.404 13.0975 22.4421C12.4483 22.8995 11.6985 23.4383 11.0592 23.9429C10.9225 24.0508 10.5153 24.3178 10.6893 24.3117C10.9756 24.3018 11.2076 24.0654 11.4535 23.9183C12.3559 23.3782 13.2246 22.7846 14.0974 22.1987C15.3397 21.365 16.5884 20.541 17.8387 19.7195M17.6427 19.5351C17.5151 19.3965 17.4017 19.2319 17.3049 19.0385M17.6427 19.5351C17.7048 19.6026 17.7702 19.6639 17.8387 19.7195M17.3049 19.0385C15.4305 20.1343 13.5858 21.2806 11.7107 22.3749M17.3049 19.0385C17.2416 18.9119 17.1853 18.7729 17.1368 18.6208C17.0572 18.3709 16.991 18.1148 16.9349 17.855M11.7107 22.3749C11.4765 22.5115 11.2418 22.6474 11.0065 22.7823C10.8518 22.871 10.6961 22.9586 10.5396 23.0449M16.9349 17.855C17.0228 17.7897 17.1109 17.7247 17.1993 17.6601C17.608 17.361 18.6547 16.8941 18.9122 16.4306C19.0408 16.199 18.3993 16.5731 18.1595 16.6856C17.7053 16.8988 17.279 17.1587 16.8498 17.4141M16.9349 17.855C16.9035 17.7091 16.8753 17.562 16.8498 17.4141M10.5396 23.0449C9.56087 23.5849 8.54927 24.0757 7.51097 24.4864C7.37902 24.5386 6.80855 24.6361 6.7496 24.8331C6.42333 25.9236 7.68625 25.2141 8.06065 24.9454C8.90655 24.3382 9.72876 23.6993 10.5396 23.0449ZM16.8498 17.4141C16.6148 17.5539 16.379 17.6924 16.1371 17.8211C15.3246 18.2535 15.8201 17.483 16.0495 17.1118C16.1352 16.9731 16.4335 16.5835 16.6857 16.1572M16.8498 17.4141C16.778 16.9985 16.7274 16.5765 16.6857 16.1572M16.6857 16.1572C17.0467 15.5467 17.313 14.8608 16.7241 14.7286C16.677 14.7181 16.6365 14.7095 16.6016 14.6994M16.6857 16.1572C16.6579 15.879 16.6342 15.602 16.6107 15.3288L16.6053 15.2657C16.5952 15.148 16.6048 14.9274 16.6016 14.6994M16.6016 14.6994C16.4953 14.6684 16.4405 14.6222 16.4065 14.4567C16.4005 14.4276 16.4295 13.9525 16.4676 13.9967C16.5738 14.1199 16.5976 14.4155 16.6016 14.6994ZM8.00364 27.7859C7.84527 27.9381 7.72636 28.104 7.68573 28.2803C7.50845 29.0491 11.1985 27.8436 11.4624 27.7497C12.9907 27.2061 14.4847 26.4747 15.9323 25.6684M21.1238 24.2983C20.7922 24.3946 19.3856 25.0906 19.0572 24.7166M9.78282 20.6945C8.72931 20.9217 7.51586 21.2761 6.69919 22.0391C6.48093 22.2431 6.23666 22.4286 5.94986 22.5267C5.60485 22.6446 4.94902 22.5718 4.71019 22.875C4.22367 23.4926 3.83596 24.1796 3.33973 24.7919C2.83734 25.4119 2.39548 26.1871 2.28601 26.9897C2.15394 27.9581 2.41829 28.7052 3.29353 29.1268C4.31523 29.6189 5.70864 29.7677 6.82127 29.6056C7.65931 29.4834 8.44717 29.2117 9.26115 28.9994C10.1799 28.7597 11.1131 28.6283 12.0017 28.2834C15.1031 27.0797 18.2757 25.9134 21.4565 24.9485M4.55085 28.8395C7.3535 28.0321 10.181 27.0386 13.0809 26.6246C15.0463 26.344 17.0294 25.9756 18.9133 25.3377C21.6753 24.4024 24.2962 23.1412 26.9914 22.0403C27.7505 21.7302 28.5573 21.4963 29.3028 21.1577C29.5127 21.0623 28.838 21.4104 28.7903 21.4405M8.17995 28.6933C12.7139 27.6312 17.2453 26.5025 21.5873 24.8082C22.4895 24.4561 23.4276 23.8406 24.399 23.7058C24.8903 23.6376 24.0786 24.1909 24.0095 24.2375C23.1173 24.8382 22.1705 25.3252 21.2896 25.9459C21.2226 25.9931 21.1625 26.0422 21.0779 26.0422C20.9928 26.0422 20.9336 26.0839 20.8746 26.1207M20.8746 26.1207C20.821 26.1541 20.7676 26.1834 20.6951 26.1738C20.41 26.1358 20.7333 26.1061 20.8746 26.1207ZM20.8746 26.1207C20.8822 26.1214 20.8892 26.1223 20.8956 26.1234C21.503 26.2216 22.0367 26.1404 22.6457 26.0623C22.876 26.0328 23.6238 25.8092 23.5158 25.8708C23.4604 25.9024 23.4012 25.9417 23.3392 25.9862M23.3392 25.9862C22.9586 26.2587 22.469 26.723 22.0703 26.7618C21.6618 26.8016 21.6859 26.7266 21.4024 26.5916C21.3856 26.5836 21.3522 26.5779 21.3102 26.5739M23.3392 25.9862C23.3306 25.9907 23.3221 25.9952 23.3136 25.9996C22.7139 26.3136 22.0038 26.533 21.3102 26.5739M23.3392 25.9862C25.352 24.9257 27.1341 23.2239 28.8329 21.7407C28.8978 21.684 30.4147 20.336 30.3635 20.2896C30.1539 20.1001 27.8712 21.9044 27.7111 22.0159C27.4122 22.2241 26.4082 23.0369 27.2729 22.322C28.7101 21.1335 30.0806 19.8712 31.4601 18.6169C32.0468 18.0833 32.6464 17.5621 33.2126 17.0062C33.2569 16.9627 33.827 16.4819 33.7859 16.3376C33.7218 16.1117 31.2952 17.4393 31.1246 17.5377C30.5013 17.8972 29.8828 18.2651 29.2636 18.6314C29.2571 18.6352 28.7287 18.9316 28.7741 18.8605C29.3643 17.9363 30.473 17.1728 31.2279 16.3793C31.3803 16.2191 33.2819 14.4751 32.8396 14.1552C32.5913 13.9753 32.0242 14.2935 31.8233 14.3811C30.886 14.7901 29.9708 15.266 29.0888 15.7832C28.4716 16.1451 27.8665 16.5278 27.2692 16.9217C27.1052 17.0299 26.9684 17.1361 27.2233 16.9452C28.7016 15.8383 30.1813 14.7333 31.6636 13.6316L31.6746 13.6235C31.8761 13.4739 33.8562 12.0046 33.6797 11.8633C33.2113 11.4877 31.9466 11.862 31.1778 12.1062M21.3102 26.5739C21.1271 26.5568 20.7826 26.5733 20.9586 26.579C21.0749 26.5827 21.1923 26.5809 21.3102 26.5739ZM31.1778 12.1062C30.9795 12.1692 30.8142 12.2236 30.704 12.2542C28.2661 12.9314 25.9736 14.1452 24.0957 15.8632C23.6003 16.3165 23.7532 16.4005 24.2537 16.1813C25.4293 15.6664 26.5368 14.9683 27.6422 14.3215C28.8328 13.6248 30.0546 12.9243 31.1778 12.1062ZM31.1778 12.1062C31.465 11.897 31.7458 11.6801 32.0179 11.4537C32.063 11.416 32.5567 11.0283 32.3158 10.8964C31.8673 10.6507 30.5723 11.3998 30.1938 11.5556C28.3046 12.3332 26.4531 13.2799 24.7711 14.4433C23.7187 15.1713 22.6644 15.9502 21.9605 17.0303M34.8238 10.216C34.469 9.54989 34.2952 9.25946 33.6108 9.13236C33.3165 9.07775 33.0089 9.05434 32.7247 8.95706C32.2799 8.80484 31.5606 8.69696 31.1173 8.83973C29.9178 9.22612 28.8027 10.1743 27.8914 11.0314C27.3696 11.5222 26.6643 11.8604 26.0746 12.2629C25.5547 12.6177 26.2433 11.5519 26.3418 11.4455C26.8743 10.8702 27.6318 10.2722 28.3316 9.91413C29.6808 9.22385 30.9059 8.53435 32.4541 8.37186C34.5105 8.15603 37.3788 8.66806 38.3575 10.7057C38.89 11.815 39.6405 12.8273 40.1426 13.9569C40.6033 14.9939 41.0866 15.9605 41.3611 17.0746C41.6541 18.2634 41.759 19.4601 42.0064 20.6492M39.6524 12.8218C39.8959 13.1053 40.1274 13.3756 40.3388 13.6495M40.3388 13.6495C40.5531 13.9276 40.7464 14.2093 40.9089 14.5122M40.3388 13.6495C40.2905 13.964 40.2679 14.2636 40.263 14.4049C40.2384 15.0877 40.0451 15.7362 39.7657 16.3531M40.3388 13.6495C40.3624 13.4943 40.3925 13.3354 40.4301 13.1901M40.9089 14.5122C41.0523 14.779 41.1717 15.0623 41.2611 15.374M40.9089 14.5122C40.9364 14.5779 40.9649 14.6434 40.9943 14.7085C41.0682 14.871 41.163 15.1093 41.2611 15.374M40.9089 14.5122C40.7266 14.0754 40.588 13.6262 40.4301 13.1901M39.7657 16.3531C39.7848 16.5261 39.6923 16.827 39.6505 16.9447C39.4268 17.5732 39.1532 18.1816 38.8823 18.791M39.7657 16.3531C39.7502 16.214 39.6621 16.1577 39.4168 16.3465C38.767 16.8467 38.2976 17.6088 37.822 18.2646C37.4539 18.772 37.5967 18.4792 37.7692 18.1128C38.1179 17.3731 38.5051 16.6504 38.8285 15.8991C38.9561 15.6029 39.2536 14.7548 38.9939 14.9459C38.2652 15.482 37.6951 16.4362 37.1982 17.1745C37.168 17.2193 36.62 18.1461 36.6834 18.0244C37.2004 17.033 37.7365 16.0515 38.1969 15.0316L38.1972 15.031C38.2147 14.9932 38.9988 13.2936 38.5485 13.5582C37.8566 13.9648 37.3493 14.7597 36.9424 15.4186C36.6556 15.8829 36.3454 16.3625 36.0664 16.8538M39.7657 16.3531C39.4702 17.0055 39.0778 17.6227 38.6857 18.2081C38.4345 18.5834 38.1538 18.974 37.8382 19.3264M40.4301 13.1901C40.2368 12.6578 40.0147 12.1448 39.6485 11.6973C39.3821 11.3716 39.3157 10.9999 38.9778 10.7295C38.8687 10.6423 38.7929 10.5233 38.6793 10.4338C37.6203 9.59858 35.7164 11.3651 34.9527 11.919C33.683 12.8397 32.4379 13.829 31.366 14.9795C31.0304 15.3397 30.8786 15.5737 31.3156 14.9902C31.5769 14.6412 34.1239 11.2813 33.163 11.1918C32.9008 11.1674 32.3651 11.4059 32.0951 11.4425M40.4301 13.1901C40.5728 12.6347 40.8224 12.2777 41.2355 13.0814C41.7703 14.1218 41.8519 15.4314 42.0607 16.5689C42.1145 16.8621 42.1216 17.162 42.108 17.4639M41.2611 15.374C41.2753 15.4243 41.2889 15.4754 41.3019 15.5272C41.4006 15.9267 41.3773 16.4844 41.5492 16.8765M41.2611 15.374C41.4544 15.8975 41.6593 16.5245 41.737 16.8751M41.5492 16.8765C41.5725 16.9297 41.5994 16.9798 41.6305 17.0261C41.7814 17.2495 41.7962 17.1428 41.737 16.8751M41.5492 16.8765C41.3071 17.0504 40.9451 17.6882 40.85 17.7575C40.2666 18.1816 39.5598 18.4771 38.8823 18.791M41.5492 16.8765C41.6033 16.8376 41.6515 16.8219 41.6894 16.841C41.7079 16.8503 41.7234 16.8618 41.737 16.8751M41.737 16.8751C41.8406 16.9774 41.816 17.1857 41.8966 17.3031C41.9484 17.3786 42.0329 17.4157 42.108 17.4639M38.8823 18.791C38.7013 19.1975 38.5216 19.6045 38.3591 20.0183M38.8823 18.791C38.6155 18.9144 38.3536 19.0406 38.1056 19.1786C38.0166 19.2282 37.9272 19.2774 37.8382 19.3264M42.108 17.4639C42.1015 17.6027 42.0905 17.7418 42.0779 17.881M42.108 17.4639C42.1452 17.4878 42.1802 17.5145 42.208 17.55C42.2589 17.6153 42.2861 17.9504 42.3074 18.1835M32.0951 11.4425C31.8985 11.4693 31.8429 11.389 32.136 11.0224C32.5823 10.4648 33.0378 9.90008 33.5557 9.40677C33.9452 9.03612 33.1087 10.1193 33.0721 10.1642C32.7338 10.5801 32.4097 11.0076 32.0951 11.4425ZM32.0951 11.4425C31.2127 12.6631 30.4061 13.9427 29.5696 15.1909C28.8599 16.25 26.6213 19.3493 27.4051 18.3439C27.9391 17.6587 28.5035 16.9959 29.0869 16.3519C29.4066 15.9989 29.7355 15.6257 30.1073 15.3253C30.1909 15.2578 29.6791 15.9656 29.6377 16.0223C29.3129 16.4665 28.9987 16.9179 28.69 17.3731M28.69 17.3731C27.9154 18.5152 27.1752 19.6807 26.3866 20.8138L26.3849 20.8163C26.3657 20.8438 26.2911 20.9511 26.1958 21.0933M28.69 17.3731C29.6518 16.5229 30.6935 15.6983 31.8121 15.2293C32.4534 14.9604 32.5016 15.164 32.1013 15.6801C31.517 16.4333 30.8293 17.1147 30.1658 17.7964C30.049 17.9164 29.9324 18.037 29.8158 18.1579M28.69 17.3731C28.2547 17.7578 27.8358 18.1478 27.4336 18.5124C26.6236 19.2466 25.812 19.9956 25.0817 20.8105C24.736 21.1962 24.2621 21.6917 24.082 22.1926C23.8386 22.8694 25.4477 21.6762 26.0153 21.2344C26.0755 21.1875 26.1357 21.1404 26.1958 21.0933M26.1958 21.0933C25.8678 21.5832 25.2958 22.4878 25.9083 21.977C27.2975 20.8182 28.5572 19.4633 29.8158 18.1579M26.1958 21.0933C27.4149 20.1366 28.602 19.1287 29.8158 18.1579M29.8158 18.1579C30.6874 17.4608 31.5727 16.7828 32.4932 16.1567C32.7383 15.9901 33.4793 15.5776 33.3184 15.8263C32.9303 16.426 32.3562 16.9541 31.8835 17.4839C30.2877 19.2724 28.6553 21.028 27.062 22.8187C26.759 23.1592 26.1103 23.6912 25.9061 24.1728M25.9061 24.1728C25.8887 24.2139 25.8745 24.2547 25.8641 24.2949C25.8541 24.3333 26.2006 24.1153 26.4641 23.9442M25.9061 24.1728C24.4035 24.7972 23.0866 25.4205 22.4266 25.9179M25.9061 24.1728C26.0896 24.0965 26.2759 24.0203 26.4641 23.9442M26.4641 23.9442C26.6191 23.8436 26.7454 23.7592 26.7534 23.7528C28.9265 22.0281 30.9413 20.1087 33.1187 18.3867C33.5939 18.0108 34.0812 17.6469 34.5969 17.3277C35.0265 17.0617 34.8896 17.2608 34.6477 17.566C33.2339 19.349 31.5743 20.9469 30.0043 22.5992M26.4641 23.9442C27.6392 23.4693 28.8889 23.0025 30.0043 22.5992M22.4266 25.9179C22.076 26.1822 21.9107 26.4109 22.0014 26.5854C22.0426 26.6647 22.0876 26.7804 22.1378 26.9036M22.4266 25.9179C21.7994 26.1558 21.165 26.3575 20.5233 26.4907M22.4266 25.9179C23.8108 25.393 25.1597 24.6918 26.4731 24.1608C26.7604 24.0446 27.5777 23.6895 27.3712 23.9205C27.0118 24.3225 26.4498 24.6124 26.02 24.9305C25.8316 25.07 24.7113 25.8371 24.1443 26.4638M30.0043 22.5992C29.8267 22.7861 29.6503 22.9737 29.4755 23.1623C28.9937 23.6822 28.4251 24.2115 28.055 24.8255C27.9637 24.977 27.8992 25.1597 27.9892 25.2198M30.0043 22.5992C31.3134 22.1259 32.4375 21.7401 33.0387 21.5311M27.9892 25.2198C28.0306 25.2475 28.1048 25.2491 28.2241 25.2097C28.26 25.1978 28.2957 25.1849 28.3312 25.1708M27.9892 25.2198C27.1153 25.5617 26.2666 25.9749 25.3957 26.3274M27.9892 25.2198C28.0557 25.1938 28.1223 25.1682 28.1891 25.1431C28.3651 25.0769 28.396 25.0957 28.3312 25.1708M33.0387 21.5311C32.9827 21.5765 32.9267 21.622 32.8707 21.6673C31.8879 22.4635 30.9162 23.2734 29.9219 24.0555C29.4473 24.4288 28.9153 24.9402 28.3312 25.1708M33.0387 21.5311C33.4813 21.1717 33.9235 20.8104 34.3732 20.4591M33.0387 21.5311C33.2216 21.4676 33.3563 21.4204 33.4327 21.392C33.7807 21.2636 34.1226 21.1282 34.46 20.9866M28.3312 25.1708C28.1105 25.4267 26.7804 26.3346 26.2959 26.7534C25.9628 27.0413 25.5316 27.3778 25.3163 27.7743C25.1911 28.005 25.8615 27.7311 26.0814 27.5878C26.2915 27.4509 26.499 27.3026 26.7003 27.1451M25.3957 26.3274C25.9797 25.8068 26.1728 25.3882 24.6191 26.1928C24.4573 26.2766 24.2991 26.3676 24.1443 26.4638M25.3957 26.3274C24.9779 26.4966 24.555 26.6519 24.1217 26.7786C24.1063 26.7831 24.0112 26.807 23.8712 26.8386M25.3957 26.3274C25.012 26.6696 24.4595 27.0558 24.1231 27.1679M26.7003 27.1451C26.9999 26.9105 27.2857 26.6554 27.5459 26.3866C27.5841 26.3471 27.681 26.2233 27.6305 26.2449C27.5476 26.2803 27.3176 26.4843 27.2883 26.5109C27.2454 26.5499 26.9777 26.8225 26.7003 27.1451ZM26.7003 27.1451C26.2715 27.6434 25.8193 28.2609 26.1362 28.3198C26.5746 28.4012 27.1345 27.94 27.4457 27.7144C28.1113 27.2318 28.7476 26.6983 29.3739 26.1657C30.1356 25.5179 27.9231 27.5445 27.2479 28.282C27.0802 28.4652 26.7263 28.8186 26.5254 29.0748M34.3732 20.4591C34.6824 20.2174 34.9951 19.9805 35.3137 19.752C35.3671 19.7137 35.6808 19.5199 35.9012 19.3903M34.3732 20.4591C34.2214 20.4267 34.1485 20.2425 34.2188 19.8131C34.448 18.4158 34.9352 17.0232 35.4066 15.6924C35.5914 15.1698 36.3697 13.7247 36.0016 14.1392C35.5092 14.6935 35.1673 15.3825 34.6778 15.9472C34.638 15.9931 33.503 17.1884 33.4013 16.9637C33.2501 16.6303 33.7636 15.6252 33.8701 15.371C34.0922 14.8409 34.3453 14.3459 34.6354 13.85C34.6772 13.7787 35.8096 12.2292 35.8252 12.2959C35.9456 12.8202 35.2373 13.8721 35.0326 14.3025C34.6811 15.0416 34.3003 15.7727 33.9925 16.5319C33.9465 16.6461 34.1333 16.3291 34.1935 16.2217C34.5072 15.6634 34.6814 15.3599 35.0524 14.7922C35.4661 14.1592 35.821 13.6498 36.3001 13.069C36.3684 12.9861 36.8702 12.3533 37.1279 12.2746C37.4225 12.1845 36.5591 14.2177 36.5448 14.2493C36.4684 14.4159 36.3907 14.5821 36.3124 14.7479M34.3732 20.4591C34.7274 20.5348 35.5118 19.7813 35.9012 19.3903M34.46 20.9866C35.0631 20.4469 35.639 19.8865 36.1214 19.2749C36.1363 19.2559 36.0362 19.311 35.9012 19.3903M34.46 20.9866C33.6665 21.6965 32.8257 22.3705 32.0901 23.078C31.4397 23.7034 30.8096 24.3539 30.2369 25.0521C30.1956 25.1025 29.635 25.7733 30.1501 25.5404C30.7098 25.2873 31.2105 24.8521 31.7003 24.4898C32.8733 23.6224 34.0452 22.7521 35.2534 21.9339C35.9712 21.4475 37.7103 20.314 38.3591 20.0183M34.46 20.9866C35.2515 20.6541 36.0181 20.2871 36.7786 19.8932M35.9012 19.3903C35.9676 19.3236 36.0226 19.2675 36.0621 19.2278C36.1444 19.1447 36.281 18.9728 36.3684 18.8297M36.3124 14.7479C36.665 14.1161 37.0502 13.495 37.5135 12.9595C38.3591 11.9831 36.7423 15.4339 36.1874 16.6002C36.1557 16.6669 36.1139 16.7548 36.0664 16.8538M36.3124 14.7479C36.1152 15.1011 35.9284 15.4576 35.7439 15.8044C35.7025 15.8824 34.6801 17.9564 35.2926 16.7875C35.6452 16.1146 35.987 15.4349 36.3124 14.7479ZM36.3684 18.8297C36.4552 18.6875 36.4934 18.5739 36.381 18.6043C35.7902 18.764 35.1848 19.3811 34.7788 19.8136C34.4062 20.211 35.0511 19.766 35.1042 19.7294L35.1071 19.7274C35.5325 19.4363 35.9547 19.1382 36.3684 18.8297ZM36.3684 18.8297C36.5303 18.7093 36.6905 18.5872 36.8495 18.4634C37.1587 18.2224 38.0049 17.421 37.777 17.7399C37.4342 18.2186 37.0952 18.6667 36.9071 19.2357C36.8721 19.3414 36.7737 19.674 36.7786 19.8932M38.3591 20.0183C38.4698 19.9678 38.5488 19.9418 38.5854 19.9475M38.3591 20.0183C38.3461 20.051 38.3332 20.0838 38.3206 20.1166C38.2934 20.1872 38.2409 20.3949 38.2953 20.3423C38.3494 20.2901 38.4766 20.1083 38.5854 19.9475M36.7786 19.8932C36.7825 20.0816 36.8628 20.1862 37.1243 19.9912C37.3804 19.8003 37.618 19.5727 37.8382 19.3264M36.7786 19.8932C37.1324 19.7098 37.485 19.5206 37.8382 19.3264M38.5854 19.9475C38.6365 19.9554 38.6058 20.0247 38.4656 20.1751C37.0146 21.7323 35.2858 23.0583 33.7374 24.5159C33.0433 25.1696 32.353 25.8315 31.739 26.5627C31.5147 26.8298 30.8427 27.3551 31.1792 27.4467C31.4825 27.5293 32.2909 26.7999 32.4777 26.6658C33.514 25.9212 34.5079 25.1184 35.5186 24.3403C36.3056 23.7346 37.0878 23.1068 37.9152 22.5561C38.486 22.1761 37.9942 22.7494 37.8592 22.9061C36.3477 24.662 34.5917 26.1907 33.2382 28.084C33.1407 28.2205 32.8231 28.6763 32.5842 29.1051M38.5854 19.9475C38.6796 19.8079 38.7602 19.6842 38.7664 19.6748C38.8042 19.6195 39.9114 18.0947 39.9869 18.329C40.1513 18.8397 39.5207 19.9326 39.3488 20.3972C39.1335 20.9804 38.8946 21.5531 38.6628 22.1299C38.4138 22.7497 38.7767 22.0416 38.833 21.9389C39.2688 21.1461 39.7152 20.3581 40.231 19.6137C40.624 19.0465 40.5531 19.2952 40.3291 19.6882C39.6042 20.9604 37.2276 24.5638 38.329 23.5991C39.0344 22.9814 39.6058 22.204 40.2666 21.5396C40.4061 21.3993 40.7612 21.1325 40.9276 21.088M32.5842 29.1051C32.5127 29.2331 32.4486 29.3588 32.399 29.4728M32.5842 29.1051C32.7192 29.0128 32.8108 28.9671 32.7448 29.0618C32.6447 29.2059 32.5269 29.3423 32.399 29.4728M32.5842 29.1051C32.4307 29.2101 32.2209 29.3755 32.1232 29.4631C31.5362 29.989 30.9688 30.5424 30.44 31.1289M40.9276 21.088C40.995 21.07 41.0316 21.0881 41.0109 21.1652C40.8558 21.7474 40.5596 22.325 40.2705 22.881M40.9276 21.088C40.7188 21.6898 40.5023 22.2884 40.2705 22.881M40.9276 21.088C41.1565 20.4287 41.376 19.7654 41.5959 19.1015L41.6457 18.9507C41.657 18.9162 41.93 18.0484 42.0779 17.881M32.399 29.4728C32.2083 29.9135 32.2412 30.1804 32.9568 29.7411C34.829 28.5919 36.3457 26.8284 38.0412 25.439C38.3057 25.2222 38.9651 24.5106 38.8745 24.8404C38.8003 25.1104 38.2717 25.4802 38.0855 25.6586C36.9819 26.7163 35.7905 27.6801 34.6539 28.7017C34.5791 28.7692 33.4026 29.9426 33.785 29.6644C35.1851 28.6454 36.3898 27.3582 37.7563 26.2931C38.1033 26.0224 38.9153 25.4028 38.4698 26.276C37.9813 27.2339 37.3082 28.0834 36.876 29.0744C36.8605 29.1097 36.8466 29.1427 36.8336 29.1735M32.399 29.4728C32.0948 29.7838 31.7342 30.0612 31.4212 30.3277C31.1045 30.5974 30.7807 30.8754 30.44 31.1289M30.44 31.1289C30.086 31.3924 29.7139 31.6295 29.3128 31.8032M30.44 31.1289C30.2382 31.3528 30.042 31.5816 29.8524 31.8154C29.7636 31.9251 29.687 32.0275 29.6267 32.1178M36.8336 29.1735C36.4956 29.9846 37.022 29.2754 37.3367 28.9022C38.0914 28.007 38.8343 27.0617 39.6906 26.2611C39.8774 26.0864 40.1818 25.8439 40.4744 25.7085M36.8336 29.1735C37.1813 28.9042 37.4251 28.4568 37.6482 28.0963C37.8621 27.7501 38.0687 27.398 38.2697 27.0424M36.8336 29.1735C36.8145 29.1885 36.7948 29.2028 36.775 29.2166C36.5928 29.3428 35.652 29.9198 35.7484 29.3782C35.83 28.9194 36.0644 28.4969 36.2483 28.0742C36.3205 27.9079 35.3985 29.0692 35.3114 29.1856C35.2039 29.3296 35.0958 29.4752 34.9876 29.6224M40.4744 25.7085C40.871 25.525 41.2465 25.5381 41.2812 26.1827C41.3288 27.0769 40.76 27.9731 40.4378 28.7759C39.9406 30.0159 39.3899 31.5052 38.4701 32.512C37.2438 33.8549 35.3049 35.7899 33.2987 35.6096C32.4489 35.5332 31.4176 35.8329 30.597 35.5736C29.9363 35.3651 29.3843 34.5684 28.8838 34.1255C28.2765 33.5881 27.868 32.8027 27.3067 32.2013C26.7563 31.6114 26.5435 30.7766 25.901 30.2194C25.2874 29.6872 24.9337 28.9568 24.4521 28.3377M40.4744 25.7085C40.3323 26.03 40.185 26.3485 40.0383 26.6644C39.3067 28.2385 38.5236 29.8585 37.4895 31.2773M40.4744 25.7085C40.7736 25.0317 41.05 24.3416 41.253 23.6347C41.5003 22.7743 40.9853 23.2249 40.6619 23.638C39.9506 24.5472 39.3582 25.548 38.7094 26.5014C38.5799 26.6916 38.4785 26.9143 38.2953 27.0536C38.2746 27.0695 38.2678 27.0626 38.2697 27.0424M38.2697 27.0424C38.2746 26.9882 38.3426 26.838 38.3707 26.7736C38.8554 25.6696 39.4187 24.5988 39.9467 23.5154C40.048 23.3078 40.1588 23.096 40.2705 22.881M38.2697 27.0424C38.5297 26.5819 38.78 26.1157 39.0247 25.649C39.497 24.7483 39.9027 23.8221 40.2705 22.881M34.9876 29.6224C34.9346 29.6755 34.8653 29.748 34.7779 29.843C34.4111 30.2415 34.052 30.6614 33.7286 31.1054M34.9876 29.6224C35.2835 29.3262 35.0802 29.6315 34.7571 29.9889C34.6985 30.0536 34.64 30.1183 34.5814 30.1828M34.9876 29.6224C34.852 29.8069 34.7164 29.9938 34.5814 30.1828M24.4521 28.3377C24.4385 28.3203 24.4248 28.3029 24.411 28.2856M24.4521 28.3377C24.4555 28.3313 24.4585 28.3246 24.4612 28.3176M24.4521 28.3377C24.4075 28.422 24.3026 28.452 24.1016 28.364C23.7904 28.2278 23.7003 27.9207 23.5684 27.6233M37.4895 31.2773C36.7828 31.8127 36.0534 32.3246 35.3269 32.8212C35.1269 32.9581 34.8491 33.1669 35.1492 32.828C35.5293 32.3984 35.8919 31.9551 36.2438 31.5021C36.8712 30.6941 37.4212 29.8416 37.9615 28.982M37.4895 31.2773C37.8327 31.0174 38.1703 30.7521 38.4999 30.4802M37.4895 31.2773C37.1878 31.6915 36.8644 32.0886 36.5147 32.4625M24.411 28.2856C24.2506 28.0848 24.0753 27.8969 23.8714 27.7329C23.7603 27.6435 23.6404 27.5715 23.5151 27.5099M24.411 28.2856C24.4275 28.2965 24.4442 28.3072 24.4612 28.3176M24.411 28.2856C24.1805 28.1339 23.9911 27.9403 23.7645 27.7788C23.69 27.7257 23.6271 27.6717 23.5684 27.6233M24.4612 28.3176C24.5034 28.2085 24.4649 28.0304 24.4051 27.8891C24.3047 27.6518 24.2426 27.3808 24.1231 27.1679M24.4612 28.3176C24.4801 28.3292 24.4993 28.3405 24.5188 28.3514C24.8794 28.5537 25.2001 28.5542 25.593 28.6536C25.9199 28.7362 26.2313 28.8854 26.5254 29.0748M23.5684 27.6233C23.5515 27.5852 23.534 27.5473 23.5151 27.5099M23.5684 27.6233C23.3901 27.4762 23.2503 27.3805 22.9417 27.5195C22.8759 27.5491 22.7121 27.6915 22.716 27.5727C22.7226 27.374 22.5523 27.5334 22.4775 27.4809C22.341 27.3851 22.2305 27.1316 22.1378 26.9036M23.5151 27.5099C23.1849 27.3474 22.8181 27.2567 22.4817 27.1085C22.356 27.0531 22.2465 26.9773 22.1378 26.9036M23.5151 27.5099C23.4158 27.3124 23.2821 27.1298 23.0327 27.018C23.0265 27.0152 23.0105 27.0099 22.9872 27.0028M22.1378 26.9036C21.9735 26.7923 21.8111 26.6859 21.5976 26.6621C21.2706 26.6257 20.8946 26.5469 20.5233 26.4907M22.9872 27.0028C23.1403 26.9824 23.3003 26.955 23.4504 26.9264M22.9872 27.0028C22.814 26.9507 22.2361 26.8056 22.2313 26.9141C22.2247 27.0628 22.5816 27.0571 22.9872 27.0028ZM20.5233 26.4907C20.2026 26.4422 19.8854 26.4107 19.6066 26.4381C19.0419 26.4937 19.6232 26.6333 19.8777 26.6002C20.0937 26.5722 20.3089 26.5353 20.5233 26.4907ZM24.1443 26.4638C24.0232 26.5976 23.9273 26.7251 23.8712 26.8386M24.1443 26.4638C23.9938 26.5574 23.8464 26.6559 23.7017 26.7579C23.6899 26.7662 23.675 26.7753 23.6583 26.785M23.8712 26.8386C23.8641 26.853 23.8576 26.8672 23.8518 26.8811M23.8712 26.8386C23.8481 26.8438 23.8239 26.8492 23.7986 26.8548M23.6583 26.785C23.647 26.7915 23.6349 26.7983 23.6224 26.8053M23.6583 26.785C23.6537 26.7931 23.649 26.8011 23.6443 26.8089M23.6583 26.785C23.7627 26.6002 23.8341 26.3297 23.6827 26.2516C23.43 26.1213 22.4969 26.4429 22.2741 26.6694C22.172 26.7732 23.4695 26.7916 23.5561 26.7979C23.579 26.7996 23.6011 26.8021 23.6224 26.8053M23.8518 26.8811C23.8078 26.9866 23.802 27.0784 23.8473 27.1499C23.8878 27.2138 23.9881 27.213 24.1231 27.1679M23.8518 26.8811C23.8348 26.8716 23.8171 26.8628 23.7986 26.8548M23.8518 26.8811C23.9714 26.9478 24.0562 27.0487 24.1231 27.1679M23.7986 26.8548C23.7317 26.8695 23.6573 26.8853 23.5784 26.9012M23.7986 26.8548C23.7522 26.8346 23.701 26.819 23.6443 26.8089M23.6224 26.8053C23.5503 26.8454 23.4658 26.8909 23.4504 26.9264M23.6224 26.8053C23.6298 26.8064 23.6371 26.8076 23.6443 26.8089M23.6443 26.8089C23.6229 26.8444 23.6004 26.8759 23.5784 26.9012M23.4504 26.9264C23.4443 26.9402 23.4489 26.9525 23.4687 26.9623C23.4959 26.9757 23.5362 26.95 23.5784 26.9012M23.4504 26.9264C23.494 26.918 23.5369 26.9096 23.5784 26.9012M26.5254 29.0748C26.3691 29.274 26.3053 29.4144 26.4933 29.3704C26.5933 29.3469 26.6947 29.3105 26.7967 29.264M26.5254 29.0748C26.6176 29.1342 26.708 29.1975 26.7967 29.264M26.7967 29.264C26.9107 29.212 27.0253 29.1473 27.1396 29.0739M26.7967 29.264C26.8568 29.309 26.916 29.3554 26.9744 29.403M27.1396 29.0739C27.6856 28.723 28.2224 28.1715 28.6257 27.8438C29.3547 27.2513 30.0826 26.651 30.7483 25.9867C31.3583 25.378 30.5906 25.9975 30.4486 26.1071C29.7618 26.6374 29.1223 27.2108 28.4938 27.8088C28.2748 28.017 27.4912 28.5899 27.1396 29.0739ZM27.1396 29.0739C27.0546 29.1909 26.9948 29.3028 26.9744 29.403M26.9744 29.403C26.969 29.4298 26.9664 29.4557 26.9668 29.4807C26.9689 29.5992 27.0447 29.6062 27.1551 29.556M26.9744 29.403C27.0355 29.4527 27.0957 29.5039 27.1551 29.556M27.1551 29.556C27.3693 29.4583 27.7139 29.1446 27.9021 29.012C28.7034 28.447 29.4866 27.8573 30.2963 27.3039C30.6278 27.0773 31.5464 26.35 31.3329 26.6901C30.9945 27.2294 30.4047 27.697 29.9602 28.1383C29.2967 28.7973 28.5749 29.4324 27.9889 30.1645C27.9521 30.2105 27.9209 30.2531 27.8956 30.292M27.1551 29.556C27.421 29.7897 27.6685 30.0437 27.8956 30.292M27.8956 30.292C27.7522 30.512 27.7961 30.609 28.0664 30.4815M27.8956 30.292C27.9539 30.3557 28.0108 30.419 28.0664 30.4815M28.0664 30.4815C28.1048 30.4633 28.1478 30.4407 28.1956 30.4131C28.8196 30.0532 29.3908 29.5888 29.9546 29.1436C30.1254 29.0088 30.809 28.4616 30.979 28.3265C31.196 28.154 31.6719 27.5511 31.6441 27.8269C31.6197 28.068 30.8329 28.692 30.6976 28.8383C30.0185 29.5729 29.3005 30.3343 28.8304 31.2263C28.8206 31.2448 28.8113 31.2629 28.8024 31.2808M28.0664 30.4815C28.0828 30.5 28.0992 30.5185 28.1155 30.5369C28.3394 30.7904 28.5692 31.0375 28.8024 31.2808M28.8024 31.2808C28.5408 31.8089 28.6609 32.0784 29.2776 31.8182C29.2893 31.8133 29.301 31.8083 29.3128 31.8032M28.8024 31.2808C28.971 31.4566 29.1414 31.6304 29.3128 31.8032M29.3128 31.8032C29.4171 31.9084 29.5218 32.0131 29.6267 32.1178M29.6267 32.1178C29.3977 32.4605 29.4033 32.6289 29.8661 32.3563M29.6267 32.1178C29.7064 32.1974 29.7862 32.2768 29.8661 32.3563M29.8661 32.3563C29.9158 32.327 29.9708 32.2926 30.0314 32.2528C30.8674 31.7032 31.6239 31.0239 32.4065 30.4036C32.6577 30.2047 33.4557 29.3581 33.8335 29.3379C33.9792 29.3301 33.6525 29.5668 33.5528 29.6733C33.1721 30.0814 33.0232 30.2259 32.6302 30.6556C31.9487 31.4006 31.1446 32.2128 30.628 33.1197M29.8661 32.3563C30.1209 32.6098 30.3757 32.8633 30.628 33.1197M30.628 33.1197C30.5414 33.2718 30.4628 33.4266 30.3943 33.5839C30.2717 33.8659 30.3242 34.1912 30.6788 33.9695C30.8348 33.872 30.9866 33.7626 31.135 33.6451M30.628 33.1197C30.7985 33.2932 30.9678 33.468 31.135 33.6451M31.135 33.6451C31.6363 33.2482 32.0968 32.759 32.5363 32.3267C32.9416 31.928 33.3382 31.5196 33.7286 31.1054M31.135 33.6451C31.1724 33.6849 31.2098 33.7247 31.247 33.7646C31.4966 34.0323 31.7666 34.2994 31.9736 34.6034C32.0151 34.6639 32.012 34.704 32.0302 34.6289C32.1043 34.3233 32.2368 34.0433 32.3747 33.7633C32.5007 33.5069 32.635 33.2514 32.7759 32.9966M33.7286 31.1054C34.0158 30.8006 34.2997 30.4926 34.5814 30.1828M33.7286 31.1054C33.4677 31.4639 33.2301 31.838 33.0303 32.2293C32.9976 32.2934 32.7862 32.7215 32.7759 32.9966M32.7759 32.9966C33.3091 32.0329 33.9374 31.0843 34.5814 30.1828M32.7759 32.9966C32.7694 33.1637 32.837 33.2744 33.063 33.2139C33.8743 32.9966 34.6714 32.1433 35.2745 31.6222C36.1078 30.9023 36.9521 30.1648 37.6715 29.3273C37.7692 29.2136 37.866 29.0985 37.9615 28.982M37.9615 28.982C38.4413 28.3971 38.8903 27.7763 39.2588 27.1191C39.4436 26.7889 39.4284 26.6929 39.1911 27.0502C38.7676 27.6875 38.3672 28.3367 37.9615 28.982ZM38.4999 30.4802C38.5151 30.4679 38.53 30.4555 38.5449 30.4431C38.6864 30.3259 39.0739 29.9345 38.9302 30.0491C38.7748 30.1734 38.6339 30.3227 38.4999 30.4802ZM38.4999 30.4802C38.3228 30.689 38.1577 30.9123 37.9871 31.1109C37.5491 31.621 37.058 32.0809 36.5147 32.4625M36.5147 32.4625C35.9314 32.8723 35.2881 33.1915 34.5869 33.3858C34.3347 33.4557 33.3916 33.446 33.3518 33.8342C33.2537 34.7902 35.2622 33.6014 35.3551 33.5285C35.7727 33.2019 36.1573 32.8442 36.5147 32.4625ZM42.0779 17.881C42.0423 18.2634 41.9918 18.6454 41.9766 19.0173C41.9426 19.8608 42.0944 20.7158 42.1006 21.5617C42.1045 22.1257 42.13 22.6939 42.1326 23.2608M42.0779 17.881C42.1041 17.851 42.1268 17.8435 42.143 17.8673C42.2035 17.956 42.2582 18.0654 42.3074 18.1835M36.0664 16.8538C35.8821 17.1786 35.7115 17.5084 35.5704 17.8424C35.4189 18.2002 35.8174 17.3744 36.0664 16.8538ZM42.3074 18.1835C42.3256 18.2275 42.3434 18.2727 42.3602 18.3184M42.3074 18.1835C42.3259 18.3855 42.3395 18.511 42.3602 18.3184M42.1326 23.2608C42.1349 23.6915 42.1239 24.1215 42.0802 24.5483C42.0109 25.2278 41.8714 25.8404 41.6994 26.452M42.1326 23.2608C42.0051 24.3262 41.8493 25.3882 41.6994 26.452M42.1326 23.2608C42.1954 22.7369 42.2514 22.2121 42.2964 21.6861C42.3385 21.1934 42.5007 20.6269 42.5816 20.0736M41.6994 26.452C41.5699 26.9119 41.4223 27.3711 41.2721 27.8578C41.2397 27.963 41.0646 29.1723 41.1148 29.1542C41.5146 29.0097 41.6069 27.1121 41.657 26.7545C41.671 26.6537 41.6852 26.5528 41.6994 26.452ZM42.5816 20.0736C42.6409 19.6681 42.6568 19.2697 42.5499 18.9128C42.5451 18.8969 42.5402 18.8806 42.5353 18.864M42.5816 20.0736C42.5748 19.6685 42.525 19.2671 42.5353 18.864M42.5816 20.0736C42.5852 20.2811 42.5774 20.4895 42.5444 20.6996C42.5026 20.9691 42.5201 21.2191 42.5467 21.4898C42.6406 22.4417 42.5179 23.3571 42.3994 24.3033M42.5353 18.864C42.4868 18.7011 42.4295 18.505 42.3602 18.3184M42.5353 18.864C42.5383 18.7512 42.5457 18.6382 42.5603 18.525C42.6448 17.8662 42.8368 17.2699 42.8086 16.5946C42.8041 16.486 42.7141 15.9213 42.5033 16.1942C42.0484 16.7839 42.4227 17.374 42.3838 18.0084C42.3748 18.1536 42.3673 18.2539 42.3602 18.3184M2.70604 27.9978C2.74599 28.2292 2.73966 29.2646 3.03535 29.5283C3.3587 29.8166 4.0281 29.5717 4.40186 29.5401C4.69578 29.5152 6.59783 29.6622 6.33514 29.8626M22.4091 23.8396C21.5519 24.5325 20.725 25.2973 19.8748 26.0106M19.8748 26.0106C19.6094 26.2333 19.3417 26.451 19.0701 26.6599C18.6718 26.9662 18.3551 27.358 17.9562 27.6629C17.6124 27.9256 17.3054 28.1362 16.9875 28.31M19.8748 26.0106C19.2908 26.2154 18.7824 26.7082 18.1967 26.9522C17.4315 27.271 16.6845 27.4528 15.8929 27.6864C14.0663 28.2254 12.2428 28.6838 10.3731 29.05C9.24033 29.2719 8.13466 29.5906 7.00665 29.8229C6.03672 30.0226 5.14177 29.9191 4.1689 29.8481C4.09997 29.843 4.03542 29.835 3.97455 29.8239M19.8748 26.0106C19.8798 26.0089 19.8848 26.0072 19.8897 26.0055C20.2087 25.8966 19.6572 26.5663 19.6125 26.6148C19.2451 27.0135 18.8248 27.4252 18.3658 27.7158C18.0621 27.9081 17.7919 28.1645 17.4303 28.2498C17.3091 28.2784 17.1485 28.2888 16.9875 28.31M16.9875 28.31C16.822 28.4005 16.6536 28.481 16.4755 28.5537M16.9875 28.31C16.7631 28.3396 16.5377 28.3901 16.4163 28.5399C16.4071 28.5512 16.4314 28.5549 16.4755 28.5537M3.97455 29.8239C4.00437 29.8489 4.03422 29.873 4.06417 29.8957C5.11225 30.6915 7.25492 30.4719 8.46727 30.2208C10.8351 29.7303 13.254 29.4108 15.609 28.83C15.9327 28.7501 16.2145 28.6603 16.4755 28.5537M3.97455 29.8239C3.64537 29.5481 3.31866 29.1516 2.91214 29.0215C2.81537 28.9905 2.71557 28.8975 2.66684 28.8076C2.65475 28.7852 2.64009 28.5454 2.58843 28.5516C2.31289 28.5847 2.82132 29.0711 3.02303 29.2617C3.33012 29.5519 3.57337 29.7514 3.97455 29.8239ZM16.4755 28.5537C16.6332 28.5495 17.0438 28.4821 17.0758 28.4732C17.7848 28.277 18.4622 27.9397 19.1317 27.6382C20.2841 27.1193 21.3078 26.3527 22.4142 25.7448M11.794 29.1469C13.6563 29.0369 15.4318 28.9362 17.2248 28.4262C18.1857 28.1528 19.1779 27.8149 20.1846 27.7855C21.8132 27.7381 23.751 28.1937 25.0901 29.143C25.9014 29.7182 26.4705 30.628 26.7607 31.5617C26.9076 32.0344 26.9414 31.8133 27.0665 31.5561" stroke="#344054" stroke-width="6" stroke-linecap="round"/>
</g>
<defs>
<clipPath id="clip0_28_440">
<rect width="45" height="37.8777" fill="white"/>
</clipPath>
</defs>
</svg>
