<svg width="264" height="549" viewBox="0 0 264 549" fill="none" xmlns="http://www.w3.org/2000/svg">
<g clip-path="url(#clip0_21_96)">
<path d="M134.693 420.521L-10.6578 275.17L42.3474 76.8152L187.698 222.166L134.693 420.521Z" stroke="black" stroke-opacity="0.1" stroke-miterlimit="10" stroke-linejoin="round"/>
<path d="M134.693 420.522L-10.6582 275.171L-209.22 328.383L-63.8692 473.734L134.693 420.522Z" stroke="black" stroke-opacity="0.1" stroke-miterlimit="10" stroke-linejoin="round"/>
<path d="M20.6074 157.772L106.534 243.698L75.2698 361.097L-42.3362 392.568L-128.263 306.642L-96.7907 189.037L20.6074 157.772Z" fill="#219653" fill-opacity="0.1"/>
<path d="M20.6074 157.772L106.534 243.698L75.2698 361.097L-42.3362 392.568L-128.263 306.642L-96.7907 189.037L20.6074 157.772Z" fill="#9B51E0" fill-opacity="0.6"/>
<path d="M42.3482 76.816L187.698 222.166L134.693 420.521L-63.8692 473.733L-209.219 328.383L-156.007 129.821L42.3482 76.816Z" stroke="black" stroke-opacity="0.1" stroke-miterlimit="10" stroke-linejoin="round"/>
<path d="M187.696 222.164L-10.6586 275.17L-63.8712 473.731L134.691 420.519L187.696 222.164Z" stroke="black" stroke-opacity="0.1" stroke-miterlimit="10" stroke-linejoin="round"/>
<path d="M-10.6574 275.172L-156.007 129.822L-209.219 328.383L-63.8692 473.734L-10.6574 275.172Z" stroke="black" stroke-opacity="0.1" stroke-miterlimit="10" stroke-linecap="round" stroke-linejoin="round"/>
</g>
<defs>
<clipPath id="clip0_21_96">
<rect width="415.797" height="360.162" fill="white" transform="translate(-30.3268) rotate(45)"/>
</clipPath>
</defs>
</svg>
