<svg width="55" height="51" viewBox="0 0 55 51" fill="none" xmlns="http://www.w3.org/2000/svg">
<g clip-path="url(#clip0_28_409)">
<path fill-rule="evenodd" clip-rule="evenodd" d="M32.4128 5.90983L0.0790794 38.3577L44.1905 50.1773L32.4128 5.90983ZM31.659 8.72273L2.88207 37.6013L42.1414 48.1208L31.659 8.72273Z" fill="#F2994A" fill-opacity="0.2"/>
<path fill-rule="evenodd" clip-rule="evenodd" d="M32.4128 5.90983L0.0790794 38.3577L44.1905 50.1773L32.4128 5.90983ZM31.659 8.72273L2.88207 37.6013L42.1414 48.1208L31.659 8.72273Z" fill="#F2994A" fill-opacity="0.2"/>
<path d="M17.4159 21.9865L23.005 42.9933L1.26571 37.1683L0.0790789 38.3577L25.0543 45.0498L18.5634 20.6535L17.4159 21.9865Z" fill="#F2994A" fill-opacity="0.2"/>
<path d="M17.4159 21.9865L23.005 42.9933L1.26571 37.1683L0.0790789 38.3577L25.0543 45.0498L18.5634 20.6535L17.4159 21.9865Z" fill="#F2994A" fill-opacity="0.2"/>
<path d="M37.3195 27.3197L21.9759 42.7175L43.7151 48.5425L44.148 50.1659L19.1729 43.4739L36.9923 25.5915L37.3195 27.3197Z" fill="#F2994A" fill-opacity="0.2"/>
<path d="M37.3195 27.3197L21.9759 42.7175L43.7151 48.5425L44.148 50.1659L19.1729 43.4739L36.9923 25.5915L37.3195 27.3197Z" fill="#F2994A" fill-opacity="0.2"/>
<path d="M15.1261 24.4148L13.9143 25.5062L18.4095 42.4018L20.0269 42.8351L15.1261 24.4148Z" fill="#F2994A" fill-opacity="0.2"/>
<path d="M15.1261 24.4148L13.9143 25.5062L18.4095 42.4018L20.0269 42.8351L15.1261 24.4148Z" fill="#F2994A" fill-opacity="0.2"/>
<path d="M38.0885 30.5675L38.5923 32.1186L26.2515 44.503L24.634 44.0696L38.0885 30.5675Z" fill="#F2994A" fill-opacity="0.2"/>
<path d="M38.0885 30.5675L38.5923 32.1186L26.2515 44.503L24.634 44.0696L38.0885 30.5675Z" fill="#F2994A" fill-opacity="0.2"/>
<path d="M11.6167 27.9053L10.4246 29.0705L13.6962 41.3672L15.3136 41.8006L11.6167 27.9053Z" fill="#F2994A" fill-opacity="0.2"/>
<path d="M11.6167 27.9053L10.4246 29.0705L13.6962 41.3672L15.3136 41.8006L11.6167 27.9053Z" fill="#F2994A" fill-opacity="0.2"/>
<path d="M39.3824 35.3451L39.8321 36.9502L30.8506 45.9637L29.2332 45.5303L39.3824 35.3451Z" fill="#F2994A" fill-opacity="0.2"/>
<path d="M39.3824 35.3451L39.8321 36.9502L30.8506 45.9637L29.2332 45.5303L39.3824 35.3451Z" fill="#F2994A" fill-opacity="0.2"/>
<path d="M8.10077 31.3714L6.93482 32.635L8.90437 40.0373L10.5218 40.4707L8.10077 31.3714Z" fill="#F2994A" fill-opacity="0.2"/>
<path d="M8.10077 31.3714L6.93482 32.635L8.90437 40.0373L10.5218 40.4707L8.10077 31.3714Z" fill="#F2994A" fill-opacity="0.2"/>
<path d="M40.6944 40.1048L41.0722 41.782L35.6652 47.2079L34.048 46.7745L40.6944 40.1048Z" fill="#F2994A" fill-opacity="0.2"/>
<path d="M40.6944 40.1048L41.0722 41.782L35.6652 47.2079L34.048 46.7745L40.6944 40.1048Z" fill="#F2994A" fill-opacity="0.2"/>
<path d="M4.61931 34.9667L3.22719 35.7296L3.61522 36.8386L4.09288 38.6339L5.71033 39.0673L4.61931 34.9667Z" fill="#F2994A" fill-opacity="0.2"/>
<path d="M4.61931 34.9667L3.22719 35.7296L3.61522 36.8386L4.09288 38.6339L5.71033 39.0673L4.61931 34.9667Z" fill="#F2994A" fill-opacity="0.2"/>
<path d="M41.9118 44.9592L42.7357 46.3159L41.8452 47.0824L40.5339 48.3982L38.9166 47.9649L41.9118 44.9592Z" fill="#F2994A" fill-opacity="0.2"/>
<path d="M41.9118 44.9592L42.7357 46.3159L41.8452 47.0824L40.5339 48.3982L38.9166 47.9649L41.9118 44.9592Z" fill="#F2994A" fill-opacity="0.2"/>
<path d="M29.4664 16.9057L19.443 26.9646L18.9752 25.3775L30.2201 14.0928L34.3162 29.4882L33.1175 30.6287L29.4664 16.9057Z" fill="#F2994A" fill-opacity="0.2"/>
<path d="M29.4664 16.9057L19.443 26.9646L18.9752 25.3775L30.2201 14.0928L34.3162 29.4882L33.1175 30.6287L29.4664 16.9057Z" fill="#F2994A" fill-opacity="0.2"/>
<path d="M29.5754 33.9964L27.2395 25.2166L20.8267 31.6521L20.305 30.1191L27.9932 22.4037L30.7937 32.9296L29.5754 33.9964Z" fill="#F2994A" fill-opacity="0.2"/>
<path d="M29.5754 33.9964L27.2395 25.2166L20.8267 31.6521L20.305 30.1191L27.9932 22.4037L30.7937 32.9296L29.5754 33.9964Z" fill="#F2994A" fill-opacity="0.2"/>
<path d="M25.0127 33.5275L22.1073 36.4431L21.6427 34.8528L25.7664 30.7145L27.2685 36.3602L26.071 37.5051L25.0127 33.5275Z" fill="#F2994A" fill-opacity="0.2"/>
<path d="M25.0127 33.5275L22.1073 36.4431L21.6427 34.8528L25.7664 30.7145L27.2685 36.3602L26.071 37.5051L25.0127 33.5275Z" fill="#F2994A" fill-opacity="0.2"/>
</g>
<defs>
<clipPath id="clip0_28_409">
<rect width="45.7331" height="40.0165" fill="white" transform="translate(10.357) rotate(15)"/>
</clipPath>
</defs>
</svg>
