<svg width="54" height="53" viewBox="0 0 54 53" fill="none" xmlns="http://www.w3.org/2000/svg">
    <circle cx="27" cy="26.25" r="26.25" fill="#7F56D9" />
    <path
        d="M22.3785 21.1871C22.3785 20.5541 23.0566 20.1533 23.6112 20.458L32.1443 25.1512C32.2749 25.2229 32.3838 25.3285 32.4597 25.4567C32.5356 25.585 32.5756 25.7313 32.5756 25.8803C32.5756 26.0293 32.5356 26.1756 32.4597 26.3038C32.3838 26.4321 32.2749 26.5376 32.1443 26.6094L23.6112 31.3026C23.4845 31.3722 23.3419 31.4076 23.1973 31.4054C23.0528 31.4031 22.9113 31.3632 22.7869 31.2896C22.6625 31.216 22.5594 31.1113 22.4878 30.9857C22.4162 30.8601 22.3785 30.718 22.3785 30.5735V21.1871Z"
        fill="white" stroke="white" stroke-width="1.5" stroke-linecap="round" stroke-linejoin="round" />
</svg>