<svg width="114" height="28" viewBox="0 0 114 28" fill="none" xmlns="http://www.w3.org/2000/svg">
<rect width="114" height="28" fill="#1E1E1E"/>
<g id="Homepage" clip-path="url(#clip0_19_185)">
<rect width="1440" height="3628" transform="translate(-211 -285)" fill="white"/>
<g id="MATHVENTURE">
<mask id="path-1-outside-1_19_185" maskUnits="userSpaceOnUse" x="0" y="6" width="114" height="15" fill="black">
<rect fill="white" y="6" width="114" height="15"/>
<path d="M3.53593 18.117C3.18926 18.117 2.92059 18.0217 2.72993 17.831C2.54793 17.6403 2.45693 17.3717 2.45693 17.025V9.81C2.45693 9.45467 2.55659 9.186 2.75593 9.004C2.95526 8.81333 3.23693 8.718 3.60093 8.718C3.90426 8.718 4.14259 8.77867 4.31593 8.9C4.49793 9.01267 4.66259 9.20333 4.80993 9.472L7.60493 14.49H7.14993L9.93193 9.472C10.0879 9.20333 10.2526 9.01267 10.4259 8.9C10.6079 8.77867 10.8506 8.718 11.1539 8.718C11.5006 8.718 11.7649 8.81333 11.9469 9.004C12.1376 9.186 12.2329 9.45467 12.2329 9.81V17.025C12.2329 17.3717 12.1419 17.6403 11.9599 17.831C11.7779 18.0217 11.5093 18.117 11.1539 18.117C10.8073 18.117 10.5386 18.0217 10.3479 17.831C10.1659 17.6403 10.0749 17.3717 10.0749 17.025V12.553H10.3479L8.25493 16.193C8.13359 16.3837 8.00359 16.5267 7.86493 16.622C7.73493 16.7173 7.55726 16.765 7.33193 16.765C7.11526 16.765 6.93759 16.7173 6.79893 16.622C6.66026 16.5267 6.53459 16.3837 6.42193 16.193L4.31593 12.54H4.61493V17.025C4.61493 17.3717 4.52393 17.6403 4.34193 17.831C4.15993 18.0217 3.89126 18.117 3.53593 18.117ZM15.2592 18.117C14.9905 18.117 14.7652 18.0563 14.5832 17.935C14.4012 17.805 14.2885 17.6317 14.2452 17.415C14.2019 17.1897 14.2409 16.9383 14.3622 16.661L17.5992 9.693C17.7552 9.355 17.9459 9.108 18.1712 8.952C18.4052 8.796 18.6695 8.718 18.9642 8.718C19.2589 8.718 19.5145 8.796 19.7312 8.952C19.9565 9.108 20.1515 9.355 20.3162 9.693L23.5532 16.661C23.6919 16.9383 23.7395 17.1897 23.6962 17.415C23.6615 17.6403 23.5532 17.8137 23.3712 17.935C23.1979 18.0563 22.9812 18.117 22.7212 18.117C22.3745 18.117 22.1059 18.039 21.9152 17.883C21.7332 17.727 21.5685 17.4757 21.4212 17.129L20.7192 15.478L21.6292 16.141H16.2732L17.1962 15.478L16.4942 17.129C16.3382 17.4757 16.1779 17.727 16.0132 17.883C15.8485 18.039 15.5972 18.117 15.2592 18.117ZM18.9382 11.331L17.4302 14.932L17.0662 14.308H20.8492L20.4852 14.932L18.9642 11.331H18.9382ZM27.9809 18.117C27.5996 18.117 27.3049 18.013 27.0969 17.805C26.8889 17.5883 26.7849 17.2893 26.7849 16.908V10.785H24.7439C24.4232 10.785 24.1762 10.7027 24.0029 10.538C23.8382 10.3647 23.7559 10.122 23.7559 9.81C23.7559 9.48933 23.8382 9.24667 24.0029 9.082C24.1762 8.91733 24.4232 8.835 24.7439 8.835H31.2179C31.5386 8.835 31.7812 8.91733 31.9459 9.082C32.1192 9.24667 32.2059 9.48933 32.2059 9.81C32.2059 10.122 32.1192 10.3647 31.9459 10.538C31.7812 10.7027 31.5386 10.785 31.2179 10.785H29.1769V16.908C29.1769 17.2893 29.0772 17.5883 28.8779 17.805C28.6786 18.013 28.3796 18.117 27.9809 18.117ZM35.0991 18.117C34.7178 18.117 34.4231 18.013 34.2151 17.805C34.0071 17.5883 33.9031 17.285 33.9031 16.895V9.94C33.9031 9.54133 34.0071 9.238 34.2151 9.03C34.4231 8.822 34.7178 8.718 35.0991 8.718C35.4891 8.718 35.7838 8.822 35.9831 9.03C36.1911 9.238 36.2951 9.54133 36.2951 9.94V12.371H40.0781V9.94C40.0781 9.54133 40.1778 9.238 40.3771 9.03C40.5851 8.822 40.8841 8.718 41.2741 8.718C41.6554 8.718 41.9458 8.822 42.1451 9.03C42.3531 9.238 42.4571 9.54133 42.4571 9.94V16.895C42.4571 17.285 42.3531 17.5883 42.1451 17.805C41.9458 18.013 41.6554 18.117 41.2741 18.117C40.8841 18.117 40.5851 18.013 40.3771 17.805C40.1778 17.5883 40.0781 17.285 40.0781 16.895V14.334H36.2951V16.895C36.2951 17.285 36.1954 17.5883 35.9961 17.805C35.7968 18.013 35.4978 18.117 35.0991 18.117ZM49.0368 18.117C48.7075 18.117 48.4388 18.0477 48.2308 17.909C48.0315 17.7703 47.8625 17.5493 47.7238 17.246L44.5778 10.304C44.4392 10.0007 44.3958 9.72767 44.4478 9.485C44.4998 9.24233 44.6212 9.056 44.8118 8.926C45.0025 8.78733 45.2408 8.718 45.5268 8.718C45.8822 8.718 46.1465 8.796 46.3198 8.952C46.5018 9.108 46.6578 9.33767 46.7878 9.641L49.4398 15.777H48.7118L51.3638 9.628C51.4938 9.32467 51.6498 9.09933 51.8318 8.952C52.0138 8.796 52.2695 8.718 52.5988 8.718C52.8675 8.718 53.0928 8.78733 53.2748 8.926C53.4568 9.056 53.5695 9.24233 53.6128 9.485C53.6648 9.72767 53.6215 10.0007 53.4828 10.304L50.3238 17.246C50.1938 17.5493 50.0292 17.7703 49.8298 17.909C49.6305 18.0477 49.3662 18.117 49.0368 18.117ZM56.8393 18C56.4319 18 56.1199 17.896 55.9033 17.688C55.6953 17.4713 55.5913 17.1637 55.5913 16.765V10.07C55.5913 9.67133 55.6953 9.368 55.9033 9.16C56.1199 8.94333 56.4319 8.835 56.8393 8.835H61.2463C61.5583 8.835 61.7923 8.913 61.9483 9.069C62.1043 9.225 62.1823 9.45033 62.1823 9.745C62.1823 10.0483 62.1043 10.2823 61.9483 10.447C61.7923 10.603 61.5583 10.681 61.2463 10.681H57.8793V12.423H60.9603C61.2636 12.423 61.4933 12.501 61.6493 12.657C61.8139 12.813 61.8963 13.0427 61.8963 13.346C61.8963 13.6493 61.8139 13.879 61.6493 14.035C61.4933 14.191 61.2636 14.269 60.9603 14.269H57.8793V16.154H61.2463C61.5583 16.154 61.7923 16.2363 61.9483 16.401C62.1043 16.557 62.1823 16.7823 62.1823 17.077C62.1823 17.3803 62.1043 17.61 61.9483 17.766C61.7923 17.922 61.5583 18 61.2463 18H56.8393ZM65.6046 18.117C65.2406 18.117 64.9633 18.0217 64.7726 17.831C64.582 17.6403 64.4866 17.3587 64.4866 16.986V9.901C64.4866 9.51967 64.582 9.22933 64.7726 9.03C64.9633 8.822 65.2146 8.718 65.5266 8.718C65.804 8.718 66.0206 8.77 66.1766 8.874C66.3326 8.978 66.506 9.15133 66.6966 9.394L70.8176 14.542H70.4536V9.836C70.4536 9.472 70.5446 9.19467 70.7266 9.004C70.9173 8.81333 71.1946 8.718 71.5586 8.718C71.9226 8.718 72.1956 8.81333 72.3776 9.004C72.5683 9.19467 72.6636 9.472 72.6636 9.836V17.038C72.6636 17.3673 72.577 17.6317 72.4036 17.831C72.2303 18.0217 71.9963 18.117 71.7016 18.117C71.407 18.117 71.173 18.065 70.9996 17.961C70.835 17.8483 70.6573 17.675 70.4666 17.441L66.3456 12.28H66.7096V16.986C66.7096 17.3587 66.6143 17.6403 66.4236 17.831C66.2416 18.0217 65.9686 18.117 65.6046 18.117ZM78.6022 18.117C78.2209 18.117 77.9262 18.013 77.7182 17.805C77.5102 17.5883 77.4062 17.2893 77.4062 16.908V10.785H75.3652C75.0445 10.785 74.7975 10.7027 74.6242 10.538C74.4595 10.3647 74.3772 10.122 74.3772 9.81C74.3772 9.48933 74.4595 9.24667 74.6242 9.082C74.7975 8.91733 75.0445 8.835 75.3652 8.835H81.8392C82.1599 8.835 82.4025 8.91733 82.5672 9.082C82.7405 9.24667 82.8272 9.48933 82.8272 9.81C82.8272 10.122 82.7405 10.3647 82.5672 10.538C82.4025 10.7027 82.1599 10.785 81.8392 10.785H79.7982V16.908C79.7982 17.2893 79.6985 17.5883 79.4992 17.805C79.2999 18.013 79.0009 18.117 78.6022 18.117ZM88.5804 18.143C87.9131 18.143 87.3237 18.0607 86.8124 17.896C86.3011 17.7227 85.8677 17.467 85.5124 17.129C85.1657 16.791 84.9014 16.3707 84.7194 15.868C84.5461 15.3567 84.4594 14.7673 84.4594 14.1V9.927C84.4594 9.52833 84.5634 9.22933 84.7714 9.03C84.9794 8.822 85.2741 8.718 85.6554 8.718C86.0454 8.718 86.3401 8.822 86.5394 9.03C86.7474 9.22933 86.8514 9.52833 86.8514 9.927V14.126C86.8514 14.7933 86.9987 15.296 87.2934 15.634C87.5881 15.972 88.0171 16.141 88.5804 16.141C89.1351 16.141 89.5597 15.972 89.8544 15.634C90.1491 15.296 90.2964 14.7933 90.2964 14.126V9.927C90.2964 9.52833 90.3961 9.22933 90.5954 9.03C90.8034 8.822 91.0981 8.718 91.4794 8.718C91.8607 8.718 92.1511 8.822 92.3504 9.03C92.5497 9.22933 92.6494 9.52833 92.6494 9.927V14.1C92.6494 14.9927 92.4934 15.7423 92.1814 16.349C91.8781 16.947 91.4231 17.3977 90.8164 17.701C90.2097 17.9957 89.4644 18.143 88.5804 18.143ZM96.355 18.117C95.9737 18.117 95.679 18.013 95.471 17.805C95.263 17.5883 95.159 17.2893 95.159 16.908V10.044C95.159 9.654 95.263 9.355 95.471 9.147C95.6877 8.939 95.9867 8.835 96.368 8.835H99.566C100.606 8.835 101.408 9.09067 101.971 9.602C102.543 10.1047 102.829 10.8067 102.829 11.708C102.829 12.2887 102.699 12.7957 102.439 13.229C102.188 13.6537 101.819 13.983 101.334 14.217C100.857 14.4423 100.268 14.555 99.566 14.555L99.67 14.321H100.294C100.667 14.321 100.996 14.412 101.282 14.594C101.568 14.7673 101.806 15.036 101.997 15.4L102.647 16.57C102.786 16.8213 102.851 17.0683 102.842 17.311C102.833 17.545 102.738 17.74 102.556 17.896C102.383 18.0433 102.127 18.117 101.789 18.117C101.451 18.117 101.174 18.0477 100.957 17.909C100.749 17.7703 100.563 17.5537 100.398 17.259L99.215 15.088C99.111 14.8973 98.9767 14.7673 98.812 14.698C98.656 14.62 98.474 14.581 98.266 14.581H97.551V16.908C97.551 17.2893 97.4513 17.5883 97.252 17.805C97.0527 18.013 96.7537 18.117 96.355 18.117ZM97.551 12.891H99.137C99.5963 12.891 99.9473 12.8 100.19 12.618C100.433 12.436 100.554 12.1543 100.554 11.773C100.554 11.409 100.433 11.136 100.19 10.954C99.9473 10.7633 99.5963 10.668 99.137 10.668H97.551V12.891ZM106.496 18C106.088 18 105.776 17.896 105.56 17.688C105.352 17.4713 105.248 17.1637 105.248 16.765V10.07C105.248 9.67133 105.352 9.368 105.56 9.16C105.776 8.94333 106.088 8.835 106.496 8.835H110.903C111.215 8.835 111.449 8.913 111.605 9.069C111.761 9.225 111.839 9.45033 111.839 9.745C111.839 10.0483 111.761 10.2823 111.605 10.447C111.449 10.603 111.215 10.681 110.903 10.681H107.536V12.423H110.617C110.92 12.423 111.15 12.501 111.306 12.657C111.47 12.813 111.553 13.0427 111.553 13.346C111.553 13.6493 111.47 13.879 111.306 14.035C111.15 14.191 110.92 14.269 110.617 14.269H107.536V16.154H110.903C111.215 16.154 111.449 16.2363 111.605 16.401C111.761 16.557 111.839 16.7823 111.839 17.077C111.839 17.3803 111.761 17.61 111.605 17.766C111.449 17.922 111.215 18 110.903 18H106.496Z"/>
</mask>
<path d="M2.72993 17.831L1.28322 19.212L1.29927 19.2288L1.31571 19.2452L2.72993 17.831ZM2.75593 9.004L4.10447 10.481L4.1216 10.4653L4.13837 10.4493L2.75593 9.004ZM4.31593 8.9L3.169 10.5385L3.21523 10.5708L3.26322 10.6005L4.31593 8.9ZM4.80993 9.472L3.05626 10.4337L3.06268 10.4452L4.80993 9.472ZM7.60493 14.49V16.49H11.0082L9.35217 13.5168L7.60493 14.49ZM7.14993 14.49L5.40076 13.5203L3.75432 16.49H7.14993V14.49ZM9.93193 9.472L8.20235 8.46773L8.19238 8.48489L8.18276 8.50225L9.93193 9.472ZM10.4259 8.9L11.5159 10.5769L11.5257 10.5705L11.5353 10.5641L10.4259 8.9ZM11.9469 9.004L10.5002 10.385L10.5323 10.4186L10.566 10.4507L11.9469 9.004ZM11.9599 17.831L13.4066 19.212L13.4066 19.212L11.9599 17.831ZM10.3479 17.831L8.90122 19.212L8.91727 19.2288L8.93371 19.2452L10.3479 17.831ZM10.0749 12.553V10.553H8.07493V12.553H10.0749ZM10.3479 12.553L12.0817 13.5499L13.805 10.553H10.3479V12.553ZM8.25493 16.193L9.94225 17.2668L9.96636 17.2289L9.98874 17.1899L8.25493 16.193ZM7.86493 16.622L6.73187 14.9739L6.70677 14.9912L6.6822 15.0092L7.86493 16.622ZM6.42193 16.193L4.68925 17.1919L4.69461 17.2012L4.70007 17.2105L6.42193 16.193ZM4.31593 12.54V10.54H0.854338L2.58325 13.5389L4.31593 12.54ZM4.61493 12.54H6.61493V10.54H4.61493V12.54ZM4.34193 17.831L2.89522 16.45L4.34193 17.831ZM3.53593 16.117C3.54284 16.117 3.62212 16.1177 3.74325 16.1606C3.87287 16.2066 4.01712 16.2898 4.14414 16.4168L1.31571 19.2452C1.98038 19.9099 2.81736 20.117 3.53593 20.117V16.117ZM4.17664 16.45C4.30196 16.5813 4.37868 16.7245 4.41947 16.8449C4.43867 16.9016 4.44796 16.9473 4.45247 16.9778C4.45694 17.008 4.45693 17.0247 4.45693 17.025H0.456927C0.456927 17.7189 0.645393 18.5438 1.28322 19.212L4.17664 16.45ZM4.45693 17.025V9.81H0.456927V17.025H4.45693ZM4.45693 9.81C4.45693 9.81489 4.45671 9.9031 4.40681 10.0376C4.35286 10.183 4.25452 10.344 4.10447 10.481L1.40739 7.52703C0.67242 8.19809 0.456927 9.07993 0.456927 9.81H4.45693ZM4.13837 10.4493C4.01061 10.5715 3.87201 10.6453 3.75787 10.6839C3.65183 10.7198 3.5899 10.718 3.60093 10.718V6.718C2.89141 6.718 2.05174 6.90994 1.37348 7.55872L4.13837 10.4493ZM3.60093 10.718C3.66468 10.718 3.44886 10.7344 3.169 10.5385L5.46285 7.26154C4.83633 6.82297 4.14384 6.718 3.60093 6.718V10.718ZM3.26322 10.6005C3.15408 10.533 3.08987 10.4667 3.06228 10.4347C3.03549 10.4037 3.0363 10.3972 3.0563 10.4337L6.56355 8.51033C6.31762 8.06188 5.94384 7.55555 5.36864 7.19947L3.26322 10.6005ZM3.06268 10.4452L5.85768 15.4632L9.35217 13.5168L6.55717 8.49879L3.06268 10.4452ZM7.60493 12.49H7.14993V16.49H7.60493V12.49ZM8.8991 15.4597L11.6811 10.4417L8.18276 8.50225L5.40076 13.5203L8.8991 15.4597ZM11.6615 10.4763C11.6909 10.4256 11.7012 10.4173 11.6861 10.4347C11.6711 10.452 11.6172 10.511 11.5159 10.5769L9.33595 7.22311C8.80064 7.57107 8.44334 8.05268 8.20235 8.46773L11.6615 10.4763ZM11.5353 10.5641C11.2844 10.7314 11.0979 10.718 11.1539 10.718V6.718C10.6033 6.718 9.93147 6.82594 9.31653 7.2359L11.5353 10.5641ZM11.1539 10.718C11.148 10.718 11.0632 10.7176 10.9336 10.6709C10.7942 10.6206 10.6371 10.5283 10.5002 10.385L13.3936 7.62305C12.7257 6.9233 11.867 6.718 11.1539 6.718V10.718ZM10.566 10.4507C10.4166 10.3081 10.3249 10.1471 10.2766 10.0108C10.2539 9.94704 10.2432 9.89558 10.238 9.8618C10.2354 9.84484 10.2342 9.83185 10.2335 9.82331C10.2329 9.81477 10.2329 9.81021 10.2329 9.81H14.2329C14.2329 9.10531 14.0369 8.23408 13.3279 7.55729L10.566 10.4507ZM10.2329 9.81V17.025H14.2329V9.81H10.2329ZM10.2329 17.025C10.2329 17.0247 10.2329 17.008 10.2374 16.9778C10.2419 16.9473 10.2512 16.9016 10.2704 16.8449C10.3112 16.7245 10.3879 16.5813 10.5132 16.45L13.4066 19.212C14.0445 18.5438 14.2329 17.7189 14.2329 17.025H10.2329ZM10.5132 16.45C10.6558 16.3007 10.8168 16.209 10.9531 16.1606C11.0169 16.138 11.0683 16.1272 11.1021 16.1221C11.1191 16.1195 11.1321 16.1182 11.1406 16.1176C11.1492 16.117 11.1537 16.117 11.1539 16.117V20.117C11.8586 20.117 12.7299 19.921 13.4066 19.212L10.5132 16.45ZM11.1539 16.117C11.1608 16.117 11.2401 16.1177 11.3612 16.1606C11.4909 16.2066 11.6351 16.2898 11.7621 16.4168L8.93371 19.2452C9.59838 19.9099 10.4354 20.117 11.1539 20.117V16.117ZM11.7946 16.45C11.92 16.5813 11.9967 16.7245 12.0375 16.8449C12.0567 16.9016 12.066 16.9473 12.0705 16.9778C12.0749 17.008 12.0749 17.0247 12.0749 17.025H8.07493C8.07493 17.7189 8.26339 18.5438 8.90122 19.212L11.7946 16.45ZM12.0749 17.025V12.553H8.07493V17.025H12.0749ZM10.0749 14.553H10.3479V10.553H10.0749V14.553ZM8.61411 11.5561L6.52111 15.1961L9.98874 17.1899L12.0817 13.5499L8.61411 11.5561ZM6.5676 15.1192C6.55821 15.134 6.56319 15.1236 6.58655 15.0979C6.61016 15.0719 6.65723 15.0252 6.73187 14.9739L8.99798 18.2701C9.42006 17.9799 9.72335 17.6107 9.94225 17.2668L6.5676 15.1192ZM6.6822 15.0092C7.00777 14.7704 7.29664 14.765 7.33193 14.765V18.765C7.81788 18.765 8.46209 18.6642 9.04765 18.2348L6.6822 15.0092ZM7.33193 14.765C7.40406 14.765 7.65312 14.7822 7.93198 14.9739L5.66587 18.2701C6.22206 18.6525 6.82646 18.765 7.33193 18.765V14.765ZM7.93198 14.9739C8.09631 15.0869 8.15312 15.1913 8.14378 15.1755L4.70007 17.2105C4.91607 17.576 5.22421 17.9664 5.66587 18.2701L7.93198 14.9739ZM8.15461 15.1941L6.04861 11.5411L2.58325 13.5389L4.68925 17.1919L8.15461 15.1941ZM4.31593 14.54H4.61493V10.54H4.31593V14.54ZM2.61493 12.54V17.025H6.61493V12.54H2.61493ZM2.61493 17.025C2.61493 17.0247 2.61491 17.008 2.61938 16.9778C2.62389 16.9473 2.63319 16.9016 2.65239 16.8449C2.69317 16.7245 2.7699 16.5813 2.89522 16.45L5.78864 19.212C6.42646 18.5438 6.61493 17.7189 6.61493 17.025H2.61493ZM2.89522 16.45C3.03779 16.3007 3.19884 16.209 3.33511 16.1606C3.39889 16.138 3.45034 16.1272 3.48413 16.1221C3.50109 16.1195 3.51408 16.1182 3.52262 16.1176C3.53116 16.117 3.53572 16.117 3.53593 16.117V20.117C4.24062 20.117 5.11185 19.921 5.78864 19.212L2.89522 16.45ZM14.5832 17.935L13.4207 19.5625L13.447 19.5812L13.4738 19.5991L14.5832 17.935ZM14.2452 17.415L12.2812 17.7927L12.2826 17.8L12.284 17.8072L14.2452 17.415ZM14.3622 16.661L12.5484 15.8184L12.5389 15.8388L12.5299 15.8594L14.3622 16.661ZM17.5992 9.693L19.413 10.5356L19.4151 10.5311L17.5992 9.693ZM18.1712 8.952L17.0618 7.2879L17.0472 7.29763L17.0328 7.30762L18.1712 8.952ZM19.7312 8.952L18.5626 10.5751L18.5776 10.5859L18.5928 10.5964L19.7312 8.952ZM20.3162 9.693L22.13 8.85038L22.1222 8.83365L22.1142 8.81706L20.3162 9.693ZM23.5532 16.661L21.7394 17.5036L21.7515 17.5297L21.7643 17.5554L23.5532 16.661ZM23.6962 17.415L21.7322 17.0373L21.7251 17.074L21.7194 17.1109L23.6962 17.415ZM23.3712 17.935L22.2618 16.2709L22.2429 16.2835L22.2243 16.2965L23.3712 17.935ZM21.9152 17.883L20.6136 19.4015L20.631 19.4164L20.6487 19.4309L21.9152 17.883ZM21.4212 17.129L23.2618 16.3467L23.2617 16.3464L21.4212 17.129ZM20.7192 15.478L21.8969 13.8615L16.0461 9.59878L18.8787 16.2606L20.7192 15.478ZM21.6292 16.141V18.141H27.7707L22.8069 14.5245L21.6292 16.141ZM16.2732 16.141L15.1064 14.5166L10.0607 18.141H16.2732V16.141ZM17.1962 15.478L19.0367 16.2606L21.8326 9.68514L16.0294 13.8536L17.1962 15.478ZM16.4942 17.129L18.318 17.9497L18.3266 17.9307L18.3347 17.9116L16.4942 17.129ZM16.0132 17.883L14.6377 16.4311L14.6377 16.4311L16.0132 17.883ZM18.9382 11.331V9.331H17.6074L17.0934 10.5585L18.9382 11.331ZM17.4302 14.932L15.7026 15.9397L17.7248 19.4063L19.275 15.7045L17.4302 14.932ZM17.0662 14.308V12.308H13.5841L15.3386 15.3157L17.0662 14.308ZM20.8492 14.308L22.5767 15.3157L24.3313 12.308H20.8492V14.308ZM20.4852 14.932L18.6428 15.7102L20.1983 19.393L22.2127 15.9397L20.4852 14.932ZM18.9642 11.331L20.8066 10.5528L20.2905 9.331H18.9642V11.331ZM15.2592 16.117C15.2946 16.117 15.4779 16.1277 15.6926 16.2709L13.4738 19.5991C14.0525 19.9849 14.6865 20.117 15.2592 20.117V16.117ZM15.7457 16.3075C15.8415 16.376 15.9483 16.4778 16.0391 16.6175C16.1301 16.7576 16.1818 16.8999 16.2063 17.0228L12.284 17.8072C12.4284 18.5289 12.8309 19.1411 13.4207 19.5625L15.7457 16.3075ZM16.2092 17.0373C16.2633 17.3184 16.1843 17.486 16.1945 17.4626L12.5299 15.8594C12.2974 16.3906 12.1404 17.0609 12.2812 17.7927L16.2092 17.0373ZM16.176 17.5036L19.413 10.5356L15.7854 8.85038L12.5484 15.8184L16.176 17.5036ZM19.4151 10.5311C19.4419 10.4731 19.4544 10.4608 19.4424 10.4764C19.4291 10.4935 19.3876 10.5424 19.3096 10.5964L17.0328 7.30762C16.4266 7.72725 16.0374 8.3043 15.7833 8.85488L19.4151 10.5311ZM19.2806 10.6161C19.2337 10.6473 19.1756 10.6757 19.111 10.6947C19.0471 10.7136 18.9952 10.718 18.9642 10.718V6.718C18.2946 6.718 17.6405 6.90209 17.0618 7.2879L19.2806 10.6161ZM18.9642 10.718C18.9338 10.718 18.8729 10.7137 18.7933 10.6895C18.7118 10.6646 18.6323 10.6252 18.5626 10.5751L20.8998 7.32893C20.3075 6.90248 19.6326 6.718 18.9642 6.718V10.718ZM18.5928 10.5964C18.5203 10.5462 18.4842 10.5031 18.4767 10.4935C18.4701 10.4852 18.487 10.5048 18.5182 10.5689L22.1142 8.81706C21.8526 8.28012 21.4627 7.71822 20.8696 7.30762L18.5928 10.5964ZM18.5024 10.5356L21.7394 17.5036L25.367 15.8184L22.13 8.85038L18.5024 10.5356ZM21.7643 17.5554C21.7748 17.5764 21.6676 17.3731 21.7322 17.0373L25.6602 17.7927C25.8114 17.0062 25.6089 16.3003 25.342 15.7666L21.7643 17.5554ZM21.7194 17.1109C21.7386 16.9862 21.7874 16.8228 21.8929 16.654C21.9996 16.4834 22.1334 16.3565 22.2618 16.2709L24.4806 19.5991C25.1517 19.1517 25.557 18.4729 25.6729 17.7191L21.7194 17.1109ZM22.2243 16.2965C22.4574 16.1333 22.6659 16.117 22.7212 16.117V20.117C23.2964 20.117 23.9383 19.9793 24.5181 19.5735L22.2243 16.2965ZM22.7212 16.117C22.6511 16.117 22.8941 16.0998 23.1817 16.3351L20.6487 19.4309C21.3176 19.9782 22.0979 20.117 22.7212 20.117V16.117ZM23.2168 16.3645C23.2593 16.4009 23.2881 16.432 23.305 16.4519C23.3219 16.4717 23.329 16.4829 23.3281 16.4814C23.3272 16.4801 23.3202 16.4691 23.3081 16.446C23.2961 16.423 23.2804 16.3904 23.2618 16.3467L19.5805 17.9113C19.7865 18.396 20.1015 18.9625 20.6136 19.4015L23.2168 16.3645ZM23.2617 16.3464L22.5597 14.6954L18.8787 16.2606L19.5807 17.9116L23.2617 16.3464ZM19.5415 17.0945L20.4515 17.7575L22.8069 14.5245L21.8969 13.8615L19.5415 17.0945ZM21.6292 14.141H16.2732V18.141H21.6292V14.141ZM17.44 17.7654L18.363 17.1024L16.0294 13.8536L15.1064 14.5166L17.44 17.7654ZM15.3557 14.6954L14.6537 16.3464L18.3347 17.9116L19.0367 16.2606L15.3557 14.6954ZM14.6703 16.3083C14.6218 16.4161 14.5871 16.4763 14.5708 16.5019C14.5633 16.5136 14.5635 16.5121 14.5725 16.5008C14.5814 16.4896 14.6026 16.4644 14.6377 16.4311L17.3887 19.3349C17.8283 18.9184 18.1176 18.395 18.318 17.9497L14.6703 16.3083ZM14.6377 16.4311C14.9914 16.096 15.332 16.117 15.2592 16.117V20.117C15.8624 20.117 16.7056 19.982 17.3887 19.3349L14.6377 16.4311ZM17.0934 10.5585L15.5854 14.1595L19.275 15.7045L20.783 12.1035L17.0934 10.5585ZM19.1577 13.9243L18.7937 13.3003L15.3386 15.3157L15.7026 15.9397L19.1577 13.9243ZM17.0662 16.308H20.8492V12.308H17.0662V16.308ZM19.1216 13.3003L18.7576 13.9243L22.2127 15.9397L22.5767 15.3157L19.1216 13.3003ZM22.3276 14.1538L20.8066 10.5528L17.1218 12.1092L18.6428 15.7102L22.3276 14.1538ZM18.9642 9.331H18.9382V13.331H18.9642V9.331ZM27.0969 17.805L25.6541 19.1901L25.6683 19.2048L25.6827 19.2192L27.0969 17.805ZM26.7849 10.785H28.7849V8.785H26.7849V10.785ZM24.0029 10.538L22.5529 11.9155L22.5882 11.9527L22.6254 11.988L24.0029 10.538ZM24.0029 9.082L22.6254 7.632L22.6068 7.64966L22.5887 7.66779L24.0029 9.082ZM31.9459 9.082L30.5317 10.4962L30.5498 10.5143L30.5684 10.532L31.9459 9.082ZM31.9459 10.538L33.3601 11.9522L33.3601 11.9522L31.9459 10.538ZM29.1769 10.785V8.785H27.1769V10.785H29.1769ZM28.8779 17.805L30.3219 19.1888L30.336 19.1741L30.3498 19.1591L28.8779 17.805ZM27.9809 16.117C27.9687 16.117 28.0319 16.115 28.1395 16.153C28.2559 16.1941 28.3909 16.2706 28.5111 16.3908L25.6827 19.2192C26.3677 19.9042 27.2332 20.117 27.9809 20.117V16.117ZM28.5397 16.4199C28.6458 16.5305 28.7145 16.6538 28.7519 16.7612C28.7867 16.8612 28.7849 16.9193 28.7849 16.908H24.7849C24.7849 17.6603 24.9992 18.5078 25.6541 19.1901L28.5397 16.4199ZM28.7849 16.908V10.785H24.7849V16.908H28.7849ZM26.7849 8.785H24.7439V12.785H26.7849V8.785ZM24.7439 8.785C24.757 8.785 25.0699 8.79302 25.3804 9.088L22.6254 11.988C23.2826 12.6123 24.0895 12.785 24.7439 12.785V8.785ZM25.4529 9.1605C25.5841 9.2986 25.6665 9.45056 25.7116 9.58341C25.754 9.70844 25.7559 9.79334 25.7559 9.81H21.7559C21.7559 10.4732 21.9377 11.2679 22.5529 11.9155L25.4529 9.1605ZM25.7559 9.81C25.7559 9.81556 25.7507 10.1626 25.4171 10.4962L22.5887 7.66779C21.9258 8.33072 21.7559 9.1631 21.7559 9.81H25.7559ZM25.3804 10.532C25.0699 10.827 24.757 10.835 24.7439 10.835V6.835C24.0895 6.835 23.2826 7.00769 22.6254 7.632L25.3804 10.532ZM24.7439 10.835H31.2179V6.835H24.7439V10.835ZM31.2179 10.835C31.2123 10.835 30.8653 10.8298 30.5317 10.4962L33.3601 7.66779C32.6972 7.00485 31.8648 6.835 31.2179 6.835V10.835ZM30.5684 10.532C30.4104 10.3819 30.3111 10.2105 30.2574 10.0602C30.2074 9.92016 30.2059 9.82508 30.2059 9.81H34.2059C34.2059 9.13554 34.016 8.28999 33.3234 7.632L30.5684 10.532ZM30.2059 9.81C30.2059 9.78358 30.2093 9.68797 30.2574 9.55333C30.3085 9.41041 30.3983 9.25722 30.5317 9.12379L33.3601 11.9522C34.0038 11.3085 34.2059 10.5005 34.2059 9.81H30.2059ZM30.5317 9.12379C30.8653 8.79018 31.2123 8.785 31.2179 8.785V12.785C31.8648 12.785 32.6972 12.6151 33.3601 11.9522L30.5317 9.12379ZM31.2179 8.785H29.1769V12.785H31.2179V8.785ZM27.1769 10.785V16.908H31.1769V10.785H27.1769ZM27.1769 16.908C27.1769 16.9273 27.1741 16.8779 27.2048 16.7858C27.2379 16.6866 27.3013 16.5648 27.406 16.4509L30.3498 19.1591C30.9796 18.4745 31.1769 17.6383 31.1769 16.908H27.1769ZM27.4339 16.4212C27.5739 16.2751 27.7281 16.1914 27.8471 16.15C27.9556 16.1123 28.012 16.117 27.9809 16.117V20.117C28.71 20.117 29.6189 19.9224 30.3219 19.1888L27.4339 16.4212ZM34.2151 17.805L32.7723 19.1901L32.7865 19.2048L32.8009 19.2192L34.2151 17.805ZM34.2151 9.03L32.8009 7.61579L32.8009 7.61579L34.2151 9.03ZM35.9831 9.03L34.5391 10.4138L34.5539 10.4292L34.5689 10.4442L35.9831 9.03ZM36.2951 12.371H34.2951V14.371H36.2951V12.371ZM40.0781 12.371V14.371H42.0781V12.371H40.0781ZM40.3771 9.03L38.9629 7.61579L38.9479 7.63083L38.9331 7.64619L40.3771 9.03ZM42.1451 9.03L40.7011 10.4138L40.7159 10.4292L40.7309 10.4442L42.1451 9.03ZM42.1451 17.805L40.7023 16.4199L40.7011 16.4212L42.1451 17.805ZM40.3771 17.805L38.9053 19.1591L38.9335 19.1898L38.9629 19.2192L40.3771 17.805ZM40.0781 14.334H42.0781V12.334H40.0781V14.334ZM36.2951 14.334V12.334H34.2951V14.334H36.2951ZM35.9961 17.805L37.4401 19.1888L37.4542 19.1741L37.468 19.1591L35.9961 17.805ZM35.0991 16.117C35.0869 16.117 35.1501 16.115 35.2578 16.153C35.3741 16.1941 35.5091 16.2706 35.6293 16.3908L32.8009 19.2192C33.4859 19.9042 34.3514 20.117 35.0991 20.117V16.117ZM35.6579 16.4199C35.7688 16.5355 35.8371 16.6618 35.873 16.7664C35.9061 16.863 35.9031 16.9154 35.9031 16.895H31.9031C31.9031 17.6416 32.1097 18.4998 32.7723 19.1901L35.6579 16.4199ZM35.9031 16.895V9.94H31.9031V16.895H35.9031ZM35.9031 9.94C35.9031 9.90987 35.9076 9.96134 35.873 10.0621C35.8352 10.1723 35.7597 10.3138 35.6293 10.4442L32.8009 7.61579C32.1001 8.31655 31.9031 9.20446 31.9031 9.94H35.9031ZM35.6293 10.4442C35.5091 10.5644 35.3741 10.6409 35.2578 10.682C35.1501 10.72 35.0869 10.718 35.0991 10.718V6.718C34.3514 6.718 33.4859 6.93079 32.8009 7.61579L35.6293 10.4442ZM35.0991 10.718C35.1213 10.718 35.059 10.7215 34.947 10.682C34.8246 10.6388 34.674 10.5545 34.5391 10.4138L37.4271 7.64619C36.7318 6.92065 35.8348 6.718 35.0991 6.718V10.718ZM34.5689 10.4442C34.4385 10.3138 34.363 10.1723 34.3252 10.0621C34.2907 9.96134 34.2951 9.90987 34.2951 9.94H38.2951C38.2951 9.20446 38.0981 8.31655 37.3973 7.61579L34.5689 10.4442ZM34.2951 9.94V12.371H38.2951V9.94H34.2951ZM36.2951 14.371H40.0781V10.371H36.2951V14.371ZM42.0781 12.371V9.94H38.0781V12.371H42.0781ZM42.0781 9.94C42.0781 9.85658 42.0966 10.1263 41.8211 10.4138L38.9331 7.64619C38.2589 8.3497 38.0781 9.22608 38.0781 9.94H42.0781ZM41.7913 10.4442C41.666 10.5695 41.5277 10.6456 41.4144 10.685C41.3101 10.7213 41.2529 10.718 41.2741 10.718V6.718C40.5326 6.718 39.6559 6.92275 38.9629 7.61579L41.7913 10.4442ZM41.2741 10.718C41.2872 10.718 41.219 10.7202 41.1034 10.6788C40.9779 10.6339 40.8308 10.5491 40.7011 10.4138L43.5891 7.64619C42.9018 6.92901 42.0166 6.718 41.2741 6.718V10.718ZM40.7309 10.4442C40.6005 10.3138 40.525 10.1723 40.4872 10.0621C40.4527 9.96134 40.4571 9.90987 40.4571 9.94H44.4571C44.4571 9.20446 44.2601 8.31655 43.5593 7.61579L40.7309 10.4442ZM40.4571 9.94V16.895H44.4571V9.94H40.4571ZM40.4571 16.895C40.4571 16.9154 40.4541 16.863 40.4872 16.7664C40.5231 16.6618 40.5914 16.5355 40.7023 16.4199L43.5879 19.1901C44.2506 18.4998 44.4571 17.6416 44.4571 16.895H40.4571ZM40.7011 16.4212C40.8308 16.2859 40.9779 16.2011 41.1034 16.1562C41.219 16.1148 41.2872 16.117 41.2741 16.117V20.117C42.0166 20.117 42.9018 19.906 43.5891 19.1888L40.7011 16.4212ZM41.2741 16.117C41.2529 16.117 41.3101 16.1137 41.4144 16.15C41.5277 16.1894 41.666 16.2655 41.7913 16.3908L38.9629 19.2192C39.6559 19.9122 40.5326 20.117 41.2741 20.117V16.117ZM41.849 16.4509C41.9583 16.5698 42.0213 16.6945 42.0529 16.7907C42.0821 16.8794 42.0781 16.9232 42.0781 16.895H38.0781C38.0781 17.6201 38.2682 18.4667 38.9053 19.1591L41.849 16.4509ZM42.0781 16.895V14.334H38.0781V16.895H42.0781ZM40.0781 12.334H36.2951V16.334H40.0781V12.334ZM34.2951 14.334V16.895H38.2951V14.334H34.2951ZM34.2951 16.895C34.2951 16.9232 34.2911 16.8794 34.3203 16.7907C34.3519 16.6945 34.4149 16.5698 34.5243 16.4509L37.468 19.1591C38.105 18.4667 38.2951 17.6201 38.2951 16.895H34.2951ZM34.5521 16.4212C34.6922 16.2751 34.8463 16.1914 34.9653 16.15C35.0738 16.1123 35.1302 16.117 35.0991 16.117V20.117C35.8283 20.117 36.7371 19.9224 37.4401 19.1888L34.5521 16.4212ZM48.2308 17.909L47.0887 19.5508L47.105 19.5621L47.1214 19.5731L48.2308 17.909ZM47.7238 17.246L45.9022 18.0716L45.9049 18.0775L47.7238 17.246ZM44.5778 10.304L46.3995 9.47845L46.3968 9.47248L44.5778 10.304ZM44.4478 9.485L46.4034 9.90406L46.4034 9.90406L44.4478 9.485ZM44.8118 8.926L45.9385 10.5785L45.9636 10.5613L45.9882 10.5435L44.8118 8.926ZM46.3198 8.952L44.9819 10.4386L44.9999 10.4548L45.0183 10.4705L46.3198 8.952ZM46.7878 9.641L44.9495 10.4288L44.952 10.4345L46.7878 9.641ZM49.4398 15.777V17.777H52.4831L51.2757 14.9835L49.4398 15.777ZM48.7118 15.777L46.8754 14.9849L45.6712 17.777H48.7118V15.777ZM51.3638 9.628L53.2003 10.4201L53.2021 10.4158L51.3638 9.628ZM51.8318 8.952L53.0902 10.5065L53.1121 10.4888L53.1334 10.4705L51.8318 8.952ZM53.2748 8.926L52.0628 10.5169L52.0873 10.5355L52.1124 10.5535L53.2748 8.926ZM53.6128 9.485L51.644 9.83658L51.65 9.87043L51.6572 9.90406L53.6128 9.485ZM53.4828 10.304L51.6639 9.47248L51.6625 9.47562L53.4828 10.304ZM50.3238 17.246L48.5035 16.4176L48.4943 16.4378L48.4855 16.4582L50.3238 17.246ZM49.8298 17.909L50.972 19.5508L50.972 19.5508L49.8298 17.909ZM49.0368 16.117C48.979 16.117 49.1302 16.1049 49.3402 16.2449L47.1214 19.5731C47.7475 19.9904 48.436 20.117 49.0368 20.117V16.117ZM49.373 16.2672C49.4661 16.332 49.52 16.3938 49.5433 16.4244C49.5655 16.4533 49.5618 16.4561 49.5428 16.4145L45.9049 18.0775C46.1392 18.59 46.5053 19.145 47.0887 19.5508L49.373 16.2672ZM49.5455 16.4205L46.3995 9.47845L42.7562 11.1295L45.9022 18.0715L49.5455 16.4205ZM46.3968 9.47248C46.3761 9.4273 46.4681 9.60242 46.4034 9.90406L42.4922 9.06594C42.3236 9.85291 42.5022 10.574 42.7589 11.1355L46.3968 9.47248ZM46.4034 9.90406C46.3841 9.99437 46.3413 10.1202 46.2538 10.2546C46.1648 10.3913 46.0531 10.5003 45.9385 10.5785L43.6852 7.27354C43.0361 7.71606 42.643 8.36252 42.4922 9.06594L46.4034 9.90406ZM45.9882 10.5435C45.887 10.6171 45.7831 10.664 45.6923 10.6904C45.6047 10.7158 45.5448 10.718 45.5268 10.718V6.718C44.9101 6.718 44.2356 6.87212 43.6355 7.30853L45.9882 10.5435ZM45.5268 10.718C45.5652 10.718 45.5214 10.723 45.4256 10.6947C45.323 10.6645 45.1539 10.5934 44.9819 10.4386L47.6578 7.46541C46.9661 6.84292 46.126 6.718 45.5268 6.718V10.718ZM45.0183 10.4705C44.9554 10.4166 44.9252 10.3742 44.9189 10.365C44.9131 10.3564 44.9258 10.3735 44.9495 10.4288L48.6261 8.85316C48.4184 8.36851 48.1065 7.84923 47.6214 7.43349L45.0183 10.4705ZM44.952 10.4345L47.604 16.5705L51.2757 14.9835L48.6237 8.84753L44.952 10.4345ZM49.4398 13.777H48.7118V17.777H49.4398V13.777ZM50.5483 16.5691L53.2003 10.4201L49.5274 8.83595L46.8754 14.9849L50.5483 16.5691ZM53.2021 10.4158C53.2247 10.3632 53.2345 10.3529 53.2227 10.3699C53.2104 10.3877 53.1697 10.4422 53.0902 10.5065L50.5734 7.39751C50.0566 7.81593 49.7343 8.35306 49.5256 8.84016L53.2021 10.4158ZM53.1334 10.4705C52.8373 10.7244 52.5685 10.718 52.5988 10.718V6.718C51.9705 6.718 51.1904 6.86762 50.5303 7.43349L53.1334 10.4705ZM52.5988 10.718C52.5611 10.718 52.4835 10.713 52.3812 10.6816C52.2755 10.6491 52.1649 10.5947 52.0628 10.5169L54.4869 7.33514C53.8985 6.8868 53.2263 6.718 52.5988 6.718V10.718ZM52.1124 10.5535C51.9881 10.4647 51.8727 10.3441 51.7844 10.1981C51.6981 10.0554 51.6598 9.92521 51.644 9.83658L55.5817 9.13342C55.4568 8.43393 55.0897 7.76451 54.4373 7.29853L52.1124 10.5535ZM51.6572 9.90406C51.5926 9.60242 51.6845 9.42731 51.6639 9.47248L55.3018 11.1355C55.5585 10.574 55.7371 9.85291 55.5684 9.06594L51.6572 9.90406ZM51.6625 9.47562L48.5035 16.4176L52.1442 18.0744L55.3032 11.1324L51.6625 9.47562ZM48.4855 16.4582C48.4518 16.5368 48.4879 16.4062 48.6877 16.2672L50.972 19.5508C51.5704 19.1345 51.9358 18.5618 52.1621 18.0338L48.4855 16.4582ZM48.6877 16.2672C48.9241 16.1028 49.1002 16.117 49.0368 16.117V20.117C49.6321 20.117 50.337 19.9926 50.972 19.5508L48.6877 16.2672ZM55.9033 17.688L54.4605 19.0731L54.4888 19.1025L54.5182 19.1308L55.9033 17.688ZM55.9033 9.16L57.3175 10.5742L57.3175 10.5742L55.9033 9.16ZM61.9483 10.447L63.3625 11.8612L63.3816 11.8421L63.4002 11.8225L61.9483 10.447ZM57.8793 10.681V8.681H55.8793V10.681H57.8793ZM57.8793 12.423H55.8793V14.423H57.8793V12.423ZM61.6493 12.657L60.2351 14.0712L60.2542 14.0903L60.2738 14.1089L61.6493 12.657ZM61.6493 14.035L60.2738 12.5831L60.2542 12.6017L60.2351 12.6208L61.6493 14.035ZM57.8793 14.269V12.269H55.8793V14.269H57.8793ZM57.8793 16.154H55.8793V18.154H57.8793V16.154ZM61.9483 16.401L60.4964 17.7765L60.515 17.7961L60.5341 17.8152L61.9483 16.401ZM56.8393 16C56.8014 16 56.8423 15.9947 56.9322 16.0246C57.0306 16.0574 57.1629 16.1248 57.2883 16.2452L54.5182 19.1308C55.2237 19.8081 56.1033 20 56.8393 20V16ZM57.3461 16.3029C57.4617 16.4234 57.5296 16.5527 57.564 16.6543C57.5955 16.7476 57.5913 16.7942 57.5913 16.765H53.5913C53.5913 17.5062 53.7904 18.375 54.4605 19.0731L57.3461 16.3029ZM57.5913 16.765V10.07H53.5913V16.765H57.5913ZM57.5913 10.07C57.5913 10.0399 57.5957 10.0913 57.5612 10.1921C57.5234 10.3023 57.4479 10.4438 57.3175 10.5742L54.4891 7.74579C53.7883 8.44655 53.5913 9.33446 53.5913 10.07H57.5913ZM57.3175 10.5742C57.1959 10.6958 57.0625 10.7685 56.9558 10.8056C56.8582 10.8395 56.8088 10.835 56.8393 10.835V6.835C56.0822 6.835 55.1917 7.04314 54.4891 7.74579L57.3175 10.5742ZM56.8393 10.835H61.2463V6.835H56.8393V10.835ZM61.2463 10.835C61.2416 10.835 61.156 10.8351 61.0233 10.7909C60.8809 10.7434 60.7004 10.6495 60.5341 10.4832L63.3625 7.65479C62.6991 6.99143 61.8666 6.835 61.2463 6.835V10.835ZM60.5341 10.4832C60.2024 10.1516 60.1823 9.79695 60.1823 9.745H64.1823C64.1823 9.10372 64.0061 8.29843 63.3625 7.65479L60.5341 10.4832ZM60.1823 9.745C60.1823 9.71327 60.1953 9.38934 60.4964 9.07151L63.4002 11.8225C64.0133 11.1753 64.1823 10.3834 64.1823 9.745H60.1823ZM60.5341 9.03279C60.7004 8.86646 60.8809 8.7726 61.0233 8.72513C61.156 8.68089 61.2416 8.681 61.2463 8.681V12.681C61.8666 12.681 62.6991 12.5246 63.3625 11.8612L60.5341 9.03279ZM61.2463 8.681H57.8793V12.681H61.2463V8.681ZM55.8793 10.681V12.423H59.8793V10.681H55.8793ZM57.8793 14.423H60.9603V10.423H57.8793V14.423ZM60.9603 14.423C60.9364 14.423 60.5768 14.413 60.2351 14.0712L63.0635 11.2428C62.4097 10.589 61.5908 10.423 60.9603 10.423V14.423ZM60.2738 14.1089C60.1115 13.9552 60.0083 13.7787 59.9518 13.6212C59.8991 13.474 59.8963 13.3706 59.8963 13.346H63.8963C63.8963 12.6863 63.7093 11.8536 63.0248 11.2051L60.2738 14.1089ZM59.8963 13.346C59.8963 13.3214 59.8991 13.218 59.9518 13.0708C60.0083 12.9133 60.1115 12.7368 60.2738 12.5831L63.0248 15.4869C63.7093 14.8384 63.8963 14.0057 63.8963 13.346H59.8963ZM60.2351 12.6208C60.5768 12.279 60.9364 12.269 60.9603 12.269V16.269C61.5908 16.269 62.4097 16.103 63.0635 15.4492L60.2351 12.6208ZM60.9603 12.269H57.8793V16.269H60.9603V12.269ZM55.8793 14.269V16.154H59.8793V14.269H55.8793ZM57.8793 18.154H61.2463V14.154H57.8793V18.154ZM61.2463 18.154C61.2216 18.154 60.8428 18.1422 60.4964 17.7765L63.4002 15.0255C62.7417 14.3305 61.895 14.154 61.2463 14.154V18.154ZM60.5341 17.8152C60.2024 17.4836 60.1823 17.1289 60.1823 17.077H64.1823C64.1823 16.4357 64.0061 15.6304 63.3625 14.9868L60.5341 17.8152ZM60.1823 17.077C60.1823 17.0531 60.1923 16.6935 60.5341 16.3518L63.3625 19.1802C64.0162 18.5265 64.1823 17.7076 64.1823 17.077H60.1823ZM60.5341 16.3518C60.7004 16.1855 60.8809 16.0916 61.0233 16.0441C61.156 15.9999 61.2416 16 61.2463 16V20C61.8666 20 62.6991 19.8436 63.3625 19.1802L60.5341 16.3518ZM61.2463 16H56.8393V20H61.2463V16ZM64.7726 17.831L66.1868 16.4168L64.7726 17.831ZM64.7726 9.03L66.2179 10.4124L66.2326 10.3971L66.2469 10.3814L64.7726 9.03ZM66.1766 8.874L65.0672 10.5381L65.0672 10.5381L66.1766 8.874ZM66.6966 9.394L65.124 10.6296L65.1296 10.6368L65.1353 10.6439L66.6966 9.394ZM70.8176 14.542V16.542H74.9805L72.379 13.2921L70.8176 14.542ZM70.4536 14.542H68.4536V16.542H70.4536V14.542ZM70.7266 9.004L69.3124 7.58979L69.296 7.60623L69.2799 7.62305L70.7266 9.004ZM72.3776 9.004L70.9309 10.3849L70.947 10.4018L70.9634 10.4182L72.3776 9.004ZM72.4036 17.831L73.8835 19.1763L73.8984 19.16L73.9128 19.1434L72.4036 17.831ZM70.9996 17.961L69.8703 19.6116L69.9195 19.6453L69.9706 19.676L70.9996 17.961ZM70.4666 17.441L68.9037 18.6889L68.9099 18.6967L68.9162 18.7043L70.4666 17.441ZM66.3456 12.28V10.28H62.1893L64.7827 13.5279L66.3456 12.28ZM66.7096 12.28H68.7096V10.28H66.7096V12.28ZM66.4236 17.831L65.0094 16.4168L64.993 16.4332L64.9769 16.45L66.4236 17.831ZM65.6046 16.117C65.5926 16.117 65.6597 16.1149 65.7738 16.1541C65.8972 16.1965 66.0487 16.2787 66.1868 16.4168L63.3584 19.2452C64.0405 19.9273 64.9011 20.117 65.6046 20.117V16.117ZM66.1868 16.4168C66.4957 16.7257 66.4866 17.0349 66.4866 16.986H62.4866C62.4866 17.6824 62.6682 18.555 63.3584 19.2452L66.1868 16.4168ZM66.4866 16.986V9.901H62.4866V16.986H66.4866ZM66.4866 9.901C66.4866 9.83521 66.5007 10.1168 66.2179 10.4124L63.3273 7.64755C62.6632 8.34185 62.4866 9.20412 62.4866 9.901H66.4866ZM66.2469 10.3814C66.1524 10.4846 66.0233 10.5801 65.8688 10.644C65.719 10.706 65.5948 10.718 65.5266 10.718V6.718C64.72 6.718 63.9102 7.01106 63.2983 7.67855L66.2469 10.3814ZM65.5266 10.718C65.5446 10.718 65.5068 10.7201 65.4304 10.7018C65.3518 10.6829 65.2183 10.6388 65.0672 10.5381L67.286 7.2099C66.6791 6.8053 66.0203 6.718 65.5266 6.718V10.718ZM65.0672 10.5381C65.0359 10.5172 65.0163 10.5013 65.0086 10.4948C65.0007 10.4882 65.001 10.4878 65.0094 10.4962C65.0276 10.5144 65.0659 10.5557 65.124 10.6296L68.2693 8.15836C68.0208 7.84211 67.695 7.48256 67.286 7.2099L65.0672 10.5381ZM65.1353 10.6439L69.2563 15.7919L72.379 13.2921L68.258 8.14413L65.1353 10.6439ZM70.8176 12.542H70.4536V16.542H70.8176V12.542ZM72.4536 14.542V9.836H68.4536V14.542H72.4536ZM72.4536 9.836C72.4536 9.78787 72.4632 10.0813 72.1733 10.385L69.2799 7.62305C68.626 8.30808 68.4536 9.15613 68.4536 9.836H72.4536ZM72.1408 10.4182C72.0027 10.5563 71.8512 10.6385 71.7278 10.6809C71.6137 10.7201 71.5466 10.718 71.5586 10.718V6.718C70.8551 6.718 69.9945 6.90774 69.3124 7.58979L72.1408 10.4182ZM71.5586 10.718C71.5717 10.718 71.4992 10.7204 71.377 10.6777C71.2441 10.6313 71.0791 10.5402 70.9309 10.3849L73.8243 7.62305C73.1391 6.90516 72.2552 6.718 71.5586 6.718V10.718ZM70.9634 10.4182C70.8253 10.2801 70.7432 10.1285 70.7008 10.0052C70.6616 9.89111 70.6636 9.82401 70.6636 9.836H74.6636C74.6636 9.13248 74.4739 8.27183 73.7918 7.58979L70.9634 10.4182ZM70.6636 9.836V17.038H74.6636V9.836H70.6636ZM70.6636 17.038C70.6636 17.0289 70.6647 16.9622 70.6982 16.8601C70.7335 16.7525 70.7968 16.6309 70.8944 16.5186L73.9128 19.1434C74.4751 18.4967 74.6636 17.7264 74.6636 17.038H70.6636ZM70.9237 16.4857C71.0339 16.3645 71.1784 16.2606 71.3435 16.1933C71.5025 16.1286 71.6326 16.117 71.7016 16.117V20.117C72.4706 20.117 73.275 19.8457 73.8835 19.1763L70.9237 16.4857ZM71.7016 16.117C71.6684 16.117 71.6855 16.1137 71.739 16.1256C71.7939 16.1378 71.9004 16.1691 72.0286 16.246L69.9706 19.676C70.5657 20.033 71.2003 20.117 71.7016 20.117V16.117ZM72.129 16.3104C72.1616 16.3327 72.1648 16.3396 72.1395 16.3149C72.1152 16.2912 72.0742 16.2478 72.0171 16.1777L68.9162 18.7043C69.1726 19.0191 69.4885 19.3504 69.8703 19.6116L72.129 16.3104ZM72.0295 16.1931L67.9085 11.0321L64.7827 13.5279L68.9037 18.6889L72.0295 16.1931ZM66.3456 14.28H66.7096V10.28H66.3456V14.28ZM64.7096 12.28V16.986H68.7096V12.28H64.7096ZM64.7096 16.986C64.7096 17.0349 64.7005 16.7257 65.0094 16.4168L67.8378 19.2452C68.528 18.555 68.7096 17.6824 68.7096 16.986H64.7096ZM64.9769 16.45C65.1251 16.2948 65.2901 16.2037 65.423 16.1573C65.5452 16.1146 65.6177 16.117 65.6046 16.117V20.117C66.3012 20.117 67.1851 19.9298 67.8703 19.212L64.9769 16.45ZM77.7182 17.805L76.2754 19.1901L76.2896 19.2048L76.304 19.2192L77.7182 17.805ZM77.4062 10.785H79.4062V8.785H77.4062V10.785ZM74.6242 10.538L73.1742 11.9155L73.2095 11.9527L73.2467 11.988L74.6242 10.538ZM74.6242 9.082L73.2467 7.632L73.2281 7.64966L73.21 7.66779L74.6242 9.082ZM82.5672 9.082L81.153 10.4962L81.1711 10.5143L81.1897 10.532L82.5672 9.082ZM82.5672 10.538L83.9814 11.9522L83.9814 11.9522L82.5672 10.538ZM79.7982 10.785V8.785H77.7982V10.785H79.7982ZM79.4992 17.805L80.9432 19.1888L80.9573 19.1741L80.9711 19.1591L79.4992 17.805ZM78.6022 16.117C78.59 16.117 78.6531 16.115 78.7608 16.153C78.8772 16.1941 79.0122 16.2706 79.1324 16.3908L76.304 19.2192C76.989 19.9042 77.8544 20.117 78.6022 20.117V16.117ZM79.161 16.4199C79.2671 16.5305 79.3358 16.6538 79.3732 16.7612C79.408 16.8612 79.4062 16.9193 79.4062 16.908H75.4062C75.4062 17.6603 75.6205 18.5078 76.2754 19.1901L79.161 16.4199ZM79.4062 16.908V10.785H75.4062V16.908H79.4062ZM77.4062 8.785H75.3652V12.785H77.4062V8.785ZM75.3652 8.785C75.3783 8.785 75.6912 8.79302 76.0017 9.088L73.2467 11.988C73.9039 12.6123 74.7108 12.785 75.3652 12.785V8.785ZM76.0742 9.1605C76.2054 9.2986 76.2878 9.45056 76.3329 9.58341C76.3753 9.70844 76.3772 9.79334 76.3772 9.81H72.3772C72.3772 10.4732 72.559 11.2679 73.1742 11.9155L76.0742 9.1605ZM76.3772 9.81C76.3772 9.81556 76.372 10.1626 76.0384 10.4962L73.21 7.66779C72.5471 8.33072 72.3772 9.1631 72.3772 9.81H76.3772ZM76.0017 10.532C75.6912 10.827 75.3783 10.835 75.3652 10.835V6.835C74.7108 6.835 73.9039 7.00769 73.2467 7.632L76.0017 10.532ZM75.3652 10.835H81.8392V6.835H75.3652V10.835ZM81.8392 10.835C81.8336 10.835 81.4866 10.8298 81.153 10.4962L83.9814 7.66779C83.3185 7.00485 82.4861 6.835 81.8392 6.835V10.835ZM81.1897 10.532C81.0317 10.3819 80.9324 10.2105 80.8787 10.0602C80.8287 9.92016 80.8272 9.82508 80.8272 9.81H84.8272C84.8272 9.13554 84.6373 8.28999 83.9447 7.632L81.1897 10.532ZM80.8272 9.81C80.8272 9.78358 80.8306 9.68797 80.8787 9.55333C80.9298 9.41041 81.0195 9.25722 81.153 9.12379L83.9814 11.9522C84.6251 11.3085 84.8272 10.5005 84.8272 9.81H80.8272ZM81.153 9.12379C81.4866 8.79018 81.8336 8.785 81.8392 8.785V12.785C82.4861 12.785 83.3185 12.6151 83.9814 11.9522L81.153 9.12379ZM81.8392 8.785H79.7982V12.785H81.8392V8.785ZM77.7982 10.785V16.908H81.7982V10.785H77.7982ZM77.7982 16.908C77.7982 16.9273 77.7954 16.8779 77.8261 16.7858C77.8591 16.6866 77.9226 16.5648 78.0273 16.4509L80.9711 19.1591C81.6009 18.4745 81.7982 17.6383 81.7982 16.908H77.7982ZM78.0552 16.4212C78.1952 16.2751 78.3494 16.1914 78.4684 16.15C78.5769 16.1123 78.6333 16.117 78.6022 16.117V20.117C79.3313 20.117 80.2402 19.9224 80.9432 19.1888L78.0552 16.4212ZM86.8124 17.896L86.1703 19.7901L86.1848 19.795L86.1993 19.7997L86.8124 17.896ZM85.5124 17.129L84.1162 18.561L84.125 18.5696L84.134 18.5781L85.5124 17.129ZM84.7194 15.868L82.8253 16.5101L82.8319 16.5296L82.8389 16.5489L84.7194 15.868ZM84.7714 9.03L86.1552 10.474L86.1706 10.4593L86.1856 10.4442L84.7714 9.03ZM86.5394 9.03L85.0954 10.4138L85.1249 10.4445L85.1556 10.474L86.5394 9.03ZM87.2934 15.634L85.7859 16.9483L85.7859 16.9483L87.2934 15.634ZM89.8544 15.634L91.3619 16.9483L91.3619 16.9483L89.8544 15.634ZM92.3504 9.03L90.9064 10.4138L90.9211 10.4292L90.9362 10.4442L92.3504 9.03ZM92.1814 16.349L90.4028 15.4343L90.3977 15.4442L92.1814 16.349ZM90.8164 17.701L91.6902 19.5L91.7005 19.495L91.7108 19.4899L90.8164 17.701ZM88.5804 16.143C88.0729 16.143 87.6975 16.0799 87.4255 15.9923L86.1993 19.7997C86.95 20.0415 87.7532 20.143 88.5804 20.143V16.143ZM87.4545 16.0019C87.19 15.9122 87.0155 15.7984 86.8908 15.6799L84.134 18.5781C84.72 19.1356 85.4122 19.5331 86.1703 19.7901L87.4545 16.0019ZM86.9086 15.697C86.7996 15.5908 86.69 15.436 86.5999 15.1871L82.8389 16.5489C83.1128 17.3053 83.5318 17.9912 84.1162 18.561L86.9086 15.697ZM86.6135 15.2259C86.5246 14.9636 86.4594 14.5985 86.4594 14.1H82.4594C82.4594 14.9362 82.5675 15.7497 82.8253 16.5101L86.6135 15.2259ZM86.4594 14.1V9.927H82.4594V14.1H86.4594ZM86.4594 9.927C86.4594 9.8959 86.4641 9.95234 86.4264 10.0608C86.385 10.1798 86.3013 10.334 86.1552 10.474L83.3876 7.58602C82.654 8.28903 82.4594 9.19785 82.4594 9.927H86.4594ZM86.1856 10.4442C86.0654 10.5644 85.9304 10.6409 85.814 10.682C85.7063 10.72 85.6432 10.718 85.6554 10.718V6.718C84.9076 6.718 84.0422 6.93079 83.3572 7.61579L86.1856 10.4442ZM85.6554 10.718C85.6776 10.718 85.6153 10.7215 85.5033 10.682C85.3809 10.6388 85.2303 10.5545 85.0954 10.4138L87.9834 7.64619C87.2881 6.92065 86.3911 6.718 85.6554 6.718V10.718ZM85.1556 10.474C85.0095 10.334 84.9258 10.1798 84.8844 10.0608C84.8467 9.95234 84.8514 9.8959 84.8514 9.927H88.8514C88.8514 9.19785 88.6568 8.28903 87.9232 7.58602L85.1556 10.474ZM84.8514 9.927V14.126H88.8514V9.927H84.8514ZM84.8514 14.126C84.8514 15.0473 85.0499 16.1041 85.7859 16.9483L88.8009 14.3197C88.8729 14.4023 88.8871 14.4612 88.8812 14.441C88.8734 14.4143 88.8514 14.3187 88.8514 14.126H84.8514ZM85.7859 16.9483C86.554 17.8294 87.5988 18.141 88.5804 18.141V14.141C88.4957 14.141 88.5048 14.1281 88.5692 14.1534C88.602 14.1664 88.6432 14.187 88.6872 14.2178C88.7313 14.2488 88.7698 14.284 88.8009 14.3197L85.7859 16.9483ZM88.5804 18.141C89.5646 18.141 90.5997 17.8226 91.3619 16.9483L88.3469 14.3197C88.3764 14.2859 88.4134 14.2517 88.4568 14.2211C88.5001 14.1906 88.5413 14.1695 88.5754 14.156C88.6428 14.1292 88.6571 14.141 88.5804 14.141V18.141ZM91.3619 16.9483C92.0979 16.1041 92.2964 15.0473 92.2964 14.126H88.2964C88.2964 14.3187 88.2744 14.4143 88.2666 14.441C88.2607 14.4612 88.2749 14.4023 88.3469 14.3197L91.3619 16.9483ZM92.2964 14.126V9.927H88.2964V14.126H92.2964ZM92.2964 9.927C92.2964 9.83662 92.3176 10.1362 92.0096 10.4442L89.1812 7.61579C88.4745 8.32248 88.2964 9.22004 88.2964 9.927H92.2964ZM92.0096 10.4442C91.8894 10.5644 91.7544 10.6409 91.638 10.682C91.5303 10.72 91.4672 10.718 91.4794 10.718V6.718C90.7316 6.718 89.8662 6.93079 89.1812 7.61579L92.0096 10.4442ZM91.4794 10.718C91.4925 10.718 91.4243 10.7202 91.3087 10.6788C91.1832 10.6339 91.0361 10.5491 90.9064 10.4138L93.7944 7.64619C93.1071 6.92901 92.2219 6.718 91.4794 6.718V10.718ZM90.9362 10.4442C90.6282 10.1362 90.6494 9.83662 90.6494 9.927H94.6494C94.6494 9.22004 94.4713 8.32248 93.7646 7.61579L90.9362 10.4442ZM90.6494 9.927V14.1H94.6494V9.927H90.6494ZM90.6494 14.1C90.6494 14.7691 90.5314 15.1842 90.4028 15.4343L93.96 17.2637C94.4554 16.3005 94.6494 15.2162 94.6494 14.1H90.6494ZM90.3977 15.4442C90.2908 15.6551 90.1499 15.7982 89.922 15.9121L91.7108 19.4899C92.6962 18.9971 93.4653 18.2389 93.9651 17.2538L90.3977 15.4442ZM89.9426 15.902C89.6792 16.0299 89.2519 16.143 88.5804 16.143V20.143C89.6769 20.143 90.7403 19.9614 91.6902 19.5L89.9426 15.902ZM95.471 17.805L94.0282 19.1901L94.0424 19.2048L94.0568 19.2192L95.471 17.805ZM95.471 9.147L94.0859 7.70422L94.0712 7.71836L94.0568 7.73279L95.471 9.147ZM101.971 9.602L100.627 11.0829L100.639 11.0937L100.651 11.1043L101.971 9.602ZM102.439 13.229L100.724 12.2L100.718 12.2104L102.439 13.229ZM101.334 14.217L102.189 16.0251L102.196 16.0219L102.203 16.0185L101.334 14.217ZM99.566 14.555L97.7384 13.7427L96.4885 16.555H99.566V14.555ZM99.67 14.321V12.321H98.3703L97.8424 13.5087L99.67 14.321ZM101.282 14.594L100.208 16.2813L100.227 16.2931L100.245 16.3044L101.282 14.594ZM101.997 15.4L100.225 16.328L100.237 16.3498L100.249 16.3713L101.997 15.4ZM102.647 16.57L104.398 15.6038L104.395 15.5987L102.647 16.57ZM102.842 17.311L104.841 17.385L104.841 17.3824L102.842 17.311ZM102.556 17.896L103.851 19.4199L103.858 19.4145L102.556 17.896ZM100.957 17.909L99.8476 19.5731L99.8632 19.5835L99.8789 19.5935L100.957 17.909ZM100.398 17.259L98.6418 18.216L98.6469 18.2253L98.6521 18.2346L100.398 17.259ZM99.215 15.088L100.971 14.131L100.971 14.1303L99.215 15.088ZM98.812 14.698L97.9176 16.4869L97.9759 16.516L98.0359 16.5413L98.812 14.698ZM97.551 14.581V12.581H95.551V14.581H97.551ZM97.252 17.805L98.696 19.1888L98.7101 19.1741L98.7239 19.1591L97.252 17.805ZM97.551 12.891H95.551V14.891H97.551V12.891ZM100.19 12.618L98.99 11.018L98.99 11.018L100.19 12.618ZM100.19 10.954L98.9544 12.5266L98.972 12.5405L98.99 12.554L100.19 10.954ZM97.551 10.668V8.668H95.551V10.668H97.551ZM96.355 16.117C96.3428 16.117 96.406 16.115 96.5137 16.153C96.63 16.1941 96.765 16.2706 96.8852 16.3908L94.0568 19.2192C94.7418 19.9042 95.6073 20.117 96.355 20.117V16.117ZM96.9138 16.4199C97.0199 16.5305 97.0886 16.6538 97.126 16.7612C97.1608 16.8612 97.159 16.9193 97.159 16.908H93.159C93.159 17.6603 93.3733 18.5078 94.0282 19.1901L96.9138 16.4199ZM97.159 16.908V10.044H93.159V16.908H97.159ZM97.159 10.044C97.159 10.0227 97.1623 10.08 97.126 10.1843C97.0866 10.2976 97.0105 10.4359 96.8852 10.5612L94.0568 7.73279C93.3638 8.42582 93.159 9.30248 93.159 10.044H97.159ZM96.8561 10.5898C96.7455 10.6959 96.6223 10.7646 96.5148 10.802C96.4149 10.8368 96.3567 10.835 96.368 10.835V6.835C95.6157 6.835 94.7682 7.04927 94.0859 7.70422L96.8561 10.5898ZM96.368 10.835H99.566V6.835H96.368V10.835ZM99.566 10.835C100.293 10.835 100.548 11.0116 100.627 11.0829L103.315 8.12109C102.267 7.16978 100.919 6.835 99.566 6.835V10.835ZM100.651 11.1043C100.711 11.1569 100.829 11.2659 100.829 11.708H104.829C104.829 10.3474 104.375 9.05244 103.291 8.09967L100.651 11.1043ZM100.829 11.708C100.829 11.9812 100.771 12.1215 100.724 12.2L104.154 14.258C104.627 13.4698 104.829 12.5962 104.829 11.708H100.829ZM100.718 12.2104C100.686 12.2646 100.63 12.3363 100.465 12.4155L102.203 16.0185C103.009 15.6297 103.69 15.0427 104.16 14.2476L100.718 12.2104ZM100.479 12.4089C100.343 12.4733 100.066 12.555 99.566 12.555V16.555C100.47 16.555 101.372 16.4114 102.189 16.0251L100.479 12.4089ZM101.394 15.3673L101.498 15.1333L97.8424 13.5087L97.7384 13.7427L101.394 15.3673ZM99.67 16.321H100.294V12.321H99.67V16.321ZM100.294 16.321C100.317 16.321 100.312 16.3236 100.288 16.317C100.263 16.3101 100.234 16.2977 100.208 16.2813L102.356 12.9067C101.717 12.5004 101.008 12.321 100.294 12.321V16.321ZM100.245 16.3044C100.226 16.2926 100.21 16.281 100.199 16.271C100.187 16.2612 100.181 16.2544 100.179 16.2527C100.176 16.2497 100.195 16.2696 100.225 16.328L103.769 14.472C103.447 13.8588 102.981 13.2848 102.319 12.8836L100.245 16.3044ZM100.249 16.3713L100.899 17.5413L104.395 15.5987L103.745 14.4287L100.249 16.3713ZM100.896 17.5362C100.895 17.5351 100.88 17.5068 100.866 17.4527C100.851 17.3968 100.84 17.3238 100.843 17.2396L104.841 17.3824C104.865 16.7167 104.68 16.114 104.398 15.6038L100.896 17.5362ZM100.843 17.237C100.849 17.097 100.883 16.9272 100.967 16.7543C101.051 16.5825 101.16 16.4583 101.254 16.3775L103.858 19.4145C104.452 18.9051 104.811 18.1915 104.841 17.385L100.843 17.237ZM101.261 16.3721C101.589 16.0931 101.876 16.117 101.789 16.117V20.117C102.378 20.117 103.176 19.9935 103.851 19.4199L101.261 16.3721ZM101.789 16.117C101.715 16.117 101.843 16.1018 102.035 16.2245L99.8789 19.5935C100.504 19.9936 101.187 20.117 101.789 20.117V16.117ZM102.066 16.2449C102.134 16.2897 102.169 16.3281 102.178 16.3384C102.186 16.3479 102.172 16.3342 102.144 16.2834L98.6521 18.2346C98.9198 18.7136 99.3 19.208 99.8476 19.5731L102.066 16.2449ZM102.154 16.302L100.971 14.131L97.4588 16.045L98.6418 18.216L102.154 16.302ZM100.971 14.1303C100.698 13.6305 100.254 13.1353 99.5881 12.8547L98.0359 16.5413C97.6989 16.3994 97.5238 16.1642 97.4592 16.0457L100.971 14.1303ZM99.7064 12.9091C99.2242 12.668 98.7252 12.581 98.266 12.581V16.581C98.2228 16.581 98.0879 16.572 97.9176 16.4869L99.7064 12.9091ZM98.266 12.581H97.551V16.581H98.266V12.581ZM95.551 14.581V16.908H99.551V14.581H95.551ZM95.551 16.908C95.551 16.9273 95.5482 16.8779 95.5789 16.7858C95.612 16.6866 95.6754 16.5648 95.7801 16.4509L98.7239 19.1591C99.3537 18.4745 99.551 17.6383 99.551 16.908H95.551ZM95.808 16.4212C95.9481 16.2751 96.1022 16.1914 96.2212 16.15C96.3297 16.1123 96.3861 16.117 96.355 16.117V20.117C97.0842 20.117 97.993 19.9224 98.696 19.1888L95.808 16.4212ZM97.551 14.891H99.137V10.891H97.551V14.891ZM99.137 14.891C99.8183 14.891 100.664 14.7626 101.39 14.218L98.99 11.018C99.1137 10.9252 99.2143 10.8942 99.2428 10.8868C99.268 10.8802 99.24 10.891 99.137 10.891V14.891ZM101.39 14.218C102.264 13.5623 102.554 12.6046 102.554 11.773H98.554C98.554 11.7558 98.5564 11.641 98.6262 11.479C98.702 11.303 98.8289 11.1388 98.99 11.018L101.39 14.218ZM102.554 11.773C102.554 10.921 102.24 9.99125 101.39 9.354L98.99 12.554C98.8427 12.4436 98.7155 12.2878 98.6354 12.1075C98.5604 11.9388 98.554 11.8111 98.554 11.773H102.554ZM101.426 9.38136C100.695 8.80734 99.8346 8.668 99.137 8.668V12.668C99.2337 12.668 99.2538 12.6786 99.2205 12.6696C99.1828 12.6593 99.078 12.6238 98.9544 12.5266L101.426 9.38136ZM99.137 8.668H97.551V12.668H99.137V8.668ZM95.551 10.668V12.891H99.551V10.668H95.551ZM105.56 17.688L104.117 19.0731L104.145 19.1025L104.175 19.1308L105.56 17.688ZM105.56 9.16L106.974 10.5742L106.974 10.5742L105.56 9.16ZM111.605 10.447L113.019 11.8612L113.038 11.8421L113.057 11.8225L111.605 10.447ZM107.536 10.681V8.681H105.536V10.681H107.536ZM107.536 12.423H105.536V14.423H107.536V12.423ZM111.306 12.657L109.892 14.0712L109.911 14.0903L109.93 14.1089L111.306 12.657ZM111.306 14.035L109.93 12.5831L109.911 12.6017L109.892 12.6208L111.306 14.035ZM107.536 14.269V12.269H105.536V14.269H107.536ZM107.536 16.154H105.536V18.154H107.536V16.154ZM111.605 16.401L110.153 17.7765L110.171 17.7961L110.191 17.8152L111.605 16.401ZM106.496 16C106.458 16 106.499 15.9947 106.589 16.0246C106.687 16.0574 106.819 16.1248 106.945 16.2452L104.175 19.1308C104.88 19.8081 105.76 20 106.496 20V16ZM107.003 16.3029C107.118 16.4234 107.186 16.5527 107.22 16.6543C107.252 16.7476 107.248 16.7942 107.248 16.765H103.248C103.248 17.5062 103.447 18.375 104.117 19.0731L107.003 16.3029ZM107.248 16.765V10.07H103.248V16.765H107.248ZM107.248 10.07C107.248 10.0399 107.252 10.0913 107.218 10.1921C107.18 10.3023 107.104 10.4438 106.974 10.5742L104.146 7.74579C103.445 8.44655 103.248 9.33446 103.248 10.07H107.248ZM106.974 10.5742C106.852 10.6958 106.719 10.7685 106.612 10.8056C106.515 10.8395 106.465 10.835 106.496 10.835V6.835C105.739 6.835 104.848 7.04314 104.146 7.74579L106.974 10.5742ZM106.496 10.835H110.903V6.835H106.496V10.835ZM110.903 10.835C110.898 10.835 110.812 10.8351 110.68 10.7909C110.537 10.7434 110.357 10.6495 110.191 10.4832L113.019 7.65479C112.356 6.99143 111.523 6.835 110.903 6.835V10.835ZM110.191 10.4832C109.859 10.1516 109.839 9.79695 109.839 9.745H113.839C113.839 9.10372 113.663 8.29843 113.019 7.65479L110.191 10.4832ZM109.839 9.745C109.839 9.71327 109.852 9.38934 110.153 9.07151L113.057 11.8225C113.67 11.1753 113.839 10.3834 113.839 9.745H109.839ZM110.191 9.03279C110.357 8.86646 110.537 8.7726 110.68 8.72513C110.812 8.68089 110.898 8.681 110.903 8.681V12.681C111.523 12.681 112.356 12.5246 113.019 11.8612L110.191 9.03279ZM110.903 8.681H107.536V12.681H110.903V8.681ZM105.536 10.681V12.423H109.536V10.681H105.536ZM107.536 14.423H110.617V10.423H107.536V14.423ZM110.617 14.423C110.593 14.423 110.233 14.413 109.892 14.0712L112.72 11.2428C112.066 10.589 111.247 10.423 110.617 10.423V14.423ZM109.93 14.1089C109.768 13.9552 109.665 13.7787 109.608 13.6212C109.556 13.474 109.553 13.3706 109.553 13.346H113.553C113.553 12.6863 113.366 11.8536 112.681 11.2051L109.93 14.1089ZM109.553 13.346C109.553 13.3214 109.556 13.218 109.608 13.0708C109.665 12.9133 109.768 12.7368 109.93 12.5831L112.681 15.4869C113.366 14.8384 113.553 14.0057 113.553 13.346H109.553ZM109.892 12.6208C110.233 12.279 110.593 12.269 110.617 12.269V16.269C111.247 16.269 112.066 16.103 112.72 15.4492L109.892 12.6208ZM110.617 12.269H107.536V16.269H110.617V12.269ZM105.536 14.269V16.154H109.536V14.269H105.536ZM107.536 18.154H110.903V14.154H107.536V18.154ZM110.903 18.154C110.878 18.154 110.499 18.1422 110.153 17.7765L113.057 15.0255C112.398 14.3305 111.551 14.154 110.903 14.154V18.154ZM110.191 17.8152C109.859 17.4836 109.839 17.1289 109.839 17.077H113.839C113.839 16.4357 113.663 15.6304 113.019 14.9868L110.191 17.8152ZM109.839 17.077C109.839 17.0531 109.849 16.6935 110.191 16.3518L113.019 19.1802C113.673 18.5265 113.839 17.7076 113.839 17.077H109.839ZM110.191 16.3518C110.357 16.1855 110.537 16.0916 110.68 16.0441C110.812 15.9999 110.898 16 110.903 16V20C111.523 20 112.356 19.8436 113.019 19.1802L110.191 16.3518ZM110.903 16H106.496V20H110.903V16Z" fill="black" mask="url(#path-1-outside-1_19_185)"/>
</g>
<g id="Frame" clip-path="url(#clip1_19_185)">
<path id="Vector" d="M-76.3069 245.521L-221.658 100.17L-168.653 -98.1848L-23.3018 47.1661L-76.3069 245.521Z" stroke="black" stroke-opacity="0.1" stroke-miterlimit="10" stroke-linejoin="round"/>
<path id="Vector_2" d="M-168.652 -98.184L-23.3018 47.1661L-76.3069 245.521L-274.869 298.733L-420.219 153.383L-367.007 -45.1788L-168.652 -98.184Z" stroke="black" stroke-opacity="0.1" stroke-miterlimit="10" stroke-linejoin="round"/>
<path id="Vector_3" d="M-23.3038 47.164L-221.659 100.17L-274.871 298.731L-76.309 245.519L-23.3038 47.164Z" stroke="black" stroke-opacity="0.1" stroke-miterlimit="10" stroke-linejoin="round"/>
</g>
</g>
<defs>
<clipPath id="clip0_19_185">
<rect width="1440" height="3628" fill="white" transform="translate(-211 -285)"/>
</clipPath>
<clipPath id="clip1_19_185">
<rect width="415.797" height="360.162" fill="white" transform="translate(-241.327 -175) rotate(45)"/>
</clipPath>
</defs>
</svg>
