<svg width="111" height="28" viewBox="0 0 111 28" fill="none" xmlns="http://www.w3.org/2000/svg">
<mask id="path-1-outside-1_19_189" maskUnits="userSpaceOnUse" x="-2" y="6" width="115" height="15" fill="black">
<rect fill="white" x="-2" y="6" width="115" height="15"/>
<path d="M1.937 18.117C1.59033 18.117 1.32167 18.0217 1.131 17.831C0.949 17.6403 0.858 17.3717 0.858 17.025V9.81C0.858 9.45467 0.957667 9.186 1.157 9.004C1.35633 8.81333 1.638 8.718 2.002 8.718C2.30533 8.718 2.54367 8.77867 2.717 8.9C2.899 9.01267 3.06367 9.20333 3.211 9.472L6.006 14.49H5.551L8.333 9.472C8.489 9.20333 8.65367 9.01267 8.827 8.9C9.009 8.77867 9.25167 8.718 9.555 8.718C9.90167 8.718 10.166 8.81333 10.348 9.004C10.5387 9.186 10.634 9.45467 10.634 9.81V17.025C10.634 17.3717 10.543 17.6403 10.361 17.831C10.179 18.0217 9.91033 18.117 9.555 18.117C9.20833 18.117 8.93967 18.0217 8.749 17.831C8.567 17.6403 8.476 17.3717 8.476 17.025V12.553H8.749L6.656 16.193C6.53467 16.3837 6.40467 16.5267 6.266 16.622C6.136 16.7173 5.95833 16.765 5.733 16.765C5.51633 16.765 5.33867 16.7173 5.2 16.622C5.06133 16.5267 4.93567 16.3837 4.823 16.193L2.717 12.54H3.016V17.025C3.016 17.3717 2.925 17.6403 2.743 17.831C2.561 18.0217 2.29233 18.117 1.937 18.117ZM13.6603 18.117C13.3916 18.117 13.1663 18.0563 12.9843 17.935C12.8023 17.805 12.6896 17.6317 12.6463 17.415C12.6029 17.1897 12.6419 16.9383 12.7633 16.661L16.0003 9.693C16.1563 9.355 16.3469 9.108 16.5723 8.952C16.8063 8.796 17.0706 8.718 17.3653 8.718C17.6599 8.718 17.9156 8.796 18.1323 8.952C18.3576 9.108 18.5526 9.355 18.7173 9.693L21.9543 16.661C22.0929 16.9383 22.1406 17.1897 22.0973 17.415C22.0626 17.6403 21.9543 17.8137 21.7723 17.935C21.5989 18.0563 21.3823 18.117 21.1223 18.117C20.7756 18.117 20.5069 18.039 20.3163 17.883C20.1343 17.727 19.9696 17.4757 19.8223 17.129L19.1203 15.478L20.0303 16.141H14.6743L15.5973 15.478L14.8953 17.129C14.7393 17.4757 14.5789 17.727 14.4143 17.883C14.2496 18.039 13.9983 18.117 13.6603 18.117ZM17.3393 11.331L15.8313 14.932L15.4673 14.308H19.2503L18.8863 14.932L17.3653 11.331H17.3393ZM26.382 18.117C26.0006 18.117 25.706 18.013 25.498 17.805C25.29 17.5883 25.186 17.2893 25.186 16.908V10.785H23.145C22.8243 10.785 22.5773 10.7027 22.404 10.538C22.2393 10.3647 22.157 10.122 22.157 9.81C22.157 9.48933 22.2393 9.24667 22.404 9.082C22.5773 8.91733 22.8243 8.835 23.145 8.835H29.619C29.9396 8.835 30.1823 8.91733 30.347 9.082C30.5203 9.24667 30.607 9.48933 30.607 9.81C30.607 10.122 30.5203 10.3647 30.347 10.538C30.1823 10.7027 29.9396 10.785 29.619 10.785H27.578V16.908C27.578 17.2893 27.4783 17.5883 27.279 17.805C27.0796 18.013 26.7806 18.117 26.382 18.117ZM33.5002 18.117C33.1189 18.117 32.8242 18.013 32.6162 17.805C32.4082 17.5883 32.3042 17.285 32.3042 16.895V9.94C32.3042 9.54133 32.4082 9.238 32.6162 9.03C32.8242 8.822 33.1189 8.718 33.5002 8.718C33.8902 8.718 34.1849 8.822 34.3842 9.03C34.5922 9.238 34.6962 9.54133 34.6962 9.94V12.371H38.4792V9.94C38.4792 9.54133 38.5789 9.238 38.7782 9.03C38.9862 8.822 39.2852 8.718 39.6752 8.718C40.0565 8.718 40.3469 8.822 40.5462 9.03C40.7542 9.238 40.8582 9.54133 40.8582 9.94V16.895C40.8582 17.285 40.7542 17.5883 40.5462 17.805C40.3469 18.013 40.0565 18.117 39.6752 18.117C39.2852 18.117 38.9862 18.013 38.7782 17.805C38.5789 17.5883 38.4792 17.285 38.4792 16.895V14.334H34.6962V16.895C34.6962 17.285 34.5965 17.5883 34.3972 17.805C34.1979 18.013 33.8989 18.117 33.5002 18.117ZM47.4379 18.117C47.1086 18.117 46.8399 18.0477 46.6319 17.909C46.4326 17.7703 46.2636 17.5493 46.1249 17.246L42.9789 10.304C42.8402 10.0007 42.7969 9.72767 42.8489 9.485C42.9009 9.24233 43.0222 9.056 43.2129 8.926C43.4036 8.78733 43.6419 8.718 43.9279 8.718C44.2832 8.718 44.5476 8.796 44.7209 8.952C44.9029 9.108 45.0589 9.33767 45.1889 9.641L47.8409 15.777H47.1129L49.7649 9.628C49.8949 9.32467 50.0509 9.09933 50.2329 8.952C50.4149 8.796 50.6706 8.718 50.9999 8.718C51.2686 8.718 51.4939 8.78733 51.6759 8.926C51.8579 9.056 51.9706 9.24233 52.0139 9.485C52.0659 9.72767 52.0226 10.0007 51.8839 10.304L48.7249 17.246C48.5949 17.5493 48.4302 17.7703 48.2309 17.909C48.0316 18.0477 47.7672 18.117 47.4379 18.117ZM55.2404 18C54.833 18 54.521 17.896 54.3044 17.688C54.0964 17.4713 53.9924 17.1637 53.9924 16.765V10.07C53.9924 9.67133 54.0964 9.368 54.3044 9.16C54.521 8.94333 54.833 8.835 55.2404 8.835H59.6474C59.9594 8.835 60.1934 8.913 60.3494 9.069C60.5054 9.225 60.5834 9.45033 60.5834 9.745C60.5834 10.0483 60.5054 10.2823 60.3494 10.447C60.1934 10.603 59.9594 10.681 59.6474 10.681H56.2804V12.423H59.3614C59.6647 12.423 59.8944 12.501 60.0504 12.657C60.215 12.813 60.2974 13.0427 60.2974 13.346C60.2974 13.6493 60.215 13.879 60.0504 14.035C59.8944 14.191 59.6647 14.269 59.3614 14.269H56.2804V16.154H59.6474C59.9594 16.154 60.1934 16.2363 60.3494 16.401C60.5054 16.557 60.5834 16.7823 60.5834 17.077C60.5834 17.3803 60.5054 17.61 60.3494 17.766C60.1934 17.922 59.9594 18 59.6474 18H55.2404ZM64.0057 18.117C63.6417 18.117 63.3644 18.0217 63.1737 17.831C62.983 17.6403 62.8877 17.3587 62.8877 16.986V9.901C62.8877 9.51967 62.983 9.22933 63.1737 9.03C63.3644 8.822 63.6157 8.718 63.9277 8.718C64.205 8.718 64.4217 8.77 64.5777 8.874C64.7337 8.978 64.907 9.15133 65.0977 9.394L69.2187 14.542H68.8547V9.836C68.8547 9.472 68.9457 9.19467 69.1277 9.004C69.3184 8.81333 69.5957 8.718 69.9597 8.718C70.3237 8.718 70.5967 8.81333 70.7787 9.004C70.9694 9.19467 71.0647 9.472 71.0647 9.836V17.038C71.0647 17.3673 70.978 17.6317 70.8047 17.831C70.6314 18.0217 70.3974 18.117 70.1027 18.117C69.808 18.117 69.574 18.065 69.4007 17.961C69.236 17.8483 69.0584 17.675 68.8677 17.441L64.7467 12.28H65.1107V16.986C65.1107 17.3587 65.0154 17.6403 64.8247 17.831C64.6427 18.0217 64.3697 18.117 64.0057 18.117ZM77.0033 18.117C76.6219 18.117 76.3273 18.013 76.1193 17.805C75.9113 17.5883 75.8073 17.2893 75.8073 16.908V10.785H73.7663C73.4456 10.785 73.1986 10.7027 73.0253 10.538C72.8606 10.3647 72.7783 10.122 72.7783 9.81C72.7783 9.48933 72.8606 9.24667 73.0253 9.082C73.1986 8.91733 73.4456 8.835 73.7663 8.835H80.2403C80.5609 8.835 80.8036 8.91733 80.9683 9.082C81.1416 9.24667 81.2283 9.48933 81.2283 9.81C81.2283 10.122 81.1416 10.3647 80.9683 10.538C80.8036 10.7027 80.5609 10.785 80.2403 10.785H78.1993V16.908C78.1993 17.2893 78.0996 17.5883 77.9003 17.805C77.7009 18.013 77.4019 18.117 77.0033 18.117ZM86.9815 18.143C86.3141 18.143 85.7248 18.0607 85.2135 17.896C84.7021 17.7227 84.2688 17.467 83.9135 17.129C83.5668 16.791 83.3025 16.3707 83.1205 15.868C82.9471 15.3567 82.8605 14.7673 82.8605 14.1V9.927C82.8605 9.52833 82.9645 9.22933 83.1725 9.03C83.3805 8.822 83.6751 8.718 84.0565 8.718C84.4465 8.718 84.7411 8.822 84.9405 9.03C85.1485 9.22933 85.2525 9.52833 85.2525 9.927V14.126C85.2525 14.7933 85.3998 15.296 85.6945 15.634C85.9891 15.972 86.4181 16.141 86.9815 16.141C87.5361 16.141 87.9608 15.972 88.2555 15.634C88.5501 15.296 88.6975 14.7933 88.6975 14.126V9.927C88.6975 9.52833 88.7971 9.22933 88.9965 9.03C89.2045 8.822 89.4991 8.718 89.8805 8.718C90.2618 8.718 90.5521 8.822 90.7515 9.03C90.9508 9.22933 91.0505 9.52833 91.0505 9.927V14.1C91.0505 14.9927 90.8945 15.7423 90.5825 16.349C90.2791 16.947 89.8241 17.3977 89.2175 17.701C88.6108 17.9957 87.8655 18.143 86.9815 18.143ZM94.7561 18.117C94.3748 18.117 94.0801 18.013 93.8721 17.805C93.6641 17.5883 93.5601 17.2893 93.5601 16.908V10.044C93.5601 9.654 93.6641 9.355 93.8721 9.147C94.0888 8.939 94.3878 8.835 94.7691 8.835H97.9671C99.0071 8.835 99.8088 9.09067 100.372 9.602C100.944 10.1047 101.23 10.8067 101.23 11.708C101.23 12.2887 101.1 12.7957 100.84 13.229C100.589 13.6537 100.22 13.983 99.7351 14.217C99.2584 14.4423 98.6691 14.555 97.9671 14.555L98.0711 14.321H98.6951C99.0678 14.321 99.3971 14.412 99.6831 14.594C99.9691 14.7673 100.207 15.036 100.398 15.4L101.048 16.57C101.187 16.8213 101.252 17.0683 101.243 17.311C101.234 17.545 101.139 17.74 100.957 17.896C100.784 18.0433 100.528 18.117 100.19 18.117C99.8521 18.117 99.5748 18.0477 99.3581 17.909C99.1501 17.7703 98.9638 17.5537 98.7991 17.259L97.6161 15.088C97.5121 14.8973 97.3778 14.7673 97.2131 14.698C97.0571 14.62 96.8751 14.581 96.6671 14.581H95.9521V16.908C95.9521 17.2893 95.8524 17.5883 95.6531 17.805C95.4538 18.013 95.1548 18.117 94.7561 18.117ZM95.9521 12.891H97.5381C97.9974 12.891 98.3484 12.8 98.5911 12.618C98.8338 12.436 98.9551 12.1543 98.9551 11.773C98.9551 11.409 98.8338 11.136 98.5911 10.954C98.3484 10.7633 97.9974 10.668 97.5381 10.668H95.9521V12.891ZM104.897 18C104.489 18 104.177 17.896 103.961 17.688C103.753 17.4713 103.649 17.1637 103.649 16.765V10.07C103.649 9.67133 103.753 9.368 103.961 9.16C104.177 8.94333 104.489 8.835 104.897 8.835H109.304C109.616 8.835 109.85 8.913 110.006 9.069C110.162 9.225 110.24 9.45033 110.24 9.745C110.24 10.0483 110.162 10.2823 110.006 10.447C109.85 10.603 109.616 10.681 109.304 10.681H105.937V12.423H109.018C109.321 12.423 109.551 12.501 109.707 12.657C109.871 12.813 109.954 13.0427 109.954 13.346C109.954 13.6493 109.871 13.879 109.707 14.035C109.551 14.191 109.321 14.269 109.018 14.269H105.937V16.154H109.304C109.616 16.154 109.85 16.2363 110.006 16.401C110.162 16.557 110.24 16.7823 110.24 17.077C110.24 17.3803 110.162 17.61 110.006 17.766C109.85 17.922 109.616 18 109.304 18H104.897Z"/>
</mask>
<path d="M1.131 17.831L-0.315711 19.212L-0.299656 19.2288L-0.283214 19.2452L1.131 17.831ZM1.157 9.004L2.50554 10.481L2.52268 10.4653L2.53945 10.4493L1.157 9.004ZM2.717 8.9L1.57008 10.5385L1.61631 10.5708L1.66429 10.6005L2.717 8.9ZM3.211 9.472L1.45734 10.4337L1.46375 10.4452L3.211 9.472ZM6.006 14.49V16.49H9.40931L7.75325 13.5168L6.006 14.49ZM5.551 14.49L3.80183 13.5203L2.15539 16.49H5.551V14.49ZM8.333 9.472L6.60342 8.46773L6.59346 8.48489L6.58383 8.50225L8.333 9.472ZM8.827 8.9L9.91698 10.5769L9.92673 10.5705L9.9364 10.5641L8.827 8.9ZM10.348 9.004L8.90129 10.385L8.9334 10.4186L8.96705 10.4507L10.348 9.004ZM10.361 17.831L11.8077 19.212L11.8077 19.212L10.361 17.831ZM8.749 17.831L7.30229 19.212L7.31835 19.2288L7.33479 19.2452L8.749 17.831ZM8.476 12.553V10.553H6.476V12.553H8.476ZM8.749 12.553L10.4828 13.5499L12.2061 10.553H8.749V12.553ZM6.656 16.193L8.34332 17.2668L8.36743 17.2289L8.38981 17.1899L6.656 16.193ZM6.266 16.622L5.13294 14.9739L5.10784 14.9912L5.08327 15.0092L6.266 16.622ZM4.823 16.193L3.09032 17.1919L3.09568 17.2012L3.10115 17.2105L4.823 16.193ZM2.717 12.54V10.54H-0.744589L0.984321 13.5389L2.717 12.54ZM3.016 12.54H5.016V10.54H3.016V12.54ZM2.743 17.831L1.29629 16.45L2.743 17.831ZM1.937 16.117C1.94392 16.117 2.02319 16.1177 2.14432 16.1606C2.27394 16.2066 2.41819 16.2898 2.54521 16.4168L-0.283214 19.2452C0.38145 19.9099 1.21844 20.117 1.937 20.117V16.117ZM2.57771 16.45C2.70303 16.5813 2.77976 16.7245 2.82054 16.8449C2.83974 16.9016 2.84904 16.9473 2.85354 16.9778C2.85801 17.008 2.858 17.0247 2.858 17.025H-1.142C-1.142 17.7189 -0.953534 18.5438 -0.315711 19.212L2.57771 16.45ZM2.858 17.025V9.81H-1.142V17.025H2.858ZM2.858 9.81C2.858 9.81489 2.85778 9.9031 2.80788 10.0376C2.75394 10.183 2.65559 10.344 2.50554 10.481L-0.19154 7.52703C-0.926506 8.19809 -1.142 9.07993 -1.142 9.81H2.858ZM2.53945 10.4493C2.41169 10.5715 2.27309 10.6453 2.15894 10.6839C2.05291 10.7198 1.99097 10.718 2.002 10.718V6.718C1.29248 6.718 0.452818 6.90994 -0.225446 7.55872L2.53945 10.4493ZM2.002 10.718C2.06575 10.718 1.84993 10.7344 1.57008 10.5385L3.86392 7.26154C3.2374 6.82297 2.54491 6.718 2.002 6.718V10.718ZM1.66429 10.6005C1.55515 10.533 1.49094 10.4667 1.46335 10.4347C1.43656 10.4037 1.43737 10.3972 1.45738 10.4337L4.96462 8.51033C4.7187 8.06188 4.34492 7.55555 3.76971 7.19947L1.66429 10.6005ZM1.46375 10.4452L4.25875 15.4632L7.75325 13.5168L4.95825 8.49879L1.46375 10.4452ZM6.006 12.49H5.551V16.49H6.006V12.49ZM7.30017 15.4597L10.0822 10.4417L6.58383 8.50225L3.80183 13.5203L7.30017 15.4597ZM10.0626 10.4763C10.092 10.4256 10.1022 10.4173 10.0871 10.4347C10.0722 10.452 10.0183 10.511 9.91698 10.5769L7.73702 7.22311C7.20171 7.57107 6.84442 8.05268 6.60342 8.46773L10.0626 10.4763ZM9.9364 10.5641C9.68546 10.7314 9.49893 10.718 9.555 10.718V6.718C9.00441 6.718 8.33254 6.82594 7.7176 7.2359L9.9364 10.5641ZM9.555 10.718C9.54909 10.718 9.4643 10.7176 9.33472 10.6709C9.19524 10.6206 9.03816 10.5283 8.90129 10.385L11.7947 7.62305C11.1268 6.9233 10.2681 6.718 9.555 6.718V10.718ZM8.96705 10.4507C8.81768 10.3081 8.726 10.1471 8.67764 10.0108C8.65501 9.94704 8.64423 9.89558 8.63907 9.8618C8.63647 9.84484 8.63522 9.83185 8.63461 9.82331C8.634 9.81477 8.634 9.81021 8.634 9.81H12.634C12.634 9.10531 12.438 8.23408 11.729 7.55729L8.96705 10.4507ZM8.634 9.81V17.025H12.634V9.81H8.634ZM8.634 17.025C8.634 17.0247 8.63399 17.008 8.63846 16.9778C8.64296 16.9473 8.65226 16.9016 8.67146 16.8449C8.71224 16.7245 8.78897 16.5813 8.91429 16.4501L11.8077 19.212C12.4455 18.5438 12.634 17.7189 12.634 17.025H8.634ZM8.91429 16.45C9.05687 16.3007 9.21791 16.209 9.35418 16.1606C9.41796 16.138 9.46942 16.1272 9.5032 16.1221C9.52016 16.1195 9.53315 16.1182 9.54169 16.1176C9.55023 16.117 9.55479 16.117 9.555 16.117V20.117C10.2597 20.117 11.1309 19.921 11.8077 19.212L8.91429 16.45ZM9.555 16.117C9.56192 16.117 9.64119 16.1177 9.76232 16.1606C9.89194 16.2066 10.0362 16.2898 10.1632 16.4168L7.33479 19.2452C7.99945 19.9099 8.83644 20.117 9.555 20.117V16.117ZM10.1957 16.45C10.321 16.5813 10.3978 16.7245 10.4385 16.8449C10.4577 16.9016 10.467 16.9473 10.4715 16.9778C10.476 17.008 10.476 17.0247 10.476 17.025H6.476C6.476 17.7189 6.66447 18.5438 7.30229 19.212L10.1957 16.45ZM10.476 17.025V12.553H6.476V17.025H10.476ZM8.476 14.553H8.749V10.553H8.476V14.553ZM7.01519 11.5561L4.92219 15.1961L8.38981 17.1899L10.4828 13.5499L7.01519 11.5561ZM4.96868 15.1192C4.95928 15.134 4.96426 15.1236 4.98762 15.0979C5.01123 15.0719 5.0583 15.0252 5.13294 14.9739L7.39906 18.2701C7.82113 17.9799 8.12443 17.6107 8.34332 17.2668L4.96868 15.1192ZM5.08327 15.0092C5.40884 14.7704 5.69772 14.765 5.733 14.765V18.765C6.21895 18.765 6.86316 18.6642 7.44873 18.2348L5.08327 15.0092ZM5.733 14.765C5.80514 14.765 6.0542 14.7822 6.33306 14.9739L4.06694 18.2701C4.62314 18.6525 5.22753 18.765 5.733 18.765V14.765ZM6.33306 14.9739C6.49738 15.0869 6.55419 15.1913 6.54485 15.1755L3.10115 17.2105C3.31714 17.576 3.62528 17.9664 4.06694 18.2701L6.33306 14.9739ZM6.55568 15.1941L4.44968 11.5411L0.984321 13.5389L3.09032 17.1919L6.55568 15.1941ZM2.717 14.54H3.016V10.54H2.717V14.54ZM1.016 12.54V17.025H5.016V12.54H1.016ZM1.016 17.025C1.016 17.0247 1.01599 17.008 1.02046 16.9778C1.02496 16.9473 1.03426 16.9016 1.05346 16.8449C1.09424 16.7245 1.17097 16.5813 1.29629 16.45L4.18971 19.212C4.82753 18.5438 5.016 17.7189 5.016 17.025H1.016ZM1.29629 16.45C1.43887 16.3007 1.59991 16.209 1.73618 16.1606C1.79996 16.138 1.85142 16.1272 1.8852 16.1221C1.90216 16.1195 1.91515 16.1182 1.92369 16.1176C1.93223 16.117 1.93679 16.117 1.937 16.117V20.117C2.64169 20.117 3.51293 19.921 4.18971 19.212L1.29629 16.45ZM12.9843 17.935L11.8218 19.5625L11.848 19.5812L11.8749 19.5991L12.9843 17.935ZM12.6463 17.415L10.6822 17.7927L10.6836 17.8L10.6851 17.8072L12.6463 17.415ZM12.7633 16.661L10.9494 15.8184L10.94 15.8388L10.9309 15.8594L12.7633 16.661ZM16.0003 9.693L17.8141 10.5356L17.8162 10.5311L16.0003 9.693ZM16.5723 8.952L15.4629 7.2879L15.4483 7.29763L15.4338 7.30762L16.5723 8.952ZM18.1323 8.952L16.9636 10.5751L16.9786 10.5859L16.9938 10.5964L18.1323 8.952ZM18.7173 9.693L20.5311 8.85038L20.5233 8.83365L20.5152 8.81706L18.7173 9.693ZM21.9543 16.661L20.1404 17.5036L20.1525 17.5297L20.1654 17.5554L21.9543 16.661ZM22.0973 17.415L20.1332 17.0373L20.1262 17.074L20.1205 17.1109L22.0973 17.415ZM21.7723 17.935L20.6629 16.2709L20.6439 16.2835L20.6253 16.2965L21.7723 17.935ZM20.3163 17.883L19.0147 19.4015L19.0321 19.4164L19.0498 19.4309L20.3163 17.883ZM19.8223 17.129L21.6629 16.3467L21.6628 16.3464L19.8223 17.129ZM19.1203 15.478L20.298 13.8615L14.4471 9.59878L17.2797 16.2606L19.1203 15.478ZM20.0303 16.141V18.141H26.1718L21.208 14.5245L20.0303 16.141ZM14.6743 16.141L13.5075 14.5166L8.46177 18.141H14.6743V16.141ZM15.5973 15.478L17.4378 16.2606L20.2336 9.68514L14.4305 13.8536L15.5973 15.478ZM14.8953 17.129L16.7191 17.9497L16.7276 17.9307L16.7358 17.9116L14.8953 17.129ZM14.4143 17.883L13.0388 16.4311H13.0388L14.4143 17.883ZM17.3393 11.331V9.331H16.0085L15.4945 10.5585L17.3393 11.331ZM15.8313 14.932L14.1037 15.9397L16.1258 19.4063L17.676 15.7045L15.8313 14.932ZM15.4673 14.308V12.308H11.9852L13.7397 15.3157L15.4673 14.308ZM19.2503 14.308L20.9778 15.3157L22.7323 12.308H19.2503V14.308ZM18.8863 14.932L17.0439 15.7102L18.5994 19.393L20.6138 15.9397L18.8863 14.932ZM17.3653 11.331L19.2077 10.5528L18.6916 9.331H17.3653V11.331ZM13.6603 16.117C13.6956 16.117 13.8789 16.1278 14.0937 16.2709L11.8749 19.5991C12.4536 19.9849 13.0875 20.117 13.6603 20.117V16.117ZM14.1467 16.3075C14.2425 16.376 14.3493 16.4778 14.4401 16.6175C14.5312 16.7576 14.5828 16.8999 14.6074 17.0228L10.6851 17.8072C10.8294 18.5289 11.2319 19.1411 11.8218 19.5625L14.1467 16.3075ZM14.6103 17.0373C14.6643 17.3184 14.5853 17.486 14.5956 17.4626L10.9309 15.8594C10.6985 16.3906 10.5415 17.0609 10.6822 17.7927L14.6103 17.0373ZM14.5771 17.5036L17.8141 10.5356L14.1864 8.85038L10.9494 15.8184L14.5771 17.5036ZM17.8162 10.5311C17.8429 10.4731 17.8554 10.4608 17.8434 10.4764C17.8302 10.4935 17.7887 10.5424 17.7107 10.5964L15.4338 7.30762C14.8277 7.72725 14.4385 8.3043 14.1843 8.85488L17.8162 10.5311ZM17.6817 10.6161C17.6348 10.6473 17.5767 10.6757 17.512 10.6947C17.4482 10.7136 17.3963 10.718 17.3653 10.718V6.718C16.6956 6.718 16.0416 6.90209 15.4629 7.2879L17.6817 10.6161ZM17.3653 10.718C17.3349 10.718 17.274 10.7137 17.1944 10.6895C17.1129 10.6646 17.0333 10.6252 16.9636 10.5751L19.3009 7.32893C18.7086 6.90248 18.0337 6.718 17.3653 6.718V10.718ZM16.9938 10.5964C16.9213 10.5462 16.8853 10.5031 16.8777 10.4935C16.8712 10.4852 16.888 10.5048 16.9193 10.5689L20.5152 8.81706C20.2536 8.28012 19.8638 7.71822 19.2707 7.30762L16.9938 10.5964ZM16.9034 10.5356L20.1404 17.5036L23.7681 15.8184L20.5311 8.85038L16.9034 10.5356ZM20.1654 17.5554C20.1759 17.5764 20.0687 17.3731 20.1332 17.0373L24.0613 17.7927C24.2125 17.0062 24.01 16.3003 23.7431 15.7666L20.1654 17.5554ZM20.1205 17.1109C20.1397 16.9862 20.1885 16.8228 20.294 16.654C20.4007 16.4834 20.5345 16.3565 20.6629 16.2709L22.8817 19.5991C23.5528 19.1517 23.958 18.4729 24.074 17.7191L20.1205 17.1109ZM20.6253 16.2965C20.8585 16.1333 21.067 16.117 21.1223 16.117V20.117C21.6975 20.117 22.3394 19.9793 22.9192 19.5735L20.6253 16.2965ZM21.1223 16.117C21.0522 16.117 21.2952 16.0998 21.5827 16.3351L19.0498 19.4309C19.7187 19.9782 20.499 20.117 21.1223 20.117V16.117ZM21.6178 16.3645C21.6604 16.4009 21.6892 16.432 21.7061 16.4519C21.723 16.4717 21.7301 16.4829 21.7292 16.4814C21.7283 16.4801 21.7212 16.4691 21.7092 16.446C21.6972 16.423 21.6815 16.3904 21.6629 16.3467L17.9816 17.9113C18.1876 18.396 18.5025 18.9625 19.0147 19.4015L21.6178 16.3645ZM21.6628 16.3464L20.9608 14.6954L17.2797 16.2606L17.9817 17.9116L21.6628 16.3464ZM17.9425 17.0945L18.8525 17.7575L21.208 14.5245L20.298 13.8615L17.9425 17.0945ZM20.0303 14.141H14.6743V18.141H20.0303V14.141ZM15.8411 17.7654L16.7641 17.1024L14.4305 13.8536L13.5075 14.5166L15.8411 17.7654ZM13.7567 14.6954L13.0547 16.3464L16.7358 17.9116L17.4378 16.2606L13.7567 14.6954ZM13.0714 16.3083C13.0229 16.4161 12.9882 16.4763 12.9719 16.5019C12.9644 16.5136 12.9646 16.5121 12.9736 16.5008C12.9825 16.4896 13.0036 16.4644 13.0388 16.4311L15.7897 19.3349C16.2294 18.9184 16.5187 18.395 16.7191 17.9497L13.0714 16.3083ZM13.0388 16.4311C13.3925 16.096 13.733 16.117 13.6603 16.117V20.117C14.2635 20.117 15.1067 19.982 15.7897 19.3349L13.0388 16.4311ZM15.4945 10.5585L13.9865 14.1595L17.676 15.7045L19.184 12.1035L15.4945 10.5585ZM17.5588 13.9243L17.1948 13.3003L13.7397 15.3157L14.1037 15.9397L17.5588 13.9243ZM15.4673 16.308H19.2503V12.308H15.4673V16.308ZM17.5227 13.3003L17.1587 13.9243L20.6138 15.9397L20.9778 15.3157L17.5227 13.3003ZM20.7287 14.1538L19.2077 10.5528L15.5229 12.1092L17.0439 15.7102L20.7287 14.1538ZM17.3653 9.331H17.3393V13.331H17.3653V9.331ZM25.498 17.805L24.0552 19.1901L24.0693 19.2048L24.0838 19.2192L25.498 17.805ZM25.186 10.785H27.186V8.785H25.186V10.785ZM22.404 10.538L20.954 11.9155L20.9893 11.9527L21.0265 11.988L22.404 10.538ZM22.404 9.082L21.0265 7.632L21.0079 7.64966L20.9898 7.66779L22.404 9.082ZM30.347 9.082L28.9328 10.4962L28.9509 10.5143L28.9695 10.532L30.347 9.082ZM30.347 10.538L31.7612 11.9522L31.7612 11.9522L30.347 10.538ZM27.578 10.785V8.785H25.578V10.785H27.578ZM27.279 17.805L28.723 19.1888L28.737 19.1741L28.7508 19.1591L27.279 17.805ZM26.382 16.117C26.3698 16.117 26.4329 16.115 26.5406 16.153C26.657 16.1941 26.792 16.2706 26.9122 16.3908L24.0838 19.2192C24.7688 19.9042 25.6342 20.117 26.382 20.117V16.117ZM26.9408 16.4199C27.0469 16.5305 27.1156 16.6538 27.153 16.7612C27.1877 16.8612 27.186 16.9193 27.186 16.908H23.186C23.186 17.6603 23.4003 18.5078 24.0552 19.1901L26.9408 16.4199ZM27.186 16.908V10.785H23.186V16.908H27.186ZM25.186 8.785H23.145V12.785H25.186V8.785ZM23.145 8.785C23.158 8.785 23.471 8.79302 23.7815 9.088L21.0265 11.988C21.6836 12.6123 22.4906 12.785 23.145 12.785V8.785ZM23.854 9.1605C23.9852 9.2986 24.0676 9.45056 24.1127 9.58341C24.1551 9.70844 24.157 9.79334 24.157 9.81H20.157C20.157 10.4732 20.3388 11.2679 20.954 11.9155L23.854 9.1605ZM24.157 9.81C24.157 9.81556 24.1518 10.1626 23.8182 10.4962L20.9898 7.66779C20.3268 8.33072 20.157 9.1631 20.157 9.81H24.157ZM23.7815 10.532C23.471 10.827 23.158 10.835 23.145 10.835V6.835C22.4906 6.835 21.6836 7.00769 21.0265 7.632L23.7815 10.532ZM23.145 10.835H29.619V6.835H23.145V10.835ZM29.619 10.835C29.6134 10.835 29.2664 10.8298 28.9328 10.4962L31.7612 7.66779C31.0983 7.00485 30.2659 6.835 29.619 6.835V10.835ZM28.9695 10.532C28.8115 10.3819 28.7122 10.2105 28.6585 10.0602C28.6085 9.92016 28.607 9.82508 28.607 9.81H32.607C32.607 9.13554 32.4171 8.29 31.7245 7.632L28.9695 10.532ZM28.607 9.81C28.607 9.78358 28.6104 9.68797 28.6585 9.55333C28.7095 9.41041 28.7993 9.25722 28.9328 9.12379L31.7612 11.9522C32.4049 11.3085 32.607 10.5005 32.607 9.81H28.607ZM28.9328 9.12379C29.2664 8.79018 29.6134 8.785 29.619 8.785V12.785C30.2659 12.785 31.0983 12.6151 31.7612 11.9522L28.9328 9.12379ZM29.619 8.785H27.578V12.785H29.619V8.785ZM25.578 10.785V16.908H29.578V10.785H25.578ZM25.578 16.908C25.578 16.9273 25.5752 16.8779 25.6059 16.7858C25.6389 16.6866 25.7024 16.5648 25.8071 16.4509L28.7508 19.1591C29.3807 18.4745 29.578 17.6383 29.578 16.908H25.578ZM25.835 16.4212C25.975 16.2751 26.1292 16.1914 26.2482 16.15C26.3566 16.1123 26.4131 16.117 26.382 16.117V20.117C27.1111 20.117 28.0199 19.9224 28.723 19.1888L25.835 16.4212ZM32.6162 17.805L31.1734 19.1901L31.1875 19.2048L31.202 19.2192L32.6162 17.805ZM32.6162 9.03L31.202 7.61579V7.61579L32.6162 9.03ZM34.3842 9.03L32.9402 10.4138L32.9549 10.4292L32.97 10.4442L34.3842 9.03ZM34.6962 12.371H32.6962V14.371H34.6962V12.371ZM38.4792 12.371V14.371H40.4792V12.371H38.4792ZM38.7782 9.03L37.364 7.61579L37.3489 7.63083L37.3342 7.64619L38.7782 9.03ZM40.5462 9.03L39.1022 10.4138L39.1169 10.4292L39.132 10.4442L40.5462 9.03ZM40.5462 17.805L39.1034 16.4199L39.1022 16.4212L40.5462 17.805ZM38.7782 17.805L37.3063 19.1591L37.3345 19.1898L37.364 19.2192L38.7782 17.805ZM38.4792 14.334H40.4792V12.334H38.4792V14.334ZM34.6962 14.334V12.334H32.6962V14.334H34.6962ZM34.3972 17.805L35.8412 19.1888L35.8553 19.1741L35.869 19.1591L34.3972 17.805ZM33.5002 16.117C33.488 16.117 33.5511 16.115 33.6588 16.153C33.7752 16.1941 33.9102 16.2706 34.0304 16.3908L31.202 19.2192C31.887 19.9042 32.7524 20.117 33.5002 20.117V16.117ZM34.059 16.4199C34.1699 16.5355 34.2382 16.6618 34.2741 16.7664C34.3072 16.863 34.3042 16.9154 34.3042 16.895H30.3042C30.3042 17.6416 30.5107 18.4998 31.1734 19.1901L34.059 16.4199ZM34.3042 16.895V9.94H30.3042V16.895H34.3042ZM34.3042 9.94C34.3042 9.90987 34.3086 9.96134 34.2741 10.0621C34.2363 10.1723 34.1608 10.3138 34.0304 10.4442L31.202 7.61579C30.5012 8.31655 30.3042 9.20446 30.3042 9.94H34.3042ZM34.0304 10.4442C33.9102 10.5644 33.7752 10.6409 33.6588 10.682C33.5511 10.72 33.488 10.718 33.5002 10.718V6.718C32.7524 6.718 31.887 6.93079 31.202 7.61579L34.0304 10.4442ZM33.5002 10.718C33.5224 10.718 33.4601 10.7215 33.348 10.682C33.2257 10.6388 33.0751 10.5545 32.9402 10.4138L35.8282 7.64619C35.1329 6.92065 34.2359 6.718 33.5002 6.718V10.718ZM32.97 10.4442C32.8396 10.3138 32.7641 10.1723 32.7263 10.0621C32.6917 9.96134 32.6962 9.90987 32.6962 9.94H36.6962C36.6962 9.20446 36.4992 8.31655 35.7984 7.61579L32.97 10.4442ZM32.6962 9.94V12.371H36.6962V9.94H32.6962ZM34.6962 14.371H38.4792V10.371H34.6962V14.371ZM40.4792 12.371V9.94H36.4792V12.371H40.4792ZM40.4792 9.94C40.4792 9.85658 40.4977 10.1263 40.2222 10.4138L37.3342 7.64619C36.66 8.3497 36.4792 9.22608 36.4792 9.94H40.4792ZM40.1924 10.4442C40.0671 10.5695 39.9288 10.6456 39.8155 10.685C39.7112 10.7213 39.6539 10.718 39.6752 10.718V6.718C38.9337 6.718 38.057 6.92275 37.364 7.61579L40.1924 10.4442ZM39.6752 10.718C39.6883 10.718 39.6201 10.7202 39.5045 10.6788C39.379 10.6339 39.2319 10.5491 39.1022 10.4138L41.9902 7.64619C41.3029 6.92901 40.4177 6.718 39.6752 6.718V10.718ZM39.132 10.4442C39.0016 10.3138 38.9261 10.1723 38.8883 10.0621C38.8537 9.96134 38.8582 9.90987 38.8582 9.94H42.8582C42.8582 9.20446 42.6612 8.31655 41.9604 7.61579L39.132 10.4442ZM38.8582 9.94V16.895H42.8582V9.94H38.8582ZM38.8582 16.895C38.8582 16.9154 38.8552 16.863 38.8883 16.7663C38.9242 16.6618 38.9925 16.5355 39.1034 16.4199L41.989 19.1901C42.6516 18.4998 42.8582 17.6416 42.8582 16.895H38.8582ZM39.1022 16.4212C39.2319 16.2859 39.379 16.2011 39.5045 16.1562C39.6201 16.1148 39.6883 16.117 39.6752 16.117V20.117C40.4177 20.117 41.3029 19.906 41.9902 19.1888L39.1022 16.4212ZM39.6752 16.117C39.6539 16.117 39.7112 16.1137 39.8155 16.15C39.9288 16.1894 40.0671 16.2655 40.1924 16.3908L37.364 19.2192C38.057 19.9122 38.9337 20.117 39.6752 20.117V16.117ZM40.25 16.4509C40.3594 16.5698 40.4224 16.6945 40.454 16.7907C40.4832 16.8794 40.4792 16.9232 40.4792 16.895H36.4792C36.4792 17.6201 36.6693 18.4667 37.3063 19.1591L40.25 16.4509ZM40.4792 16.895V14.334H36.4792V16.895H40.4792ZM38.4792 12.334H34.6962V16.334H38.4792V12.334ZM32.6962 14.334V16.895H36.6962V14.334H32.6962ZM32.6962 16.895C32.6962 16.9232 32.6922 16.8794 32.7214 16.7907C32.753 16.6945 32.816 16.5698 32.9253 16.4509L35.869 19.1591C36.5061 18.4667 36.6962 17.6201 36.6962 16.895H32.6962ZM32.9532 16.4212C33.0932 16.2751 33.2474 16.1914 33.3664 16.15C33.4748 16.1123 33.5313 16.117 33.5002 16.117V20.117C34.2293 20.117 35.1382 19.9224 35.8412 19.1888L32.9532 16.4212ZM46.6319 17.909L45.4898 19.5508L45.506 19.5621L45.5225 19.5731L46.6319 17.909ZM46.1249 17.246L44.3032 18.0716L44.306 18.0775L46.1249 17.246ZM42.9789 10.304L44.8006 9.47845L44.7979 9.47248L42.9789 10.304ZM42.8489 9.485L44.8045 9.90406L42.8489 9.485ZM43.2129 8.926L44.3396 10.5785L44.3647 10.5613L44.3893 10.5435L43.2129 8.926ZM44.7209 8.952L43.383 10.4386L43.401 10.4548L43.4193 10.4705L44.7209 8.952ZM45.1889 9.641L43.3506 10.4288L43.353 10.4345L45.1889 9.641ZM47.8409 15.777V17.777H50.8841L49.6768 14.9835L47.8409 15.777ZM47.1129 15.777L45.2764 14.9849L44.0723 17.777H47.1129V15.777ZM49.7649 9.628L51.6014 10.4201L51.6032 10.4158L49.7649 9.628ZM50.2329 8.952L51.4913 10.5065L51.5132 10.4888L51.5345 10.4705L50.2329 8.952ZM51.6759 8.926L50.4638 10.5169L50.4883 10.5355L50.5134 10.5535L51.6759 8.926ZM52.0139 9.485L50.0451 9.83658L50.0511 9.87043L50.0583 9.90406L52.0139 9.485ZM51.8839 10.304L50.065 9.47248L50.0635 9.47562L51.8839 10.304ZM48.7249 17.246L46.9045 16.4176L46.8954 16.4378L46.8866 16.4582L48.7249 17.246ZM48.2309 17.909L49.373 19.5508L48.2309 17.909ZM47.4379 16.117C47.3801 16.117 47.5313 16.1049 47.7413 16.2449L45.5225 19.5731C46.1485 19.9904 46.8371 20.117 47.4379 20.117V16.117ZM47.774 16.2672C47.8672 16.332 47.921 16.3938 47.9444 16.4244C47.9665 16.4533 47.9629 16.4561 47.9439 16.4145L44.306 18.0775C44.5402 18.59 44.9064 19.145 45.4898 19.5508L47.774 16.2672ZM47.9466 16.4205L44.8006 9.47845L41.1572 11.1295L44.3032 18.0715L47.9466 16.4205ZM44.7979 9.47248C44.7772 9.4273 44.8692 9.60242 44.8045 9.90406L40.8933 9.06594C40.7247 9.85291 40.9033 10.574 41.16 11.1355L44.7979 9.47248ZM44.8045 9.90406C44.7852 9.99437 44.7424 10.1202 44.6549 10.2546C44.5659 10.3913 44.4542 10.5003 44.3396 10.5785L42.0862 7.27354C41.4372 7.71606 41.044 8.36252 40.8933 9.06594L44.8045 9.90406ZM44.3893 10.5435C44.288 10.6171 44.1842 10.664 44.0933 10.6904C44.0058 10.7158 43.9459 10.718 43.9279 10.718V6.718C43.3112 6.718 42.6366 6.87212 42.0366 7.30853L44.3893 10.5435ZM43.9279 10.718C43.9662 10.718 43.9224 10.723 43.8266 10.6947C43.7241 10.6645 43.555 10.5934 43.383 10.4386L46.0588 7.46541C45.3672 6.84292 44.5271 6.718 43.9279 6.718V10.718ZM43.4193 10.4705C43.3565 10.4166 43.3262 10.3742 43.32 10.365C43.3141 10.3564 43.3269 10.3735 43.3506 10.4288L47.0272 8.85316C46.8195 8.36851 46.5075 7.84923 46.0225 7.43349L43.4193 10.4705ZM43.353 10.4345L46.005 16.5705L49.6768 14.9835L47.0248 8.84753L43.353 10.4345ZM47.8409 13.777H47.1129V17.777H47.8409V13.777ZM48.9494 16.5691L51.6014 10.4201L47.9284 8.83595L45.2764 14.9849L48.9494 16.5691ZM51.6032 10.4158C51.6258 10.3632 51.6356 10.3529 51.6238 10.3699C51.6115 10.3877 51.5707 10.4422 51.4913 10.5065L48.9745 7.39751C48.4577 7.81593 48.1354 8.35306 47.9266 8.84016L51.6032 10.4158ZM51.5345 10.4705C51.2383 10.7244 50.9696 10.718 50.9999 10.718V6.718C50.3716 6.718 49.5915 6.86762 48.9313 7.43349L51.5345 10.4705ZM50.9999 10.718C50.9622 10.718 50.8846 10.713 50.7822 10.6816C50.6766 10.6491 50.566 10.5947 50.4638 10.5169L52.888 7.33514C52.2996 6.8868 51.6274 6.718 50.9999 6.718V10.718ZM50.5134 10.5535C50.3892 10.4647 50.2738 10.3441 50.1855 10.1981C50.0992 10.0554 50.0609 9.92521 50.0451 9.83658L53.9828 9.13342C53.8579 8.43393 53.4908 7.76451 52.8384 7.29853L50.5134 10.5535ZM50.0583 9.90406C49.9937 9.60242 50.0856 9.42731 50.065 9.47248L53.7029 11.1355C53.9595 10.574 54.1382 9.85291 53.9695 9.06594L50.0583 9.90406ZM50.0635 9.47562L46.9045 16.4176L50.5453 18.0744L53.7043 11.1324L50.0635 9.47562ZM46.8866 16.4582C46.8529 16.5368 46.889 16.4062 47.0888 16.2672L49.373 19.5508C49.9715 19.1345 50.3369 18.5618 50.5632 18.0338L46.8866 16.4582ZM47.0888 16.2672C47.3251 16.1028 47.5013 16.117 47.4379 16.117V20.117C48.0332 20.117 48.738 19.9926 49.373 19.5508L47.0888 16.2672ZM54.3044 17.688L52.8616 19.0731L52.8898 19.1025L52.9193 19.1308L54.3044 17.688ZM54.3044 9.16L55.7186 10.5742L55.7186 10.5742L54.3044 9.16ZM60.3493 10.447L61.7636 11.8612L61.7827 11.8421L61.8013 11.8225L60.3493 10.447ZM56.2803 10.681V8.681H54.2803V10.681H56.2803ZM56.2803 12.423H54.2803V14.423H56.2803V12.423ZM60.0504 12.657L58.6361 14.0712L58.6552 14.0903L58.6749 14.1089L60.0504 12.657ZM60.0504 14.035L58.6749 12.5831L58.6552 12.6017L58.6361 12.6208L60.0504 14.035ZM56.2803 14.269V12.269H54.2803V14.269H56.2803ZM56.2803 16.154H54.2803V18.154H56.2803V16.154ZM60.3493 16.401L58.8974 17.7765L58.916 17.7961L58.9351 17.8152L60.3493 16.401ZM55.2404 16C55.2024 16 55.2434 15.9947 55.3333 16.0246C55.4317 16.0574 55.564 16.1248 55.6894 16.2452L52.9193 19.1308C53.6248 19.8081 54.5044 20 55.2404 20V16ZM55.7471 16.3029C55.8628 16.4234 55.9307 16.5527 55.965 16.6543C55.9966 16.7476 55.9924 16.7942 55.9924 16.765H51.9924C51.9924 17.5062 52.1915 18.375 52.8616 19.0731L55.7471 16.3029ZM55.9924 16.765V10.07H51.9924V16.765H55.9924ZM55.9924 10.07C55.9924 10.0399 55.9968 10.0913 55.9622 10.1921C55.9245 10.3023 55.8489 10.4438 55.7186 10.5742L52.8901 7.74579C52.1894 8.44655 51.9924 9.33446 51.9924 10.07H55.9924ZM55.7186 10.5742C55.597 10.6958 55.4636 10.7685 55.3569 10.8056C55.2593 10.8395 55.2099 10.835 55.2404 10.835V6.835C54.4833 6.835 53.5928 7.04315 52.8901 7.74579L55.7186 10.5742ZM55.2404 10.835H59.6474V6.835H55.2404V10.835ZM59.6474 10.835C59.6427 10.835 59.5571 10.8351 59.4244 10.7909C59.282 10.7434 59.1015 10.6495 58.9351 10.4832L61.7636 7.65479C61.1002 6.99143 60.2676 6.835 59.6474 6.835V10.835ZM58.9351 10.4832C58.6035 10.1516 58.5834 9.79695 58.5834 9.745H62.5834C62.5834 9.10372 62.4072 8.29843 61.7636 7.65479L58.9351 10.4832ZM58.5834 9.745C58.5834 9.71327 58.5963 9.38934 58.8974 9.07151L61.8013 11.8225C62.4144 11.1753 62.5834 10.3834 62.5834 9.745H58.5834ZM58.9351 9.03279C59.1015 8.86646 59.282 8.7726 59.4244 8.72513C59.5571 8.68089 59.6427 8.681 59.6474 8.681V12.681C60.2676 12.681 61.1002 12.5246 61.7636 11.8612L58.9351 9.03279ZM59.6474 8.681H56.2803V12.681H59.6474V8.681ZM54.2803 10.681V12.423H58.2803V10.681H54.2803ZM56.2803 14.423H59.3614V10.423H56.2803V14.423ZM59.3614 14.423C59.3374 14.423 58.9779 14.413 58.6361 14.0712L61.4646 11.2428C60.8108 10.589 59.9919 10.423 59.3614 10.423V14.423ZM58.6749 14.1089C58.5126 13.9552 58.4094 13.7787 58.3529 13.6212C58.3002 13.474 58.2974 13.3706 58.2974 13.346H62.2974C62.2974 12.6863 62.1103 11.8536 61.4258 11.2051L58.6749 14.1089ZM58.2974 13.346C58.2974 13.3214 58.3002 13.218 58.3529 13.0708C58.4094 12.9133 58.5126 12.7368 58.6749 12.5831L61.4258 15.4869C62.1103 14.8384 62.2974 14.0057 62.2974 13.346H58.2974ZM58.6361 12.6208C58.9779 12.279 59.3374 12.269 59.3614 12.269V16.269C59.9919 16.269 60.8108 16.103 61.4646 15.4492L58.6361 12.6208ZM59.3614 12.269H56.2803V16.269H59.3614V12.269ZM54.2803 14.269V16.154H58.2803V14.269H54.2803ZM56.2803 18.154H59.6474V14.154H56.2803V18.154ZM59.6474 18.154C59.6226 18.154 59.2439 18.1422 58.8974 17.7765L61.8013 15.0255C61.1428 14.3305 60.2961 14.154 59.6474 14.154V18.154ZM58.9351 17.8152C58.6035 17.4836 58.5834 17.1289 58.5834 17.077H62.5834C62.5834 16.4357 62.4072 15.6304 61.7636 14.9868L58.9351 17.8152ZM58.5834 17.077C58.5834 17.0531 58.5934 16.6935 58.9351 16.3518L61.7636 19.1802C62.4173 18.5265 62.5834 17.7076 62.5834 17.077H58.5834ZM58.9351 16.3518C59.1015 16.1855 59.282 16.0916 59.4244 16.0441C59.5571 15.9999 59.6427 16 59.6474 16V20C60.2676 20 61.1002 19.8436 61.7636 19.1802L58.9351 16.3518ZM59.6474 16H55.2404V20H59.6474V16ZM63.1737 17.831L64.5879 16.4168L63.1737 17.831ZM63.1737 9.03L64.619 10.4124L64.6337 10.3971L64.648 10.3814L63.1737 9.03ZM64.5777 8.874L63.4683 10.5381L63.4683 10.5381L64.5777 8.874ZM65.0977 9.394L63.5251 10.6296L63.5307 10.6368L63.5364 10.6439L65.0977 9.394ZM69.2187 14.542V16.542H73.3816L70.7801 13.2921L69.2187 14.542ZM68.8547 14.542H66.8547V16.542H68.8547V14.542ZM69.1277 9.004L67.7135 7.58979L67.697 7.60623L67.681 7.62305L69.1277 9.004ZM70.7787 9.004L69.332 10.3849L69.348 10.4018L69.3645 10.4182L70.7787 9.004ZM70.8047 17.831L72.2846 19.1763L72.2994 19.16L72.3139 19.1434L70.8047 17.831ZM69.4007 17.961L68.2713 19.6116L68.3206 19.6453L68.3717 19.676L69.4007 17.961ZM68.8677 17.441L67.3048 18.6889L67.311 18.6967L67.3172 18.7043L68.8677 17.441ZM64.7467 12.28V10.28H60.5904L63.1838 13.5279L64.7467 12.28ZM65.1107 12.28H67.1107V10.28H65.1107V12.28ZM64.8247 17.831L63.4105 16.4168L63.394 16.4332L63.378 16.45L64.8247 17.831ZM64.0057 16.117C63.9937 16.117 64.0608 16.1149 64.1749 16.1541C64.2982 16.1965 64.4498 16.2787 64.5879 16.4168L61.7595 19.2452C62.4415 19.9273 63.3022 20.117 64.0057 20.117V16.117ZM64.5879 16.4168C64.8968 16.7257 64.8877 17.0349 64.8877 16.986H60.8877C60.8877 17.6824 61.0693 18.555 61.7595 19.2452L64.5879 16.4168ZM64.8877 16.986V9.901H60.8877V16.986H64.8877ZM64.8877 9.901C64.8877 9.83521 64.9018 10.1168 64.619 10.4124L61.7284 7.64755C61.0643 8.34185 60.8877 9.20412 60.8877 9.901H64.8877ZM64.648 10.3814C64.5535 10.4846 64.4244 10.5801 64.2699 10.644C64.1201 10.706 63.9958 10.718 63.9277 10.718V6.718C63.121 6.718 62.3113 7.01106 61.6994 7.67855L64.648 10.3814ZM63.9277 10.718C63.9457 10.718 63.9078 10.7201 63.8315 10.7018C63.7528 10.6829 63.6194 10.6388 63.4683 10.5381L65.6871 7.2099C65.0802 6.8053 64.4214 6.718 63.9277 6.718V10.718ZM63.4683 10.5381C63.4369 10.5172 63.4174 10.5013 63.4097 10.4948C63.4018 10.4882 63.4021 10.4878 63.4105 10.4962C63.4286 10.5144 63.467 10.5557 63.5251 10.6296L66.6703 8.15836C66.4219 7.84211 66.0961 7.48256 65.6871 7.2099L63.4683 10.5381ZM63.5364 10.6439L67.6573 15.7919L70.7801 13.2921L66.6591 8.14413L63.5364 10.6439ZM69.2187 12.542H68.8547V16.542H69.2187V12.542ZM70.8547 14.542V9.836H66.8547V14.542H70.8547ZM70.8547 9.836C70.8547 9.78787 70.8643 10.0813 70.5744 10.385L67.681 7.62305C67.0271 8.30808 66.8547 9.15613 66.8547 9.836H70.8547ZM70.5419 10.4182C70.4038 10.5563 70.2522 10.6385 70.1289 10.6809C70.0148 10.7201 69.9477 10.718 69.9597 10.718V6.718C69.2562 6.718 68.3955 6.90774 67.7135 7.58979L70.5419 10.4182ZM69.9597 10.718C69.9727 10.718 69.9003 10.7204 69.7781 10.6777C69.6452 10.6313 69.4802 10.5402 69.332 10.3849L72.2254 7.62305C71.5402 6.90516 70.6563 6.718 69.9597 6.718V10.718ZM69.3645 10.4182C69.2264 10.2801 69.1442 10.1285 69.1018 10.0052C69.0626 9.89111 69.0647 9.82401 69.0647 9.836H73.0647C73.0647 9.13248 72.875 8.27183 72.1929 7.58979L69.3645 10.4182ZM69.0647 9.836V17.038H73.0647V9.836H69.0647ZM69.0647 17.038C69.0647 17.0289 69.0658 16.9622 69.0992 16.8601C69.1346 16.7525 69.1979 16.6309 69.2955 16.5186L72.3139 19.1434C72.8762 18.4967 73.0647 17.7264 73.0647 17.038H69.0647ZM69.3248 16.4857C69.4349 16.3645 69.5794 16.2606 69.7446 16.1933C69.9036 16.1286 70.0337 16.117 70.1027 16.117V20.117C70.8716 20.117 71.6761 19.8457 72.2846 19.1763L69.3248 16.4857ZM70.1027 16.117C70.0695 16.117 70.0866 16.1137 70.1401 16.1256C70.195 16.1378 70.3014 16.1691 70.4297 16.246L68.3717 19.676C68.9667 20.033 69.6014 20.117 70.1027 20.117V16.117ZM70.5301 16.3104C70.5627 16.3327 70.5659 16.3396 70.5406 16.3149C70.5163 16.2912 70.4753 16.2478 70.4182 16.1777L67.3172 18.7043C67.5737 19.0191 67.8896 19.3504 68.2713 19.6116L70.5301 16.3104ZM70.4306 16.1931L66.3096 11.0321L63.1838 13.5279L67.3048 18.6889L70.4306 16.1931ZM64.7467 14.28H65.1107V10.28H64.7467V14.28ZM63.1107 12.28V16.986H67.1107V12.28H63.1107ZM63.1107 16.986C63.1107 17.0349 63.1016 16.7257 63.4105 16.4168L66.2389 19.2452C66.9291 18.555 67.1107 17.6824 67.1107 16.986H63.1107ZM63.378 16.45C63.5262 16.2948 63.6912 16.2037 63.8241 16.1573C63.9463 16.1146 64.0187 16.117 64.0057 16.117V20.117C64.7023 20.117 65.5862 19.9298 66.2714 19.212L63.378 16.45ZM76.1193 17.805L74.6765 19.1901L74.6906 19.2048L74.7051 19.2192L76.1193 17.805ZM75.8073 10.785H77.8073V8.785H75.8073V10.785ZM73.0253 10.538L71.5753 11.9155L71.6106 11.9527L71.6478 11.988L73.0253 10.538ZM73.0253 9.082L71.6478 7.632L71.6292 7.64966L71.6111 7.66779L73.0253 9.082ZM80.9683 9.082L79.5541 10.4962L79.5722 10.5143L79.5908 10.532L80.9683 9.082ZM80.9683 10.538L82.3825 11.9522V11.9522L80.9683 10.538ZM78.1993 10.785V8.785H76.1993V10.785H78.1993ZM77.9003 17.805L79.3442 19.1888L79.3583 19.1741L79.3721 19.1591L77.9003 17.805ZM77.0033 16.117C76.9911 16.117 77.0542 16.115 77.1619 16.153C77.2783 16.1941 77.4133 16.2706 77.5335 16.3908L74.7051 19.2192C75.3901 19.9042 76.2555 20.117 77.0033 20.117V16.117ZM77.562 16.4199C77.6682 16.5305 77.7369 16.6538 77.7743 16.7612C77.809 16.8612 77.8073 16.9193 77.8073 16.908H73.8073C73.8073 17.6603 74.0215 18.5078 74.6765 19.1901L77.562 16.4199ZM77.8073 16.908V10.785H73.8073V16.908H77.8073ZM75.8073 8.785H73.7663V12.785H75.8073V8.785ZM73.7663 8.785C73.7793 8.785 74.0923 8.79302 74.4028 9.088L71.6478 11.988C72.3049 12.6123 73.1119 12.785 73.7663 12.785V8.785ZM74.4753 9.1605C74.6065 9.2986 74.6889 9.45056 74.734 9.58341C74.7764 9.70844 74.7783 9.79334 74.7783 9.81H70.7783C70.7783 10.4732 70.96 11.2679 71.5753 11.9155L74.4753 9.1605ZM74.7783 9.81C74.7783 9.81556 74.7731 10.1626 74.4395 10.4962L71.6111 7.66779C70.9481 8.33072 70.7783 9.1631 70.7783 9.81H74.7783ZM74.4028 10.532C74.0923 10.827 73.7793 10.835 73.7663 10.835V6.835C73.1119 6.835 72.3049 7.00769 71.6478 7.632L74.4028 10.532ZM73.7663 10.835H80.2403V6.835H73.7663V10.835ZM80.2403 10.835C80.2347 10.835 79.8877 10.8298 79.5541 10.4962L82.3825 7.66779C81.7196 7.00485 80.8872 6.835 80.2403 6.835V10.835ZM79.5908 10.532C79.4328 10.3819 79.3335 10.2105 79.2798 10.0602C79.2298 9.92016 79.2283 9.82508 79.2283 9.81H83.2283C83.2283 9.13554 83.0384 8.29 82.3458 7.632L79.5908 10.532ZM79.2283 9.81C79.2283 9.78358 79.2317 9.68797 79.2798 9.55333C79.3308 9.41041 79.4206 9.25722 79.5541 9.12379L82.3825 11.9522C83.0262 11.3085 83.2283 10.5005 83.2283 9.81H79.2283ZM79.5541 9.12379C79.8877 8.79018 80.2347 8.785 80.2403 8.785V12.785C80.8872 12.785 81.7196 12.6151 82.3825 11.9522L79.5541 9.12379ZM80.2403 8.785H78.1993V12.785H80.2403V8.785ZM76.1993 10.785V16.908H80.1993V10.785H76.1993ZM76.1993 16.908C76.1993 16.9273 76.1965 16.8779 76.2271 16.7858C76.2602 16.6866 76.3236 16.5648 76.4284 16.4509L79.3721 19.1591C80.002 18.4745 80.1993 17.6383 80.1993 16.908H76.1993ZM76.4563 16.4212C76.5963 16.2751 76.7505 16.1914 76.8695 16.15C76.9779 16.1123 77.0344 16.117 77.0033 16.117V20.117C77.7324 20.117 78.6412 19.9224 79.3442 19.1888L76.4563 16.4212ZM85.2135 17.896L84.5714 19.7901L84.5859 19.795L84.6004 19.7997L85.2135 17.896ZM83.9135 17.129L82.5173 18.561L82.5261 18.5696L82.535 18.5781L83.9135 17.129ZM83.1205 15.868L81.2263 16.5101L81.2329 16.5296L81.2399 16.5489L83.1205 15.868ZM83.1725 9.03L84.5563 10.474L84.5716 10.4593L84.5867 10.4442L83.1725 9.03ZM84.9405 9.03L83.4965 10.4138L83.5259 10.4445L83.5567 10.474L84.9405 9.03ZM85.6945 15.634L84.1869 16.9483L85.6945 15.634ZM88.2555 15.634L89.763 16.9483V16.9483L88.2555 15.634ZM90.7515 9.03L89.3075 10.4138L89.3222 10.4292L89.3373 10.4442L90.7515 9.03ZM90.5825 16.349L88.8039 15.4343L88.7988 15.4442L90.5825 16.349ZM89.2175 17.701L90.0913 19.5L90.1016 19.495L90.1119 19.4899L89.2175 17.701ZM86.9815 16.143C86.474 16.143 86.0985 16.0799 85.8265 15.9923L84.6004 19.7997C85.3511 20.0415 86.1543 20.143 86.9815 20.143V16.143ZM85.8556 16.0019C85.591 15.9122 85.4165 15.7984 85.2919 15.6799L82.535 18.5781C83.1211 19.1356 83.8133 19.5331 84.5714 19.7901L85.8556 16.0019ZM85.3097 15.697C85.2007 15.5908 85.0911 15.436 85.001 15.1871L81.2399 16.5489C81.5138 17.3053 81.9329 17.9912 82.5173 18.561L85.3097 15.697ZM85.0146 15.2259C84.9257 14.9636 84.8605 14.5985 84.8605 14.1H80.8605C80.8605 14.9362 80.9686 15.7497 81.2263 16.5101L85.0146 15.2259ZM84.8605 14.1V9.927H80.8605V14.1H84.8605ZM84.8605 9.927C84.8605 9.8959 84.8652 9.95234 84.8275 10.0608C84.7861 10.1798 84.7024 10.334 84.5563 10.474L81.7887 7.58602C81.0551 8.28903 80.8605 9.19785 80.8605 9.927H84.8605ZM84.5867 10.4442C84.4665 10.5644 84.3315 10.6409 84.2151 10.682C84.1074 10.72 84.0443 10.718 84.0565 10.718V6.718C83.3087 6.718 82.4433 6.93079 81.7583 7.61579L84.5867 10.4442ZM84.0565 10.718C84.0787 10.718 84.0164 10.7215 83.9043 10.682C83.782 10.6388 83.6314 10.5545 83.4965 10.4138L86.3845 7.64619C85.6891 6.92065 84.7922 6.718 84.0565 6.718V10.718ZM83.5567 10.474C83.4106 10.334 83.3269 10.1798 83.2855 10.0608C83.2478 9.95234 83.2525 9.8959 83.2525 9.927H87.2525C87.2525 9.19785 87.0579 8.28903 86.3243 7.58602L83.5567 10.474ZM83.2525 9.927V14.126H87.2525V9.927H83.2525ZM83.2525 14.126C83.2525 15.0473 83.451 16.1041 84.1869 16.9483L87.202 14.3197C87.274 14.4023 87.2882 14.4612 87.2822 14.441C87.2744 14.4143 87.2525 14.3187 87.2525 14.126H83.2525ZM84.1869 16.9483C84.9551 17.8294 85.9999 18.141 86.9815 18.141V14.141C86.8967 14.141 86.9059 14.1281 86.9703 14.1534C87.0031 14.1664 87.0443 14.187 87.0882 14.2178C87.1324 14.2488 87.1709 14.284 87.202 14.3197L84.1869 16.9483ZM86.9815 18.141C87.9657 18.141 89.0008 17.8226 89.763 16.9483L86.7479 14.3197C86.7774 14.2859 86.8145 14.2517 86.8579 14.2211C86.9012 14.1906 86.9424 14.1695 86.9765 14.156C87.0438 14.1292 87.0582 14.141 86.9815 14.141V18.141ZM89.763 16.9483C90.499 16.1041 90.6975 15.0473 90.6975 14.126H86.6975C86.6975 14.3187 86.6755 14.4143 86.6677 14.441C86.6618 14.4612 86.676 14.4023 86.7479 14.3197L89.763 16.9483ZM90.6975 14.126V9.927H86.6975V14.126H90.6975ZM90.6975 9.927C90.6975 9.83662 90.7187 10.1362 90.4107 10.4442L87.5823 7.61579C86.8756 8.32248 86.6975 9.22004 86.6975 9.927H90.6975ZM90.4107 10.4442C90.2905 10.5644 90.1555 10.6409 90.0391 10.682C89.9314 10.72 89.8683 10.718 89.8805 10.718V6.718C89.1327 6.718 88.2673 6.93079 87.5823 7.61579L90.4107 10.4442ZM89.8805 10.718C89.8936 10.718 89.8253 10.7202 89.7098 10.6788C89.5843 10.6339 89.4372 10.5491 89.3075 10.4138L92.1954 7.64619C91.5082 6.92901 90.623 6.718 89.8805 6.718V10.718ZM89.3373 10.4442C89.0292 10.1362 89.0505 9.83662 89.0505 9.927H93.0505C93.0505 9.22004 92.8724 8.32248 92.1657 7.61579L89.3373 10.4442ZM89.0505 9.927V14.1H93.0505V9.927H89.0505ZM89.0505 14.1C89.0505 14.7691 88.9325 15.1842 88.8039 15.4343L92.3611 17.2637C92.8564 16.3005 93.0505 15.2162 93.0505 14.1H89.0505ZM88.7988 15.4442C88.6919 15.6551 88.551 15.7982 88.3231 15.9121L90.1119 19.4899C91.0973 18.9971 91.8664 18.2389 92.3661 17.2538L88.7988 15.4442ZM88.3437 15.902C88.0803 16.0299 87.653 16.143 86.9815 16.143V20.143C88.0779 20.143 89.1413 19.9614 90.0913 19.5L88.3437 15.902ZM93.8721 17.805L92.4293 19.1901L92.4434 19.2048L92.4579 19.2192L93.8721 17.805ZM93.8721 9.147L92.487 7.70422L92.4723 7.71836L92.4579 7.73279L93.8721 9.147ZM100.372 9.602L99.0279 11.0829L99.0398 11.0937L99.0519 11.1043L100.372 9.602ZM100.84 13.229L99.1251 12.2L99.1189 12.2104L100.84 13.229ZM99.7351 14.217L100.59 16.0251L100.597 16.0219L100.604 16.0185L99.7351 14.217ZM97.9671 14.555L96.1395 13.7427L94.8896 16.555H97.9671V14.555ZM98.0711 14.321V12.321H96.7713L96.2435 13.5087L98.0711 14.321ZM99.6831 14.594L98.6093 16.2813L98.6278 16.2931L98.6465 16.3044L99.6831 14.594ZM100.398 15.4L98.6264 16.328L98.6378 16.3498L98.6498 16.3713L100.398 15.4ZM101.048 16.57L102.799 15.6038L102.796 15.5987L101.048 16.57ZM101.243 17.311L103.242 17.385L103.242 17.3824L101.243 17.311ZM100.957 17.896L102.252 19.4199L102.259 19.4145L100.957 17.896ZM99.3581 17.909L98.2487 19.5731L98.2642 19.5835L98.28 19.5935L99.3581 17.909ZM98.7991 17.259L97.0429 18.216L97.048 18.2253L97.0532 18.2346L98.7991 17.259ZM97.6161 15.088L99.3723 14.131L99.3719 14.1303L97.6161 15.088ZM97.2131 14.698L96.3187 16.4869L96.3769 16.516L96.437 16.5413L97.2131 14.698ZM95.9521 14.581V12.581H93.9521V14.581H95.9521ZM95.6531 17.805L97.0971 19.1888L97.1112 19.1741L97.125 19.1591L95.6531 17.805ZM95.9521 12.891H93.9521V14.891H95.9521V12.891ZM98.5911 12.618L97.3911 11.018L98.5911 12.618ZM98.5911 10.954L97.3554 12.5266L97.3731 12.5405L97.3911 12.554L98.5911 10.954ZM95.9521 10.668V8.668H93.9521V10.668H95.9521ZM94.7561 16.117C94.7439 16.117 94.807 16.115 94.9147 16.153C95.0311 16.1941 95.1661 16.2706 95.2863 16.3908L92.4579 19.2192C93.1429 19.9042 94.0083 20.117 94.7561 20.117V16.117ZM95.3149 16.4199C95.421 16.5305 95.4897 16.6538 95.5271 16.7612C95.5618 16.8612 95.5601 16.9193 95.5601 16.908H91.5601C91.5601 17.6603 91.7744 18.5078 92.4293 19.1901L95.3149 16.4199ZM95.5601 16.908V10.044H91.5601V16.908H95.5601ZM95.5601 10.044C95.5601 10.0227 95.5634 10.08 95.5271 10.1843C95.4877 10.2976 95.4116 10.4359 95.2863 10.5612L92.4579 7.73279C91.7648 8.42582 91.5601 9.30247 91.5601 10.044H95.5601ZM95.2571 10.5898C95.1466 10.6959 95.0233 10.7646 94.9159 10.802C94.8159 10.8368 94.7577 10.835 94.7691 10.835V6.835C94.0168 6.835 93.1693 7.04927 92.487 7.70422L95.2571 10.5898ZM94.7691 10.835H97.9671V6.835H94.7691V10.835ZM97.9671 10.835C98.6942 10.835 98.9493 11.0115 99.0279 11.0829L101.716 8.12109C100.668 7.16978 99.32 6.835 97.9671 6.835V10.835ZM99.0519 11.1043C99.1117 11.1569 99.2301 11.2659 99.2301 11.708H103.23C103.23 10.3474 102.777 9.05244 101.692 8.09967L99.0519 11.1043ZM99.2301 11.708C99.2301 11.9812 99.1722 12.1215 99.1251 12.2L102.555 14.258C103.028 13.4698 103.23 12.5962 103.23 11.708H99.2301ZM99.1189 12.2104C99.0868 12.2646 99.0307 12.3363 98.8665 12.4155L100.604 16.0185C101.41 15.6297 102.091 15.0427 102.561 14.2476L99.1189 12.2104ZM98.8803 12.4089C98.7441 12.4733 98.4669 12.555 97.9671 12.555V16.555C98.8713 16.555 99.7727 16.4114 100.59 16.0251L98.8803 12.4089ZM99.7947 15.3673L99.8987 15.1333L96.2435 13.5087L96.1395 13.7427L99.7947 15.3673ZM98.0711 16.321H98.6951V12.321H98.0711V16.321ZM98.6951 16.321C98.7176 16.321 98.7127 16.3236 98.6889 16.317C98.6638 16.3101 98.6351 16.2977 98.6093 16.2813L100.757 12.9067C100.118 12.5004 99.409 12.321 98.6951 12.321V16.321ZM98.6465 16.3044C98.6271 16.2926 98.6114 16.281 98.5996 16.271C98.5879 16.2612 98.5817 16.2544 98.5802 16.2527C98.5775 16.2497 98.5958 16.2696 98.6264 16.328L102.17 14.472C101.849 13.8588 101.382 13.2848 100.72 12.8836L98.6465 16.3044ZM98.6498 16.3713L99.2998 17.5413L102.796 15.5987L102.146 14.4287L98.6498 16.3713ZM99.2969 17.5362C99.2963 17.5351 99.2809 17.5068 99.2667 17.4527C99.252 17.3968 99.2414 17.3238 99.2444 17.2396L103.242 17.3824C103.266 16.7167 103.081 16.114 102.799 15.6038L99.2969 17.5362ZM99.2445 17.237C99.2496 17.097 99.2838 16.9272 99.3683 16.7543C99.4523 16.5825 99.5613 16.4583 99.6555 16.3775L102.259 19.4145C102.853 18.9051 103.212 18.1915 103.242 17.385L99.2445 17.237ZM99.6618 16.3721C99.99 16.0931 100.277 16.117 100.19 16.117V20.117C100.779 20.117 101.577 19.9935 102.252 19.4199L99.6618 16.3721ZM100.19 16.117C100.117 16.117 100.244 16.1018 100.436 16.2245L98.28 19.5935C98.905 19.9936 99.5877 20.117 100.19 20.117V16.117ZM100.467 16.2449C100.535 16.2897 100.57 16.3281 100.579 16.3384C100.587 16.3479 100.573 16.3342 100.545 16.2834L97.0532 18.2346C97.3208 18.7136 97.7011 19.208 98.2487 19.5731L100.467 16.2449ZM100.555 16.302L99.3723 14.131L95.8599 16.045L97.0429 18.216L100.555 16.302ZM99.3719 14.1303C99.0993 13.6305 98.6555 13.1353 97.9892 12.8547L96.437 16.5413C96.1 16.3994 95.9249 16.1642 95.8603 16.0457L99.3719 14.1303ZM98.1075 12.9091C97.6252 12.668 97.1263 12.581 96.6671 12.581V16.581C96.6239 16.581 96.4889 16.572 96.3187 16.4869L98.1075 12.9091ZM96.6671 12.581H95.9521V16.581H96.6671V12.581ZM93.9521 14.581V16.908H97.9521V14.581H93.9521ZM93.9521 16.908C93.9521 16.9273 93.9493 16.8779 93.98 16.7858C94.013 16.6866 94.0765 16.5648 94.1812 16.4509L97.125 19.1591C97.7548 18.4745 97.9521 17.6383 97.9521 16.908H93.9521ZM94.2091 16.4212C94.3491 16.2751 94.5033 16.1914 94.6223 16.15C94.7307 16.1123 94.7872 16.117 94.7561 16.117V20.117C95.4852 20.117 96.3941 19.9224 97.0971 19.1888L94.2091 16.4212ZM95.9521 14.891H97.5381V10.891H95.9521V14.891ZM97.5381 14.891C98.2194 14.891 99.0649 14.7626 99.7911 14.218L97.3911 11.018C97.5148 10.9252 97.6153 10.8942 97.6439 10.8868C97.6691 10.8802 97.6411 10.891 97.5381 10.891V14.891ZM99.7911 14.218C100.665 13.5623 100.955 12.6046 100.955 11.773H96.9551C96.9551 11.7558 96.9575 11.641 97.0273 11.479C97.1031 11.303 97.23 11.1388 97.3911 11.018L99.7911 14.218ZM100.955 11.773C100.955 10.921 100.641 9.99125 99.7911 9.354L97.3911 12.554C97.2438 12.4436 97.1166 12.2878 97.0365 12.1075C96.9615 11.9388 96.9551 11.8111 96.9551 11.773H100.955ZM99.8267 9.38136C99.0962 8.80734 98.2357 8.668 97.5381 8.668V12.668C97.6348 12.668 97.6549 12.6786 97.6216 12.6696C97.5839 12.6593 97.4791 12.6238 97.3554 12.5266L99.8267 9.38136ZM97.5381 8.668H95.9521V12.668H97.5381V8.668ZM93.9521 10.668V12.891H97.9521V10.668H93.9521ZM103.961 17.688L102.518 19.0731L102.546 19.1025L102.576 19.1308L103.961 17.688ZM103.961 9.16L105.375 10.5742V10.5742L103.961 9.16ZM110.006 10.447L111.42 11.8612L111.439 11.8421L111.458 11.8225L110.006 10.447ZM105.937 10.681V8.681H103.937V10.681H105.937ZM105.937 12.423H103.937V14.423H105.937V12.423ZM109.707 12.657L108.293 14.0712L108.312 14.0903L108.331 14.1089L109.707 12.657ZM109.707 14.035L108.331 12.5831L108.312 12.6017L108.293 12.6208L109.707 14.035ZM105.937 14.269V12.269H103.937V14.269H105.937ZM105.937 16.154H103.937V18.154H105.937V16.154ZM110.006 16.401L108.554 17.7765L108.572 17.7961L108.592 17.8152L110.006 16.401ZM104.897 16C104.859 16 104.9 15.9947 104.99 16.0246C105.088 16.0574 105.22 16.1248 105.346 16.2452L102.576 19.1308C103.281 19.8081 104.161 20 104.897 20V16ZM105.404 16.3029C105.519 16.4234 105.587 16.5527 105.621 16.6543C105.653 16.7476 105.649 16.7942 105.649 16.765H101.649C101.649 17.5062 101.848 18.375 102.518 19.0731L105.404 16.3029ZM105.649 16.765V10.07H101.649V16.765H105.649ZM105.649 10.07C105.649 10.0399 105.653 10.0913 105.619 10.1921C105.581 10.3023 105.505 10.4438 105.375 10.5742L102.547 7.74579C101.846 8.44655 101.649 9.33446 101.649 10.07H105.649ZM105.375 10.5742C105.253 10.6958 105.12 10.7685 105.013 10.8056C104.916 10.8395 104.866 10.835 104.897 10.835V6.835C104.14 6.835 103.249 7.04315 102.547 7.74579L105.375 10.5742ZM104.897 10.835H109.304V6.835H104.897V10.835ZM109.304 10.835C109.299 10.835 109.214 10.8351 109.081 10.7909C108.938 10.7434 108.758 10.6495 108.592 10.4832L111.42 7.65479C110.757 6.99143 109.924 6.835 109.304 6.835V10.835ZM108.592 10.4832C108.26 10.1516 108.24 9.79695 108.24 9.745H112.24C112.24 9.10372 112.064 8.29843 111.42 7.65479L108.592 10.4832ZM108.24 9.745C108.24 9.71327 108.253 9.38934 108.554 9.07151L111.458 11.8225C112.071 11.1753 112.24 10.3834 112.24 9.745H108.24ZM108.592 9.03279C108.758 8.86646 108.938 8.7726 109.081 8.72513C109.214 8.68089 109.299 8.681 109.304 8.681V12.681C109.924 12.681 110.757 12.5246 111.42 11.8612L108.592 9.03279ZM109.304 8.681H105.937V12.681H109.304V8.681ZM103.937 10.681V12.423H107.937V10.681H103.937ZM105.937 14.423H109.018V10.423H105.937V14.423ZM109.018 14.423C108.994 14.423 108.634 14.413 108.293 14.0712L111.121 11.2428C110.467 10.589 109.648 10.423 109.018 10.423V14.423ZM108.331 14.1089C108.169 13.9552 108.066 13.7787 108.009 13.6212C107.957 13.474 107.954 13.3706 107.954 13.346H111.954C111.954 12.6863 111.767 11.8536 111.082 11.2051L108.331 14.1089ZM107.954 13.346C107.954 13.3214 107.957 13.218 108.009 13.0708C108.066 12.9133 108.169 12.7368 108.331 12.5831L111.082 15.4869C111.767 14.8384 111.954 14.0057 111.954 13.346H107.954ZM108.293 12.6208C108.634 12.279 108.994 12.269 109.018 12.269V16.269C109.648 16.269 110.467 16.103 111.121 15.4492L108.293 12.6208ZM109.018 12.269H105.937V16.269H109.018V12.269ZM103.937 14.269V16.154H107.937V14.269H103.937ZM105.937 18.154H109.304V14.154H105.937V18.154ZM109.304 18.154C109.279 18.154 108.9 18.1422 108.554 17.7765L111.458 15.0255C110.799 14.3305 109.953 14.154 109.304 14.154V18.154ZM108.592 17.8152C108.26 17.4836 108.24 17.1289 108.24 17.077H112.24C112.24 16.4357 112.064 15.6304 111.42 14.9868L108.592 17.8152ZM108.24 17.077C108.24 17.0531 108.25 16.6935 108.592 16.3518L111.42 19.1802C112.074 18.5265 112.24 17.7076 112.24 17.077H108.24ZM108.592 16.3518C108.758 16.1855 108.938 16.0916 109.081 16.0441C109.214 15.9999 109.299 16 109.304 16V20C109.924 20 110.757 19.8436 111.42 19.1802L108.592 16.3518ZM109.304 16H104.897V20H109.304V16Z" fill="black" mask="url(#path-1-outside-1_19_189)"/>
</svg>
